AnekTamil-Expanded.ufo
<glyph name="exclam" format="2">
  <advance width="561.53"/>
  <unicode hex="0021"/>
  <outline>
    <contour>
      <point x="358.56500000000005" y="393.69" type="line"/>
      <point x="377.69500000000005" y="1278.0" type="line"/>
      <point x="183.62" y="1278.0" type="line"/>
      <point x="203.535" y="393.69" type="line"/>
    </contour>
    <contour>
      <point x="280.54999999999995" y="-21.85" type="curve" smooth="yes"/>
      <point x="363.295" y="-21.85"/>
      <point x="403.135" y="18.915"/>
      <point x="403.135" y="86.885" type="curve" smooth="yes"/>
      <point x="403.135" y="90.885" type="line" smooth="yes"/>
      <point x="403.135" y="158.64000000000001"/>
      <point x="363.295" y="199.19"/>
      <point x="280.54999999999995" y="199.19" type="curve" smooth="yes"/>
      <point x="200.02" y="199.19"/>
      <point x="159.18" y="158.64000000000001"/>
      <point x="159.18" y="90.885" type="curve" smooth="yes"/>
      <point x="159.18" y="86.885" type="line" smooth="yes"/>
      <point x="159.18" y="18.915"/>
      <point x="200.02" y="-21.85"/>
    </contour>
  </outline>
</glyph>
<glyph name="numbersign" format="2">
  <advance width="1522.47"/>
  <unicode hex="0023"/>
  <outline>
    <contour>
      <point x="291.35" y="0.0" type="line"/>
      <point x="441.39000000000004" y="0.0" type="line"/>
      <point x="651.3899999999999" y="1278.0" type="line"/>
      <point x="501.34999999999997" y="1278.0" type="line"/>
    </contour>
    <contour>
      <point x="82.375" y="315.83500000000004" type="line"/>
      <point x="1362.45" y="315.83500000000004" type="line"/>
      <point x="1362.45" y="445.175" type="line"/>
      <point x="82.375" y="445.175" type="line"/>
    </contour>
    <contour>
      <point x="878.005" y="0.0" type="line"/>
      <point x="1029.0449999999998" y="0.0" type="line"/>
      <point x="1232.69" y="1278.0" type="line"/>
      <point x="1081.865" y="1278.0" type="line"/>
    </contour>
    <contour>
      <point x="162.45" y="833.975" type="line"/>
      <point x="1440.095" y="833.975" type="line"/>
      <point x="1440.095" y="964.1" type="line"/>
      <point x="162.45" y="964.1" type="line"/>
    </contour>
  </outline>
</glyph>
<glyph name="dollar" format="2">
  <advance width="1458.28"/>
  <unicode hex="0024"/>
  <anchor x="725.3549999999999" y="0.0" name="bottom"/>
  <anchor x="725.3549999999999" y="1278.0" name="top"/>
  <outline>
    <contour>
      <point x="801.65" y="1208.135" type="line"/>
      <point x="801.65" y="1533.2250000000001" type="line"/>
      <point x="632.1999999999999" y="1533.2250000000001" type="line"/>
      <point x="632.1999999999999" y="1208.135" type="line"/>
    </contour>
    <contour>
      <point x="801.65" y="-256.655" type="line"/>
      <point x="801.65" y="78.5" type="line"/>
      <point x="632.1999999999999" y="78.5" type="line"/>
      <point x="632.1999999999999" y="-256.655" type="line"/>
    </contour>
    <component base="S"/>
  </outline>
</glyph>
<glyph name="percent" format="2">
  <advance width="1854.31"/>
  <unicode hex="0025"/>
  <outline>
    <contour>
      <point x="315.955" y="0.0" type="line"/>
      <point x="500.61" y="0.0" type="line"/>
      <point x="1540.71" y="1278.0" type="line"/>
      <point x="1356.84" y="1278.0" type="line"/>
    </contour>
    <contour>
      <point x="1409.2549999999999" y="-31.990000000000002" type="curve" smooth="yes"/>
      <point x="1623.3" y="-31.990000000000002"/>
      <point x="1749.8600000000001" y="88.505"/>
      <point x="1749.8600000000001" y="292.77500000000003" type="curve" smooth="yes"/>
      <point x="1749.8600000000001" y="299.13" type="line" smooth="yes"/>
      <point x="1749.8600000000001" y="502.615"/>
      <point x="1622.5149999999999" y="622.325"/>
      <point x="1409.2549999999999" y="622.325" type="curve" smooth="yes"/>
      <point x="1196.4250000000002" y="622.325"/>
      <point x="1070.22" y="500.26000000000005"/>
      <point x="1070.22" y="299.13" type="curve" smooth="yes"/>
      <point x="1070.22" y="292.77500000000003" type="line" smooth="yes"/>
      <point x="1070.22" y="88.505"/>
      <point x="1195.21" y="-31.990000000000002"/>
    </contour>
    <contour>
      <point x="1409.2549999999999" y="88.715" type="curve" smooth="yes"/>
      <point x="1286.9350000000002" y="88.715"/>
      <point x="1212.195" y="161.595"/>
      <point x="1212.195" y="292.775" type="curve" smooth="yes"/>
      <point x="1212.195" y="297.56" type="line" smooth="yes"/>
      <point x="1212.195" y="427.955"/>
      <point x="1285.72" y="502.405"/>
      <point x="1409.2549999999999" y="502.405" type="curve" smooth="yes"/>
      <point x="1532.3600000000001" y="502.405"/>
      <point x="1606.315" y="427.955"/>
      <point x="1606.315" y="297.56" type="curve" smooth="yes"/>
      <point x="1606.315" y="292.775" type="line" smooth="yes"/>
      <point x="1606.315" y="161.595"/>
      <point x="1533.575" y="88.715"/>
    </contour>
    <contour>
      <point x="443.485" y="656.4599999999999" type="curve" smooth="yes"/>
      <point x="656.315" y="656.4599999999999"/>
      <point x="784.09" y="778.525"/>
      <point x="784.09" y="980.4399999999999" type="curve" smooth="yes"/>
      <point x="784.09" y="986.795" type="line" smooth="yes"/>
      <point x="784.09" y="1190.28"/>
      <point x="657.5300000000001" y="1310.7749999999999"/>
      <point x="443.485" y="1310.7749999999999" type="curve" smooth="yes"/>
      <point x="229.225" y="1310.7749999999999"/>
      <point x="104.45" y="1190.28"/>
      <point x="104.45" y="986.795" type="curve" smooth="yes"/>
      <point x="104.45" y="980.4399999999999" type="line" smooth="yes"/>
      <point x="104.45" y="776.9549999999999"/>
      <point x="229.225" y="656.4599999999999"/>
    </contour>
    <contour>
      <point x="443.485" y="776.38" type="curve" smooth="yes"/>
      <point x="320.95" y="776.38"/>
      <point x="245.42499999999998" y="849.8299999999999"/>
      <point x="245.42499999999998" y="980.44" type="curve" smooth="yes"/>
      <point x="245.42499999999998" y="986.7950000000001" type="line" smooth="yes"/>
      <point x="245.42499999999998" y="1116.405"/>
      <point x="319.95" y="1190.855"/>
      <point x="443.485" y="1190.855" type="curve" smooth="yes"/>
      <point x="566.5899999999999" y="1190.855"/>
      <point x="640.5450000000001" y="1116.405"/>
      <point x="640.5450000000001" y="986.7950000000001" type="curve" smooth="yes"/>
      <point x="640.5450000000001" y="980.44" type="line" smooth="yes"/>
      <point x="640.5450000000001" y="849.8299999999999"/>
      <point x="567.8050000000001" y="776.38"/>
    </contour>
  </outline>
</glyph>
<glyph name="ampersand" format="2">
  <advance width="1660.775"/>
  <unicode hex="0026"/>
  <outline>
    <contour>
      <point x="1444.605" y="0.0" type="curve"/>
      <point x="1664.175" y="0.0" type="line"/>
      <point x="1664.175" y="18.13" type="line"/>
      <point x="1539.885" y="119.33500000000001"/>
      <point x="1441.335" y="194.315"/>
      <point x="1307.475" y="297.595" type="curve"/>
      <point x="1241.525" y="347.2" type="line"/>
      <point x="622.89" y="781.915" type="line" smooth="yes"/>
      <point x="530.965" y="846.41"/>
      <point x="468.235" y="897.495"/>
      <point x="468.235" y="982.095" type="curve" smooth="yes"/>
      <point x="468.235" y="983.88" type="line" smooth="yes"/>
      <point x="468.235" y="1086.6399999999999"/>
      <point x="544.05" y="1153.24"/>
      <point x="758.765" y="1153.24" type="curve" smooth="yes"/>
      <point x="949.795" y="1153.24"/>
      <point x="1113.86" y="1103.3700000000001"/>
      <point x="1232.5600000000002" y="1044.575" type="curve"/>
      <point x="1210.29" y="1202.755" type="line"/>
      <point x="1114.16" y="1252.1200000000001"/>
      <point x="957.4399999999999" y="1304.0649999999998"/>
      <point x="734.0749999999999" y="1304.0649999999998" type="curve" smooth="yes"/>
      <point x="416.0" y="1304.0649999999998"/>
      <point x="275.72999999999996" y="1189.14"/>
      <point x="275.72999999999996" y="1000.365" type="curve" smooth="yes"/>
      <point x="275.72999999999996" y="995.225" type="line" smooth="yes"/>
      <point x="275.72999999999996" y="880.0100000000001"/>
      <point x="333.525" y="801.655"/>
      <point x="444.44" y="724.74" type="curve"/>
      <point x="472.495" y="693.405" type="line"/>
      <point x="1141.38" y="227.14000000000001" type="line"/>
      <point x="1174.5" y="207.01" type="line"/>
      <point x="1220.165" y="171.92499999999998"/>
      <point x="1399.1750000000002" y="34.0"/>
    </contour>
    <contour>
      <point x="688.28" y="-28.065" type="curve" smooth="yes"/>
      <point x="949.775" y="-28.065"/>
      <point x="1132.4299999999998" y="52.085"/>
      <point x="1276.1399999999999" y="190.385" type="curve"/>
      <point x="1320.465" y="232.355" type="line"/>
      <point x="1438.315" y="359.43"/>
      <point x="1528.3700000000001" y="540.355"/>
      <point x="1564.94" y="759.99" type="curve"/>
      <point x="1382.995" y="759.99" type="line"/>
      <point x="1349.425" y="578.755"/>
      <point x="1284.35" y="440.37"/>
      <point x="1192.91" y="329.28499999999997" type="curve"/>
      <point x="1155.435" y="287.885" type="line"/>
      <point x="1044.63" y="179.99499999999998"/>
      <point x="891.6" y="121.975"/>
      <point x="701.4849999999999" y="121.975" type="curve" smooth="yes"/>
      <point x="450.78" y="121.975"/>
      <point x="313.815" y="228.565"/>
      <point x="313.815" y="394.11999999999995" type="curve" smooth="yes"/>
      <point x="313.815" y="402.54999999999995" type="line" smooth="yes"/>
      <point x="313.815" y="540.4399999999999"/>
      <point x="391.33000000000004" y="619.825"/>
      <point x="542.7349999999999" y="676.275" type="curve"/>
      <point x="435.45" y="780.99" type="line"/>
      <point x="218.955" y="699.345"/>
      <point x="123.665" y="572.99"/>
      <point x="123.665" y="381.71" type="curve" smooth="yes"/>
      <point x="123.665" y="372.71" type="line" smooth="yes"/>
      <point x="123.665" y="130.42"/>
      <point x="316.45000000000005" y="-28.065"/>
    </contour>
  </outline>
</glyph>
<glyph name="quotesingle" format="2">
  <advance width="438.09000000000003"/>
  <unicode hex="0027"/>
  <outline>
    <contour>
      <point x="288.425" y="796.88" type="line"/>
      <point x="308.125" y="1320.075" type="line"/>
      <point x="129.965" y="1320.075" type="line"/>
      <point x="148.09499999999997" y="796.88" type="line"/>
    </contour>
  </outline>
</glyph>
<glyph name="parenleft" format="2">
  <advance width="759.165"/>
  <unicode hex="0028"/>
  <outline>
    <contour>
      <point x="356.265" y="567.29" type="line" smooth="yes"/>
      <point x="356.265" y="858.235"/>
      <point x="463.125" y="1128.73"/>
      <point x="678.265" y="1347.785" type="curve"/>
      <point x="484.685" y="1347.785" type="line"/>
      <point x="280.03999999999996" y="1134.01"/>
      <point x="178.32000000000002" y="868.225"/>
      <point x="178.32000000000002" y="567.29" type="curve" smooth="yes"/>
      <point x="178.32000000000002" y="547.86" type="line" smooth="yes"/>
      <point x="178.32000000000002" y="236.215"/>
      <point x="276.115" y="-28.43"/>
      <point x="481.545" y="-244.345" type="curve"/>
      <point x="678.265" y="-244.345" type="line"/>
      <point x="462.34" y="-22.075"/>
      <point x="356.265" y="251.56"/>
      <point x="356.265" y="547.86" type="curve" smooth="yes"/>
    </contour>
  </outline>
</glyph>
<glyph name="parenright" format="2">
  <advance width="759.165"/>
  <unicode hex="0029"/>
  <outline>
    <contour>
      <point x="402.9" y="567.29" type="curve" smooth="yes"/>
      <point x="402.9" y="547.86" type="line" smooth="yes"/>
      <point x="402.9" y="251.56"/>
      <point x="296.82500000000005" y="-22.075"/>
      <point x="80.89999999999999" y="-244.345" type="curve"/>
      <point x="277.62" y="-244.345" type="line"/>
      <point x="483.05" y="-28.43"/>
      <point x="580.845" y="236.215"/>
      <point x="580.845" y="547.86" type="curve" smooth="yes"/>
      <point x="580.845" y="567.29" type="line" smooth="yes"/>
      <point x="580.845" y="868.225"/>
      <point x="479.125" y="1134.01"/>
      <point x="274.48" y="1347.785" type="curve"/>
      <point x="80.89999999999999" y="1347.785" type="line"/>
      <point x="296.04" y="1128.73"/>
      <point x="402.9" y="858.235"/>
    </contour>
  </outline>
</glyph>
<glyph name="asterisk" format="2">
  <advance width="910.465"/>
  <unicode hex="002A"/>
  <outline>
    <contour>
      <point x="275.45500000000004" y="597.5" type="line"/>
      <point x="456.91499999999996" y="843.09" type="line"/>
      <point x="453.765" y="843.09" type="line"/>
      <point x="636.58" y="597.5" type="line"/>
      <point x="758.995" y="689.6550000000001" type="line"/>
      <point x="547.34" y="905.62" type="line"/>
      <point x="547.91" y="902.255" type="line"/>
      <point x="839.585" y="962.565" type="line"/>
      <point x="800.755" y="1106.11" type="line"/>
      <point x="512.865" y="1000.6899999999999" type="line"/>
      <point x="514.37" y="998.185" type="line"/>
      <point x="536.0699999999999" y="1278.0" type="line"/>
      <point x="374.61" y="1278.0" type="line"/>
      <point x="397.31" y="998.185" type="line"/>
      <point x="397.6" y="1000.6899999999999" type="line"/>
      <point x="109.71000000000001" y="1106.11" type="line"/>
      <point x="70.88" y="962.565" type="line"/>
      <point x="362.77000000000004" y="902.255" type="line"/>
      <point x="362.34000000000003" y="905.62" type="line"/>
      <point x="150.9" y="689.6550000000001" type="line"/>
    </contour>
  </outline>
</glyph>
<glyph name="plus" format="2">
  <advance width="1340.01"/>
  <unicode hex="002B"/>
  <outline>
    <contour>
      <point x="746.8100000000001" y="90.65499999999999" type="line"/>
      <point x="746.8100000000001" y="1124.785" type="line"/>
      <point x="593.415" y="1124.785" type="line"/>
      <point x="593.415" y="90.65499999999999" type="line"/>
    </contour>
    <contour>
      <point x="146.375" y="537.3399999999999" type="line"/>
      <point x="1193.635" y="537.3399999999999" type="line"/>
      <point x="1193.635" y="678.1" type="line"/>
      <point x="146.375" y="678.1" type="line"/>
    </contour>
  </outline>
</glyph>
<glyph name="comma" format="2">
  <advance width="456.41499999999996"/>
  <unicode hex="002C"/>
  <outline>
    <contour>
      <point x="319.90000000000003" y="280.03499999999997" type="curve"/>
      <point x="146.88000000000002" y="280.03499999999997" type="line"/>
      <point x="152.095" y="241.325"/>
      <point x="154.31000000000003" y="203.97"/>
      <point x="154.31000000000003" y="161.83" type="curve" smooth="yes"/>
      <point x="154.31000000000003" y="2.045000000000001"/>
      <point x="120.88000000000001" y="-121.665"/>
      <point x="34.58" y="-245.30999999999997" type="curve"/>
      <point x="165.91" y="-282.225" type="line"/>
      <point x="286.19000000000005" y="-146.3"/>
      <point x="329.685" y="-5.31"/>
      <point x="329.685" y="168.54000000000002" type="curve" smooth="yes"/>
      <point x="329.685" y="212.97"/>
      <point x="324.46999999999997" y="254.325"/>
    </contour>
  </outline>
</glyph>
<glyph name="hyphen" format="2">
  <advance width="1047.5849999999998"/>
  <unicode hex="002D"/>
  <outline>
    <contour>
      <point x="149.89" y="454.125" type="line"/>
      <point x="897.6949999999999" y="454.125" type="line"/>
      <point x="897.6949999999999" y="596.4549999999999" type="line"/>
      <point x="149.89" y="596.4549999999999" type="line"/>
    </contour>
  </outline>
</glyph>
<glyph name="period" format="2">
  <advance width="484.70500000000004"/>
  <unicode hex="002E"/>
  <outline>
    <contour>
      <point x="241.745" y="-21.85" type="curve" smooth="yes"/>
      <point x="324.49" y="-21.85"/>
      <point x="364.33" y="18.915"/>
      <point x="364.33" y="86.885" type="curve" smooth="yes"/>
      <point x="364.33" y="90.885" type="line" smooth="yes"/>
      <point x="364.33" y="158.64000000000001"/>
      <point x="324.49" y="199.19"/>
      <point x="241.745" y="199.19" type="curve" smooth="yes"/>
      <point x="161.215" y="199.19"/>
      <point x="120.375" y="158.64000000000001"/>
      <point x="120.375" y="90.885" type="curve" smooth="yes"/>
      <point x="120.375" y="86.885" type="line" smooth="yes"/>
      <point x="120.375" y="18.915"/>
      <point x="161.215" y="-21.85"/>
    </contour>
  </outline>
</glyph>
<glyph name="slash" format="2">
  <advance width="1141.92"/>
  <unicode hex="002F"/>
  <outline>
    <contour>
      <point x="30.975" y="-238.26999999999998" type="line"/>
      <point x="212.35" y="-238.26999999999998" type="line"/>
      <point x="1110.945" y="1329.56" type="line"/>
      <point x="930.355" y="1329.56" type="line"/>
    </contour>
  </outline>
</glyph>
<glyph name="zero" format="2">
  <advance width="1527.39"/>
  <unicode hex="0030"/>
  <outline>
    <contour>
      <point x="763.1949999999999" y="-30.42" type="curve" smooth="yes"/>
      <point x="1184.1000000000001" y="-30.42"/>
      <point x="1401.3700000000001" y="205.79500000000002"/>
      <point x="1401.3700000000001" y="629.355" type="curve"/>
      <point x="1401.3700000000001" y="647.215" type="line"/>
      <point x="1401.3700000000001" y="1068.99"/>
      <point x="1184.1000000000001" y="1307.42"/>
      <point x="763.1949999999999" y="1307.42" type="curve" smooth="yes"/>
      <point x="343.28999999999996" y="1307.42"/>
      <point x="126.02000000000001" y="1068.99"/>
      <point x="126.02000000000001" y="647.215" type="curve"/>
      <point x="126.02000000000001" y="629.355" type="line"/>
      <point x="126.02000000000001" y="205.79500000000002"/>
      <point x="344.075" y="-30.42"/>
    </contour>
    <contour>
      <point x="763.1949999999999" y="121.19000000000001" type="curve" smooth="yes"/>
      <point x="462.49" y="121.19000000000001"/>
      <point x="314.6" y="306.15500000000003"/>
      <point x="314.6" y="628.57" type="curve" smooth="yes"/>
      <point x="314.6" y="647.2149999999999" type="line" smooth="yes"/>
      <point x="314.6" y="970.0600000000001"/>
      <point x="460.92" y="1155.81"/>
      <point x="763.1949999999999" y="1155.81" type="curve" smooth="yes"/>
      <point x="1066.47" y="1155.81"/>
      <point x="1212.79" y="970.845"/>
      <point x="1212.79" y="647.2149999999999" type="curve" smooth="yes"/>
      <point x="1212.79" y="628.57" type="line" smooth="yes"/>
      <point x="1212.79" y="306.15500000000003"/>
      <point x="1066.47" y="121.19000000000001"/>
    </contour>
  </outline>
</glyph>
<glyph name="one" format="2">
  <advance width="857.25"/>
  <unicode hex="0031"/>
  <outline>
    <contour>
      <point x="479.84499999999997" y="0.0" type="line"/>
      <point x="662.5" y="0.0" type="line"/>
      <point x="662.5" y="1278.0" type="line"/>
      <point x="479.965" y="1278.0" type="line"/>
      <point x="79.655" y="1093.25" type="line"/>
      <point x="71.16" y="931.36" type="line"/>
      <point x="465.06" y="1110.12" type="line"/>
      <point x="479.84499999999997" y="1110.12" type="line"/>
    </contour>
  </outline>
</glyph>
<glyph name="two" format="2">
  <advance width="1298.7749999999999"/>
  <unicode hex="0032"/>
  <outline>
    <contour>
      <point x="92.73" y="0.0" type="line"/>
      <point x="1196.3999999999999" y="0.0" type="line"/>
      <point x="1196.3999999999999" y="151.60999999999999" type="line"/>
      <point x="284.365" y="151.60999999999999" type="line"/>
      <point x="359.67" y="118.41499999999999" type="line"/>
      <point x="359.67" y="161.395" type="line"/>
      <point x="720.62" y="372.40000000000003" type="line" smooth="yes"/>
      <point x="996.985" y="533.635"/>
      <point x="1168.6799999999998" y="670.28"/>
      <point x="1168.6799999999998" y="897.5150000000001" type="curve" smooth="yes"/>
      <point x="1168.6799999999998" y="907.655" type="line" smooth="yes"/>
      <point x="1168.6799999999998" y="1162.645"/>
      <point x="983.12" y="1303.4950000000001"/>
      <point x="642.4300000000001" y="1303.4950000000001" type="curve" smooth="yes"/>
      <point x="411.91499999999996" y="1303.4950000000001"/>
      <point x="232.49499999999998" y="1232.905"/>
      <point x="119.57" y="1169.11" type="curve"/>
      <point x="98.655" y="1000.8649999999999" type="line"/>
      <point x="230.085" y="1077.735"/>
      <point x="407.65500000000003" y="1149.53"/>
      <point x="615.31" y="1149.53" type="curve" smooth="yes"/>
      <point x="861.78" y="1149.53"/>
      <point x="980.1" y="1052.865"/>
      <point x="980.1" y="891.955" type="curve" smooth="yes"/>
      <point x="980.1" y="886.17" type="line" smooth="yes"/>
      <point x="980.1" y="707.615"/>
      <point x="812.4050000000001" y="600.38"/>
      <point x="580.73" y="461.705" type="curve" smooth="yes"/>
      <point x="92.73" y="171.82500000000002" type="line"/>
    </contour>
  </outline>
</glyph>
<glyph name="three" format="2">
  <advance width="1372.645"/>
  <unicode hex="0033"/>
  <outline>
    <contour>
      <point x="654.235" y="-27.28" type="curve" smooth="yes"/>
      <point x="1061.635" y="-27.28"/>
      <point x="1260.12" y="119.075"/>
      <point x="1260.12" y="353.56" type="curve" smooth="yes"/>
      <point x="1260.12" y="368.065" type="line" smooth="yes"/>
      <point x="1260.12" y="550.505"/>
      <point x="1158.155" y="650.805"/>
      <point x="931.4200000000001" y="673.215" type="curve"/>
      <point x="932.26" y="654.44" type="line"/>
      <point x="932.26" y="677.485" type="line"/>
      <point x="1149.3700000000001" y="695.97"/>
      <point x="1245.2600000000002" y="797.355"/>
      <point x="1245.2600000000002" y="956.72" type="curve" smooth="yes"/>
      <point x="1245.2600000000002" y="969.935" type="line" smooth="yes"/>
      <point x="1245.2600000000002" y="1184.4199999999998"/>
      <point x="1064.2800000000002" y="1304.065"/>
      <point x="683.59" y="1304.065" type="curve" smooth="yes"/>
      <point x="431.29" y="1304.065"/>
      <point x="248.355" y="1244.335"/>
      <point x="137.44" y="1186.8300000000002" type="curve"/>
      <point x="117.525" y="1028.6499999999999" type="line"/>
      <point x="243.665" y="1092.305"/>
      <point x="444.215" y="1153.24"/>
      <point x="661.965" y="1153.24" type="curve" smooth="yes"/>
      <point x="945.005" y="1153.24"/>
      <point x="1056.6799999999998" y="1081.6399999999999"/>
      <point x="1056.6799999999998" y="949.525" type="curve" smooth="yes"/>
      <point x="1056.6799999999998" y="940.235" type="line" smooth="yes"/>
      <point x="1056.6799999999998" y="820.9150000000001"/>
      <point x="969.865" y="740.9499999999999"/>
      <point x="716.5799999999999" y="737.595" type="curve" smooth="yes"/>
      <point x="349.40500000000003" y="732.6700000000001" type="line"/>
      <point x="349.40500000000003" y="589.2" type="line"/>
      <point x="716.1500000000001" y="585.845" type="line" smooth="yes"/>
      <point x="979.155" y="583.275"/>
      <point x="1069.185" y="507.385"/>
      <point x="1069.185" y="373.13" type="curve" smooth="yes"/>
      <point x="1069.185" y="361.055" type="line" smooth="yes"/>
      <point x="1069.185" y="220.14499999999998"/>
      <point x="945.715" y="129.825"/>
      <point x="646.385" y="129.825" type="curve" smooth="yes"/>
      <point x="424.095" y="129.825"/>
      <point x="236.375" y="186.76"/>
      <point x="109.74000000000001" y="247.83499999999998" type="curve"/>
      <point x="129.65500000000003" y="75.66499999999999" type="line"/>
      <point x="224.505" y="34.805"/>
      <point x="414.935" y="-27.28"/>
    </contour>
  </outline>
</glyph>
<glyph name="four" format="2">
  <advance width="1410.09"/>
  <unicode hex="0034"/>
  <outline>
    <contour>
      <point x="963.115" y="0.0" type="line"/>
      <point x="1141.06" y="0.0" type="line"/>
      <point x="1141.06" y="1278.0" type="line"/>
      <point x="833.605" y="1278.0" type="line"/>
      <point x="72.505" y="454.64" type="line"/>
      <point x="72.505" y="268.18" type="line"/>
      <point x="1375.81" y="268.18" type="line"/>
      <point x="1375.81" y="418.78999999999996" type="line"/>
      <point x="202.48000000000002" y="418.78999999999996" type="line"/>
      <point x="273.645" y="340.41" type="line"/>
      <point x="273.645" y="437.36" type="line"/>
      <point x="930.535" y="1148.23" type="line"/>
      <point x="965.6850000000001" y="1148.23" type="line"/>
      <point x="963.115" y="896.735" type="line"/>
    </contour>
  </outline>
</glyph>
<glyph name="five" format="2">
  <advance width="1436.85"/>
  <unicode hex="0035"/>
  <outline>
    <contour>
      <point x="722.805" y="-23.85" type="curve" smooth="yes"/>
      <point x="1143.1100000000001" y="-23.85"/>
      <point x="1327.6149999999998" y="153.495"/>
      <point x="1327.6149999999998" y="409.41999999999996" type="curve" smooth="yes"/>
      <point x="1327.6149999999998" y="424.205" type="line" smooth="yes"/>
      <point x="1327.6149999999998" y="681.13"/>
      <point x="1168.0349999999999" y="830.27"/>
      <point x="848.38" y="830.27" type="curve" smooth="yes"/>
      <point x="597.7800000000001" y="830.27"/>
      <point x="440.2" y="738.1850000000001"/>
      <point x="353.535" y="619.67" type="curve"/>
      <point x="350.05" y="619.24" type="line"/>
      <point x="352.05" y="831.0949999999999" type="line"/>
      <point x="352.05" y="1128.175" type="line"/>
      <point x="1272.8300000000002" y="1128.175" type="line"/>
      <point x="1272.8300000000002" y="1278.0" type="line"/>
      <point x="175.105" y="1278.0" type="line"/>
      <point x="175.105" y="536.44" type="line"/>
      <point x="332.48999999999995" y="503.535" type="line"/>
      <point x="437.01500000000004" y="616.575"/>
      <point x="585.7450000000001" y="682.8"/>
      <point x="788.365" y="682.8" type="curve" smooth="yes"/>
      <point x="1030.78" y="682.8"/>
      <point x="1143.7450000000001" y="585.695"/>
      <point x="1143.7450000000001" y="422.41999999999996" type="curve" smooth="yes"/>
      <point x="1143.7450000000001" y="412.99" type="line" smooth="yes"/>
      <point x="1143.7450000000001" y="244.07"/>
      <point x="1016.77" y="133.255"/>
      <point x="713.385" y="133.255" type="curve" smooth="yes"/>
      <point x="479.73" y="133.255"/>
      <point x="289.245" y="194.685"/>
      <point x="164.675" y="256.62" type="curve"/>
      <point x="185.01999999999998" y="84.66499999999999" type="line"/>
      <point x="285.02" y="36.51499999999999"/>
      <point x="467.935" y="-23.85"/>
    </contour>
  </outline>
</glyph>
<glyph name="six" format="2">
  <advance width="1471.11"/>
  <unicode hex="0036"/>
  <outline>
    <contour>
      <point x="777.4849999999999" y="-27.775000000000002" type="curve" smooth="yes"/>
      <point x="1152.745" y="-27.775000000000002"/>
      <point x="1360.735" y="129.58"/>
      <point x="1360.735" y="403.78499999999997" type="curve" smooth="yes"/>
      <point x="1360.735" y="419.35499999999996" type="line" smooth="yes"/>
      <point x="1360.735" y="673.205"/>
      <point x="1186.165" y="818.915"/>
      <point x="861.23" y="818.915" type="curve" smooth="yes"/>
      <point x="545.845" y="818.915"/>
      <point x="376.03000000000003" y="677.51"/>
      <point x="315.6" y="508.695" type="curve"/>
      <point x="287.76" y="508.695" type="line"/>
      <point x="315.61" y="395.05499999999995" type="line"/>
      <point x="387.685" y="553.1800000000001"/>
      <point x="554.285" y="677.9399999999999"/>
      <point x="804.28" y="677.9399999999999" type="curve" smooth="yes"/>
      <point x="1067.9650000000001" y="677.9399999999999"/>
      <point x="1176.865" y="574.845"/>
      <point x="1176.865" y="416.21500000000003" type="curve" smooth="yes"/>
      <point x="1176.865" y="407.0" type="line" smooth="yes"/>
      <point x="1176.865" y="230.725"/>
      <point x="1040.0399999999997" y="123.83500000000001"/>
      <point x="781.4100000000001" y="123.83500000000001" type="curve" smooth="yes"/>
      <point x="486.29499999999996" y="123.83500000000001"/>
      <point x="303.89" y="288.66"/>
      <point x="303.89" y="602.645" type="curve"/>
      <point x="303.89" y="621.505" type="line" smooth="yes"/>
      <point x="303.89" y="965.1249999999999"/>
      <point x="477.405" y="1151.67"/>
      <point x="809.735" y="1151.67" type="curve" smooth="yes"/>
      <point x="1033.165" y="1151.67"/>
      <point x="1161.015" y="1105.025"/>
      <point x="1286.155" y="1040.38" type="curve"/>
      <point x="1265.455" y="1204.27" type="line"/>
      <point x="1156.68" y="1254.915"/>
      <point x="1011.98" y="1302.4950000000001"/>
      <point x="790.11" y="1302.4950000000001" type="curve" smooth="yes"/>
      <point x="352.14" y="1302.4950000000001"/>
      <point x="119.235" y="1049.14"/>
      <point x="119.235" y="621.505" type="curve" smooth="yes"/>
      <point x="119.235" y="601.86" type="line" smooth="yes"/>
      <point x="119.235" y="202.58"/>
      <point x="372.515" y="-27.775000000000002"/>
    </contour>
  </outline>
</glyph>
<glyph name="seven" format="2">
  <advance width="1273.9050000000002"/>
  <unicode hex="0037"/>
  <outline>
    <contour>
      <point x="310.62999999999994" y="0.0" type="line"/>
      <point x="520.695" y="0.0" type="line"/>
      <point x="1194.97" y="1126.39" type="line"/>
      <point x="1194.97" y="1278.0" type="line"/>
      <point x="80.655" y="1278.0" type="line"/>
      <point x="80.655" y="1128.175" type="line"/>
      <point x="992.26" y="1128.175" type="line"/>
    </contour>
  </outline>
</glyph>
<glyph name="eight" format="2">
  <advance width="1530.925"/>
  <unicode hex="0038"/>
  <outline>
    <contour>
      <point x="764.785" y="-35.205" type="curve" smooth="yes"/>
      <point x="1237.435" y="-35.205"/>
      <point x="1411.54" y="113.91499999999999"/>
      <point x="1411.54" y="330.355" type="curve" smooth="yes"/>
      <point x="1411.54" y="346.785" type="line" smooth="yes"/>
      <point x="1411.54" y="537.02"/>
      <point x="1268.3300000000002" y="643.73"/>
      <point x="1078.14" y="671.2149999999999" type="curve"/>
      <point x="1078.14" y="679.925" type="line"/>
      <point x="1248.47" y="695.195"/>
      <point x="1389.8950000000002" y="788.84"/>
      <point x="1389.8950000000002" y="959.645" type="curve" smooth="yes"/>
      <point x="1389.8950000000002" y="977.29" type="line" smooth="yes"/>
      <point x="1389.8950000000002" y="1188.075"/>
      <point x="1183.465" y="1308.28"/>
      <point x="764.785" y="1308.28" type="curve" smooth="yes"/>
      <point x="347.46" y="1308.28"/>
      <point x="141.03" y="1188.075"/>
      <point x="141.03" y="977.29" type="curve" smooth="yes"/>
      <point x="141.03" y="959.645" type="line" smooth="yes"/>
      <point x="141.03" y="787.84"/>
      <point x="282.24" y="695.195"/>
      <point x="452.78499999999997" y="679.925" type="curve"/>
      <point x="452.78499999999997" y="671.2149999999999" type="line"/>
      <point x="263.38" y="643.73"/>
      <point x="119.38499999999999" y="537.805"/>
      <point x="119.38499999999999" y="346.785" type="curve" smooth="yes"/>
      <point x="119.38499999999999" y="330.355" type="line" smooth="yes"/>
      <point x="119.38499999999999" y="104.495"/>
      <point x="306.83500000000004" y="-35.205"/>
    </contour>
    <contour>
      <point x="768.71" y="109.33999999999999" type="curve" smooth="yes"/>
      <point x="454.94" y="109.33999999999999"/>
      <point x="308.75" y="193.435"/>
      <point x="308.75" y="345.625" type="curve" smooth="yes"/>
      <point x="308.75" y="359.34499999999997" type="line" smooth="yes"/>
      <point x="308.75" y="505.61"/>
      <point x="452.66" y="589.275"/>
      <point x="757.72" y="599.48" type="curve"/>
      <point x="1071.1999999999998" y="588.49"/>
      <point x="1222.175" y="508.75"/>
      <point x="1222.175" y="359.34499999999997" type="curve" smooth="yes"/>
      <point x="1222.175" y="345.625" type="line" smooth="yes"/>
      <point x="1222.175" y="195.79"/>
      <point x="1079.1250000000002" y="109.33999999999999"/>
    </contour>
    <contour>
      <point x="772.635" y="728.465" type="curve"/>
      <point x="464.875" y="736.3149999999999"/>
      <point x="326.255" y="815.045"/>
      <point x="326.255" y="945.1600000000001" type="curve" smooth="yes"/>
      <point x="326.255" y="958.4499999999999" type="line" smooth="yes"/>
      <point x="326.255" y="1095.995"/>
      <point x="469.94" y="1170.015"/>
      <point x="764.785" y="1170.015" type="curve" smooth="yes"/>
      <point x="1061.77" y="1170.015"/>
      <point x="1204.67" y="1095.995"/>
      <point x="1204.67" y="956.88" type="curve" smooth="yes"/>
      <point x="1204.67" y="943.59" type="line" smooth="yes"/>
      <point x="1204.67" y="812.6899999999999"/>
      <point x="1057.985" y="736.3149999999999"/>
    </contour>
  </outline>
</glyph>
<glyph name="nine" format="2">
  <advance width="1467.68"/>
  <unicode hex="0039"/>
  <outline>
    <contour>
      <point x="702.765" y="1302.4950000000001" type="curve" smooth="yes"/>
      <point x="318.645" y="1302.4950000000001"/>
      <point x="110.375" y="1144.355"/>
      <point x="110.375" y="871.795" type="curve" smooth="yes"/>
      <point x="110.375" y="855.44" type="line" smooth="yes"/>
      <point x="110.375" y="601.87"/>
      <point x="288.87" y="455.375"/>
      <point x="611.88" y="455.375" type="curve" smooth="yes"/>
      <point x="919.91" y="455.375"/>
      <point x="1095.1450000000002" y="592.48"/>
      <point x="1155.0800000000002" y="757.2099999999999" type="curve"/>
      <point x="1192.34" y="757.2099999999999" type="line"/>
      <point x="1156.07" y="870.065" type="line"/>
      <point x="1078.9950000000001" y="713.3149999999999"/>
      <point x="913.47" y="596.35"/>
      <point x="673.5400000000001" y="596.35" type="curve" smooth="yes"/>
      <point x="418.845" y="596.35"/>
      <point x="295.03000000000003" y="691.595"/>
      <point x="295.03000000000003" y="861.7199999999999" type="curve" smooth="yes"/>
      <point x="295.03000000000003" y="871.15" type="line" smooth="yes"/>
      <point x="295.03000000000003" y="1044.78"/>
      <point x="430.92" y="1150.885"/>
      <point x="699.625" y="1150.885" type="curve" smooth="yes"/>
      <point x="1006.32" y="1150.885"/>
      <point x="1164.93" y="990.63"/>
      <point x="1164.93" y="643.14" type="curve"/>
      <point x="1164.93" y="626.065" type="line" smooth="yes"/>
      <point x="1164.93" y="296.23"/>
      <point x="994.125" y="123.05000000000001"/>
      <point x="626.5899999999999" y="123.05000000000001" type="curve" smooth="yes"/>
      <point x="430.28999999999996" y="123.05000000000001"/>
      <point x="294.945" y="170.69500000000002"/>
      <point x="178.73" y="230.91000000000003" type="curve"/>
      <point x="199.645" y="63.095" type="line"/>
      <point x="297.92499999999995" y="18.235"/>
      <point x="434.485" y="-26.990000000000002"/>
      <point x="643.86" y="-26.990000000000002" type="curve" smooth="yes"/>
      <point x="1110.97" y="-26.990000000000002"/>
      <point x="1350.37" y="208.29"/>
      <point x="1350.37" y="620.57" type="curve" smooth="yes"/>
      <point x="1350.37" y="640.0" type="line" smooth="yes"/>
      <point x="1350.37" y="1072.2150000000001"/>
      <point x="1128.7350000000001" y="1302.4950000000001"/>
    </contour>
  </outline>
</glyph>
<glyph name="less" format="2">
  <advance width="1370.6"/>
  <unicode hex="003C"/>
  <outline>
    <contour>
      <point x="280.425" y="616.795" type="line"/>
      <point x="1193.635" y="855.9399999999999" type="line"/>
      <point x="1193.635" y="1014.475" type="line"/>
      <point x="146.375" y="726.5749999999999" type="line"/>
      <point x="146.375" y="483.36999999999995" type="line"/>
      <point x="1193.635" y="193.9" type="line"/>
      <point x="1193.635" y="353.22" type="line"/>
      <point x="280.425" y="594.72" type="line"/>
    </contour>
  </outline>
</glyph>
<glyph name="equal" format="2">
  <advance width="1362.31"/>
  <unicode hex="003D"/>
  <outline>
    <contour>
      <point x="161.45" y="296.545" type="line"/>
      <point x="1200.86" y="296.545" type="line"/>
      <point x="1200.86" y="438.875" type="line"/>
      <point x="161.45" y="438.875" type="line"/>
    </contour>
    <contour>
      <point x="161.45" y="777.705" type="line"/>
      <point x="1200.86" y="777.705" type="line"/>
      <point x="1200.86" y="920.035" type="line"/>
      <point x="161.45" y="920.035" type="line"/>
    </contour>
  </outline>
</glyph>
<glyph name="greater" format="2">
  <advance width="1370.6"/>
  <unicode hex="003E"/>
  <outline>
    <contour>
      <point x="1090.1750000000002" y="616.795" type="line"/>
      <point x="1090.1750000000002" y="594.72" type="line"/>
      <point x="176.965" y="353.22" type="line"/>
      <point x="176.965" y="193.9" type="line"/>
      <point x="1224.2250000000001" y="483.36999999999995" type="line"/>
      <point x="1224.2250000000001" y="726.5749999999999" type="line"/>
      <point x="176.965" y="1014.475" type="line"/>
      <point x="176.965" y="855.9399999999999" type="line"/>
    </contour>
  </outline>
</glyph>
<glyph name="question" format="2">
  <advance width="1268.6650000000002"/>
  <unicode hex="003F"/>
  <outline>
    <contour>
      <point x="386.12500000000006" y="327.455" type="line"/>
      <point x="549.0799999999999" y="327.455" type="line"/>
      <point x="549.0799999999999" y="572.97" type="line"/>
      <point x="501.81" y="518.645" type="line"/>
      <point x="634.4200000000001" y="521.645" type="line"/>
      <point x="982.225" y="528.4300000000001"/>
      <point x="1160.57" y="654.9449999999999"/>
      <point x="1160.57" y="909.9350000000001" type="curve" smooth="yes"/>
      <point x="1160.57" y="925.365" type="line" smooth="yes"/>
      <point x="1160.57" y="1170.635"/>
      <point x="989.8050000000001" y="1302.065"/>
      <point x="622.03" y="1302.065" type="curve" smooth="yes"/>
      <point x="380.65500000000003" y="1302.065"/>
      <point x="194.01000000000002" y="1226.335"/>
      <point x="94.795" y="1166.6799999999998" type="curve"/>
      <point x="73.31" y="1014.78" type="line"/>
      <point x="211.58" y="1088.865"/>
      <point x="398.59" y="1153.0249999999999"/>
      <point x="602.4050000000001" y="1153.0249999999999" type="curve" smooth="yes"/>
      <point x="876.96" y="1153.0249999999999"/>
      <point x="975.99" y="1069.135"/>
      <point x="975.99" y="918.3000000000001" type="curve" smooth="yes"/>
      <point x="975.99" y="907.01" type="line" smooth="yes"/>
      <point x="975.99" y="742.38"/>
      <point x="855.455" y="651.135"/>
      <point x="565.1250000000001" y="645.135" type="curve" smooth="yes"/>
      <point x="386.12500000000006" y="641.35" type="line"/>
    </contour>
    <contour>
      <point x="467.495" y="-22.635" type="curve" smooth="yes"/>
      <point x="548.67" y="-22.635"/>
      <point x="588.5100000000001" y="15.774999999999999"/>
      <point x="588.5100000000001" y="80.605" type="curve" smooth="yes"/>
      <point x="588.5100000000001" y="84.605" type="line" smooth="yes"/>
      <point x="588.5100000000001" y="149.22"/>
      <point x="548.67" y="187.415"/>
      <point x="467.495" y="187.415" type="curve" smooth="yes"/>
      <point x="386.96500000000003" y="187.415"/>
      <point x="347.69500000000005" y="149.22"/>
      <point x="347.69500000000005" y="84.605" type="curve" smooth="yes"/>
      <point x="347.69500000000005" y="80.605" type="line" smooth="yes"/>
      <point x="347.69500000000005" y="15.774999999999999"/>
      <point x="386.96500000000003" y="-22.635"/>
    </contour>
  </outline>
</glyph>
<glyph name="at" format="2">
  <advance width="2069.2700000000004"/>
  <unicode hex="0040"/>
  <outline>
    <contour>
      <point x="934.75" y="73.44" type="curve" smooth="yes"/>
      <point x="1131.275" y="73.44"/>
      <point x="1237.96" y="173.825"/>
      <point x="1282.305" y="301.85499999999996" type="curve"/>
      <point x="1329.555" y="301.85499999999996" type="line"/>
      <point x="1301.5" y="431.065" type="line"/>
      <point x="1264.425" y="304.24"/>
      <point x="1148.03" y="213.41500000000002"/>
      <point x="1009.1949999999999" y="213.41500000000002" type="curve" smooth="yes"/>
      <point x="867.5" y="213.41500000000002"/>
      <point x="784.6850000000001" y="283.08"/>
      <point x="784.6850000000001" y="429.13" type="curve" smooth="yes"/>
      <point x="784.6850000000001" y="432.13000000000005"/>
      <point x="784.6850000000001" y="434.91499999999996"/>
      <point x="784.6850000000001" y="437.91499999999996" type="curve" smooth="yes"/>
      <point x="786.9" y="625.8349999999999"/>
      <point x="879.65" y="756.445"/>
      <point x="1063.9250000000002" y="756.445" type="curve" smooth="yes"/>
      <point x="1207.095" y="756.445"/>
      <point x="1307.5" y="676.22"/>
      <point x="1306.715" y="512.3199999999999" type="curve" smooth="yes"/>
      <point x="1306.715" y="505.31999999999994"/>
      <point x="1306.715" y="497.53499999999997"/>
      <point x="1306.7150000000001" y="489.75" type="curve"/>
      <point x="1363.115" y="655.77" type="line"/>
      <point x="1313.435" y="655.77" type="line"/>
      <point x="1295.68" y="800.4"/>
      <point x="1200.3500000000001" y="890.925"/>
      <point x="1014.255" y="890.925" type="curve" smooth="yes"/>
      <point x="752.3199999999999" y="890.925"/>
      <point x="613.88" y="695.225"/>
      <point x="611.6650000000001" y="418.0" type="curve" smooth="yes"/>
      <point x="611.6650000000001" y="415.0"/>
      <point x="611.6650000000001" y="411.0"/>
      <point x="611.6650000000001" y="408.0" type="curve" smooth="yes"/>
      <point x="611.6650000000001" y="188.795"/>
      <point x="739.955" y="73.44"/>
    </contour>
    <contour>
      <point x="1262.64" y="89.72999999999999" type="line"/>
      <point x="1427.24" y="124.27" type="line"/>
      <point x="1497.3899999999999" y="868.355" type="line"/>
      <point x="1337.145" y="868.355" type="line"/>
      <point x="1336.145" y="857.4300000000001" type="line"/>
      <point x="1316.5" y="628.7" type="line"/>
      <point x="1316.07" y="601.495" type="line"/>
      <point x="1292.2849999999999" y="373.28999999999996" type="line"/>
      <point x="1291.5000000000002" y="341.095" type="line"/>
    </contour>
    <contour>
      <point x="1386.905" y="218.28500000000003" type="curve"/>
      <point x="1262.64" y="89.72999999999999" type="line"/>
      <point x="1305.415" y="83.73"/>
      <point x="1336.405" y="84.515"/>
      <point x="1381.975" y="84.515" type="curve" smooth="yes"/>
      <point x="1746.905" y="84.515"/>
      <point x="1962.3149999999998" y="241.01"/>
      <point x="1962.315" y="623.355" type="curve" smooth="yes"/>
      <point x="1962.315" y="628.495"/>
      <point x="1962.315" y="633.635"/>
      <point x="1962.3149999999998" y="637.99" type="curve" smooth="yes"/>
      <point x="1961.1000000000001" y="1076.27"/>
      <point x="1656.4" y="1324.905"/>
      <point x="1108.99" y="1324.905" type="curve" smooth="yes"/>
      <point x="491.645" y="1324.905"/>
      <point x="125.24499999999999" y="987.1949999999999"/>
      <point x="123.03" y="398.625" type="curve" smooth="yes"/>
      <point x="123.03" y="394.055"/>
      <point x="123.03" y="389.485"/>
      <point x="123.02999999999999" y="384.13" type="curve" smooth="yes"/>
      <point x="123.03" y="-112.345"/>
      <point x="436.01" y="-371.205"/>
      <point x="998.485" y="-371.205" type="curve" smooth="yes"/>
      <point x="1320.635" y="-371.205"/>
      <point x="1551.655" y="-311.97999999999996"/>
      <point x="1732.85" y="-210.595" type="curve"/>
      <point x="1762.83" y="-60.254999999999995" type="line"/>
      <point x="1576.86" y="-179.565"/>
      <point x="1323.075" y="-245.005"/>
      <point x="1022.4649999999999" y="-245.005" type="curve" smooth="yes"/>
      <point x="535.51" y="-245.005"/>
      <point x="274.64000000000004" y="-33.47"/>
      <point x="274.64" y="388.27" type="curve" smooth="yes"/>
      <point x="274.64" y="391.055"/>
      <point x="274.64" y="395.625"/>
      <point x="274.64000000000004" y="399.195" type="curve" smooth="yes"/>
      <point x="276.07" y="910.395"/>
      <point x="571.09" y="1202.415"/>
      <point x="1100.71" y="1202.415" type="curve" smooth="yes"/>
      <point x="1568.46" y="1202.415"/>
      <point x="1809.275" y="1003.6750000000001"/>
      <point x="1810.7050000000002" y="638.2049999999999" type="curve" smooth="yes"/>
      <point x="1810.705" y="633.85"/>
      <point x="1810.7050000000002" y="627.7099999999999"/>
      <point x="1810.705" y="623.3549999999999" type="curve" smooth="yes"/>
      <point x="1810.7050000000002" y="336.37"/>
      <point x="1673.6" y="213.5"/>
      <point x="1461.4" y="213.5" type="curve" smooth="yes"/>
      <point x="1423.045" y="213.5"/>
      <point x="1407.045" y="214.715"/>
    </contour>
  </outline>
</glyph>
<glyph name="A" format="2">
  <advance width="1591.2299999999998"/>
  <unicode hex="0041"/>
  <anchor x="795.6149999999999" y="0.0" name="bottom"/>
  <anchor x="1575.855" y="3.925" name="ogonek"/>
  <anchor x="795.6149999999999" y="1278.0" name="top"/>
  <outline>
    <contour>
      <point x="54.525000000000006" y="0.0" type="line"/>
      <point x="244.89" y="0.0" type="line"/>
      <point x="780.97" y="1161.22" type="line"/>
      <point x="813.4" y="1161.22" type="line"/>
      <point x="1346.34" y="0.0" type="line"/>
      <point x="1536.705" y="0.0" type="line"/>
      <point x="938.095" y="1278.0" type="line"/>
      <point x="656.275" y="1278.0" type="line"/>
    </contour>
    <contour>
      <point x="380.315" y="373.995" type="line"/>
      <point x="1210.915" y="373.995" type="line"/>
      <point x="1210.915" y="522.605" type="line"/>
      <point x="380.315" y="522.605" type="line"/>
    </contour>
  </outline>
</glyph>
<glyph name="B" format="2">
  <advance width="1605.42"/>
  <unicode hex="0042"/>
  <anchor x="804.2800000000001" y="0.0" name="bottom"/>
  <anchor x="804.2800000000001" y="1278.0" name="top"/>
  <outline>
    <contour>
      <point x="325.435" y="0.0" type="line"/>
      <point x="1048.73" y="0.0" type="line" smooth="yes"/>
      <point x="1354.195" y="0.0"/>
      <point x="1490.11" y="134.57"/>
      <point x="1490.11" y="347.40999999999997" type="curve" smooth="yes"/>
      <point x="1490.11" y="364.7" type="line" smooth="yes"/>
      <point x="1490.11" y="557.205"/>
      <point x="1382.1000000000001" y="667.15"/>
      <point x="1177.125" y="686.775" type="curve"/>
      <point x="1173.255" y="690.8299999999999" type="line"/>
      <point x="1356.38" y="701.82"/>
      <point x="1449.6799999999998" y="804.41"/>
      <point x="1449.6799999999998" y="954.0" type="curve" smooth="yes"/>
      <point x="1449.6799999999998" y="970.075" type="line" smooth="yes"/>
      <point x="1449.6799999999998" y="1163.635"/>
      <point x="1322.26" y="1278.0"/>
      <point x="1020.3" y="1278.0" type="curve" smooth="yes"/>
      <point x="325.435" y="1278.0" type="line"/>
      <point x="325.435" y="1130.9599999999998" type="line"/>
      <point x="1011.235" y="1130.9599999999998" type="line" smooth="yes"/>
      <point x="1188.575" y="1130.9599999999998"/>
      <point x="1265.2399999999998" y="1056.9299999999998"/>
      <point x="1265.2399999999998" y="936.675" type="curve" smooth="yes"/>
      <point x="1265.2399999999998" y="923.815" type="line" smooth="yes"/>
      <point x="1265.2399999999998" y="809.13"/>
      <point x="1188.5749999999998" y="731.24"/>
      <point x="1015.535" y="731.24" type="curve" smooth="yes"/>
      <point x="325.435" y="731.24" type="line"/>
      <point x="325.435" y="587.34" type="line"/>
      <point x="1032.665" y="587.34" type="line" smooth="yes"/>
      <point x="1221.94" y="587.34"/>
      <point x="1300.96" y="507.45000000000005"/>
      <point x="1300.96" y="375.26" type="curve" smooth="yes"/>
      <point x="1300.96" y="361.185" type="line" smooth="yes"/>
      <point x="1300.96" y="231.85500000000002"/>
      <point x="1219.51" y="149.395"/>
      <point x="1036.5249999999999" y="149.395" type="curve" smooth="yes"/>
      <point x="325.435" y="149.395" type="line"/>
    </contour>
    <contour>
      <point x="195.965" y="0.0" type="line"/>
      <point x="376.265" y="0.0" type="line"/>
      <point x="376.265" y="1278.0" type="line"/>
      <point x="195.965" y="1278.0" type="line"/>
    </contour>
  </outline>
</glyph>
<glyph name="C" format="2">
  <advance width="1500.955"/>
  <unicode hex="0043"/>
  <anchor x="814.01" y="0.0" name="bottom"/>
  <anchor x="814.01" y="1278.0" name="top"/>
  <outline>
    <contour>
      <point x="848.7" y="-30.42" type="curve" smooth="yes"/>
      <point x="1085.225" y="-30.42"/>
      <point x="1260.235" y="39.675"/>
      <point x="1365.3" y="105.545" type="curve"/>
      <point x="1381.2900000000002" y="272.005" type="line"/>
      <point x="1255.5049999999999" y="191.845"/>
      <point x="1083.7849999999999" y="123.545"/>
      <point x="863.185" y="123.545" type="curve" smooth="yes"/>
      <point x="495.565" y="123.545"/>
      <point x="309.385" y="310.005"/>
      <point x="309.385" y="632.14" type="curve" smooth="yes"/>
      <point x="309.385" y="651.57" type="line" smooth="yes"/>
      <point x="309.385" y="971.565"/>
      <point x="496.35" y="1156.025"/>
      <point x="846.045" y="1156.025" type="curve" smooth="yes"/>
      <point x="1076.635" y="1156.025"/>
      <point x="1244.505" y="1085.51"/>
      <point x="1368.0750000000003" y="1006.995" type="curve"/>
      <point x="1351.085" y="1173.24" type="line"/>
      <point x="1246.8799999999999" y="1238.4650000000001"/>
      <point x="1073.44" y="1308.4199999999998"/>
      <point x="836.0550000000001" y="1308.4199999999998" type="curve" smooth="yes"/>
      <point x="368.515" y="1308.4199999999998"/>
      <point x="118.45" y="1066.57"/>
      <point x="118.45" y="650.7850000000001" type="curve" smooth="yes"/>
      <point x="118.45" y="631.355" type="line" smooth="yes"/>
      <point x="118.45" y="211.645"/>
      <point x="370.085" y="-30.42"/>
    </contour>
  </outline>
</glyph>
<glyph name="D" format="2">
  <advance width="1630.915"/>
  <unicode hex="0044"/>
  <anchor x="797.14" y="0.0" name="bottom"/>
  <anchor x="815.85" y="639.0" name="center"/>
  <anchor x="797.14" y="1278.0" name="top"/>
  <outline>
    <contour>
      <point x="331.72499999999997" y="0.0" type="line"/>
      <point x="819.41" y="0.0" type="line" smooth="yes"/>
      <point x="1270.895" y="0.0"/>
      <point x="1514.035" y="226.0"/>
      <point x="1514.035" y="630.57" type="curve" smooth="yes"/>
      <point x="1514.035" y="650.785" type="line" smooth="yes"/>
      <point x="1514.035" y="1053.785"/>
      <point x="1270.895" y="1278.0"/>
      <point x="819.41" y="1278.0" type="curve" smooth="yes"/>
      <point x="324.65" y="1278.0" type="line"/>
      <point x="324.65" y="1128.605" type="line"/>
      <point x="813.915" y="1128.605" type="line" smooth="yes"/>
      <point x="1146.63" y="1128.605"/>
      <point x="1323.8849999999998" y="956.2850000000001"/>
      <point x="1323.8849999999998" y="650.0" type="curve" smooth="yes"/>
      <point x="1323.8849999999998" y="630.57" type="line" smooth="yes"/>
      <point x="1323.8849999999998" y="324.715"/>
      <point x="1146.63" y="149.395"/>
      <point x="813.915" y="149.395" type="curve" smooth="yes"/>
      <point x="331.72499999999997" y="149.395" type="line"/>
    </contour>
    <contour>
      <point x="195.965" y="0.0" type="line"/>
      <point x="379.62" y="0.0" type="line"/>
      <point x="379.62" y="1278.0" type="line"/>
      <point x="195.965" y="1278.0" type="line"/>
    </contour>
  </outline>
</glyph>
<glyph name="E" format="2">
  <advance width="1470.635"/>
  <unicode hex="0045"/>
  <anchor x="774.505" y="0.0" name="bottom"/>
  <anchor x="1361.4950000000001" y="3.925" name="ogonek"/>
  <anchor x="774.505" y="1278.0" name="top"/>
  <anchor x="20.0" y="1278.0" name="topleft"/>
  <outline>
    <contour>
      <point x="195.965" y="0.0" type="line"/>
      <point x="376.265" y="0.0" type="line"/>
      <point x="376.265" y="1278.0" type="line"/>
      <point x="195.965" y="1278.0" type="line"/>
    </contour>
    <contour>
      <point x="209.32999999999998" y="0.0" type="line"/>
      <point x="1337.83" y="0.0" type="line"/>
      <point x="1337.83" y="149.395" type="line"/>
      <point x="209.32999999999998" y="149.395" type="line"/>
    </contour>
    <contour>
      <point x="290.18499999999995" y="576.3399999999999" type="line"/>
      <point x="1301.26" y="576.3399999999999" type="line"/>
      <point x="1301.26" y="723.38" type="line"/>
      <point x="290.18499999999995" y="723.38" type="line"/>
    </contour>
    <contour>
      <point x="209.32999999999998" y="1128.605" type="line"/>
      <point x="1324.69" y="1128.605" type="line"/>
      <point x="1324.69" y="1278.0" type="line"/>
      <point x="209.32999999999998" y="1278.0" type="line"/>
    </contour>
  </outline>
</glyph>
<glyph name="F" format="2">
  <advance width="1410.0649999999998"/>
  <unicode hex="0046"/>
  <anchor x="705.925" y="0.0" name="bottom"/>
  <anchor x="705.925" y="1278.0" name="top"/>
  <outline>
    <contour>
      <point x="195.965" y="0.0" type="line"/>
      <point x="377.265" y="0.0" type="line"/>
      <point x="377.265" y="1278.0" type="line"/>
      <point x="195.965" y="1278.0" type="line"/>
    </contour>
    <contour>
      <point x="290.18499999999995" y="521.4350000000001" type="line"/>
      <point x="1275.12" y="521.4350000000001" type="line"/>
      <point x="1275.12" y="670.83" type="line"/>
      <point x="290.18499999999995" y="670.83" type="line"/>
    </contour>
    <contour>
      <point x="209.32999999999998" y="1128.605" type="line"/>
      <point x="1294.905" y="1128.605" type="line"/>
      <point x="1294.905" y="1278.0" type="line"/>
      <point x="209.32999999999998" y="1278.0" type="line"/>
    </contour>
  </outline>
</glyph>
<glyph name="G" format="2">
  <advance width="1678.28"/>
  <unicode hex="0047"/>
  <anchor x="839.14" y="0.0" name="bottom"/>
  <anchor x="839.14" y="1278.0" name="top"/>
  <outline>
    <contour>
      <point x="804.89" y="-30.42" type="curve" smooth="yes"/>
      <point x="1130.135" y="-30.42"/>
      <point x="1278.81" y="112.11500000000001"/>
      <point x="1324.67" y="260.835" type="curve"/>
      <point x="1502.465" y="260.83500000000004" type="line"/>
      <point x="1502.465" y="703.39" type="line"/>
      <point x="866.355" y="703.39" type="line"/>
      <point x="866.355" y="556.5649999999999" type="line"/>
      <point x="1352.51" y="558.135" type="line"/>
      <point x="1327.09" y="620.385" type="line"/>
      <point x="1327.09" y="377.27" type="line"/>
      <point x="1271.445" y="239.94000000000003"/>
      <point x="1114.125" y="121.97500000000001"/>
      <point x="858.7" y="121.97500000000001" type="curve" smooth="yes"/>
      <point x="500.21" y="121.97500000000001"/>
      <point x="309.385" y="307.435"/>
      <point x="309.385" y="628.215" type="curve" smooth="yes"/>
      <point x="309.385" y="647.645" type="line" smooth="yes"/>
      <point x="309.385" y="972.49"/>
      <point x="505.275" y="1155.24"/>
      <point x="886.4549999999999" y="1155.24" type="curve" smooth="yes"/>
      <point x="1137.615" y="1155.24"/>
      <point x="1324.195" y="1084.725"/>
      <point x="1465.755" y="1006.2099999999999" type="curve"/>
      <point x="1447.1950000000002" y="1167.745" type="line"/>
      <point x="1325.57" y="1236.895"/>
      <point x="1134.4199999999998" y="1308.4199999999998"/>
      <point x="870.4" y="1308.4199999999998" type="curve" smooth="yes"/>
      <point x="378.01" y="1308.4199999999998"/>
      <point x="118.45" y="1063.355"/>
      <point x="118.45" y="645.29" type="curve" smooth="yes"/>
      <point x="118.45" y="626.645" type="line" smooth="yes"/>
      <point x="118.45" y="207.505"/>
      <point x="373.945" y="-30.42"/>
    </contour>
    <contour>
      <point x="1331.875" y="294.89" type="line"/>
      <point x="1323.9499999999998" y="0.0" type="line"/>
      <point x="1502.465" y="0.0" type="line"/>
      <point x="1502.465" y="294.89" type="line"/>
    </contour>
  </outline>
</glyph>
<glyph name="H" format="2">
  <advance width="1681.5500000000002"/>
  <unicode hex="0048"/>
  <anchor x="840.775" y="0.0" name="bottom"/>
  <anchor x="840.775" y="639.0" name="center"/>
  <anchor x="840.775" y="1278.0" name="top"/>
  <anchor x="20.0" y="1278.0" name="topleft"/>
  <outline>
    <contour>
      <point x="379.62" y="0.0" type="line"/>
      <point x="379.62" y="1278.0" type="line"/>
      <point x="195.965" y="1278.0" type="line"/>
      <point x="195.965" y="0.0" type="line"/>
    </contour>
    <contour>
      <point x="1485.585" y="0.0" type="line"/>
      <point x="1485.585" y="1278.0" type="line"/>
      <point x="1301.93" y="1278.0" type="line"/>
      <point x="1301.93" y="0.0" type="line"/>
    </contour>
    <contour>
      <point x="291.185" y="734.165" type="line"/>
      <point x="291.185" y="584.5550000000001" type="line"/>
      <point x="1383.5900000000001" y="584.5550000000001" type="line"/>
      <point x="1383.5900000000001" y="734.165" type="line"/>
    </contour>
  </outline>
</glyph>
<glyph name="I" format="2">
  <advance width="580.4449999999999"/>
  <unicode hex="0049"/>
  <anchor x="290.615" y="0.0" name="bottom"/>
  <anchor x="422.2" y="3.925" name="ogonek"/>
  <anchor x="290.615" y="1278.0" name="top"/>
  <anchor x="20.0" y="1278.0" name="topleft"/>
  <outline>
    <contour>
      <point x="382.05" y="0.0" type="line"/>
      <point x="382.05" y="1278.0" type="line"/>
      <point x="198.395" y="1278.0" type="line"/>
      <point x="198.395" y="0.0" type="line"/>
    </contour>
  </outline>
</glyph>
<glyph name="J" format="2">
  <advance width="1149.825"/>
  <unicode hex="004A"/>
  <anchor x="576.8050000000001" y="0.0" name="bottom"/>
  <anchor x="871.07" y="1278.0" name="top"/>
  <outline>
    <contour>
      <point x="451.89" y="-14.495000000000001" type="curve" smooth="yes"/>
      <point x="822.375" y="-14.495000000000001"/>
      <point x="965.075" y="153.785"/>
      <point x="965.075" y="487.98" type="curve" smooth="yes"/>
      <point x="965.075" y="1278.0" type="line"/>
      <point x="781.42" y="1278.0" type="line"/>
      <point x="781.42" y="495.83" type="line" smooth="yes"/>
      <point x="781.42" y="256.92"/>
      <point x="685.83" y="142.61"/>
      <point x="432.695" y="142.61" type="curve" smooth="yes"/>
      <point x="309.115" y="142.61"/>
      <point x="188.10500000000002" y="168.61"/>
      <point x="82.45" y="213.26500000000001" type="curve"/>
      <point x="102.365" y="50.160000000000004" type="line"/>
      <point x="200.87" y="9.01"/>
      <point x="327.02" y="-14.495000000000001"/>
    </contour>
  </outline>
</glyph>
<glyph name="K" format="2">
  <advance width="1531.905"/>
  <unicode hex="004B"/>
  <anchor x="766.345" y="0.0" name="bottom"/>
  <anchor x="766.345" y="1278.0" name="top"/>
  <outline>
    <contour>
      <point x="1230.605" y="0.0" type="line"/>
      <point x="1476.725" y="0.0" type="line"/>
      <point x="716.3000000000001" y="683.625" type="line"/>
      <point x="716.3000000000001" y="633.72" type="line"/>
      <point x="1460.7250000000001" y="1278.0" type="line"/>
      <point x="1223.53" y="1278.0" type="line"/>
      <point x="580.26" y="728.445" type="line"/>
      <point x="360.985" y="728.445" type="line"/>
      <point x="360.985" y="575.91" type="line"/>
      <point x="577.4749999999999" y="575.91" type="line"/>
    </contour>
    <contour>
      <point x="195.965" y="0.0" type="line"/>
      <point x="378.83500000000004" y="0.0" type="line"/>
      <point x="378.83500000000004" y="1278.0" type="line"/>
      <point x="195.965" y="1278.0" type="line"/>
    </contour>
  </outline>
</glyph>
<glyph name="L" format="2">
  <advance width="1361.5049999999999"/>
  <unicode hex="004C"/>
  <anchor x="732.225" y="0.0" name="bottom"/>
  <anchor x="680.8600000000001" y="639.0" name="center"/>
  <anchor x="288.18500000000006" y="1278.0" name="top"/>
  <anchor x="918.62" y="1278.0" name="topright"/>
  <outline>
    <contour>
      <point x="379.62" y="0.0" type="line"/>
      <point x="379.62" y="1278.0" type="line"/>
      <point x="195.965" y="1278.0" type="line"/>
      <point x="195.965" y="0.0" type="line"/>
    </contour>
    <contour>
      <point x="290.185" y="150.965" type="line"/>
      <point x="290.185" y="0.0" type="line"/>
      <point x="1275.635" y="0.0" type="line"/>
      <point x="1275.635" y="150.965" type="line"/>
    </contour>
  </outline>
</glyph>
<glyph name="M" format="2">
  <advance width="1970.4"/>
  <unicode hex="004D"/>
  <anchor x="985.7" y="0.0" name="bottom"/>
  <anchor x="985.7" y="1278.0" name="top"/>
  <outline>
    <contour>
      <point x="157.74" y="0.0" type="line"/>
      <point x="339.825" y="0.0" type="line"/>
      <point x="376.91" y="573.49" type="line"/>
      <point x="408.64000000000004" y="1094.85" type="line"/>
      <point x="435.5" y="1094.85" type="line"/>
      <point x="886.9" y="157.64499999999998" type="line"/>
      <point x="1084.285" y="157.64499999999998" type="line"/>
      <point x="1534.115" y="1094.85" type="line"/>
      <point x="1560.19" y="1094.85" type="line"/>
      <point x="1592.705" y="572.49" type="line"/>
      <point x="1630.575" y="0.0" type="line"/>
      <point x="1812.66" y="0.0" type="line"/>
      <point x="1720.3600000000001" y="1278.0" type="line"/>
      <point x="1446.53" y="1278.0" type="line"/>
      <point x="993.56" y="331.37500000000006" type="line"/>
      <point x="976.055" y="331.37500000000006" type="line"/>
      <point x="524.6550000000001" y="1278.0" type="line"/>
      <point x="250.04" y="1278.0" type="line"/>
    </contour>
  </outline>
</glyph>
<glyph name="N" format="2">
  <advance width="1681.5500000000002"/>
  <unicode hex="004E"/>
  <anchor x="840.775" y="0.0" name="bottom"/>
  <anchor x="840.775" y="1278.0" name="top"/>
  <outline>
    <contour>
      <point x="467.86" y="1278.0" type="line"/>
      <point x="195.965" y="1278.0" type="line"/>
      <point x="195.965" y="0.0" type="line"/>
      <point x="379.62" y="0.0" type="line"/>
      <point x="379.62" y="546.985" type="line"/>
      <point x="373.125" y="1114.1200000000001" type="line"/>
      <point x="391.125" y="1114.1200000000001" type="line"/>
      <point x="1223.895" y="0.0" type="line"/>
      <point x="1485.585" y="0.0" type="line"/>
      <point x="1485.585" y="1278.0" type="line"/>
      <point x="1302.7150000000001" y="1278.0" type="line"/>
      <point x="1302.7150000000001" y="695.115" type="line"/>
      <point x="1309.21" y="178.01" type="line"/>
      <point x="1291.2099999999998" y="178.01" type="line"/>
    </contour>
  </outline>
</glyph>
<glyph name="O" format="2">
  <advance width="1685.185"/>
  <unicode hex="004F"/>
  <anchor x="842.6999999999999" y="0.0" name="bottom"/>
  <anchor x="842.6999999999999" y="639.0" name="center"/>
  <anchor x="1171.9" y="3.925" name="ogonek"/>
  <anchor x="842.6999999999999" y="1278.0" name="top"/>
  <anchor x="20.0" y="1278.0" name="topleft"/>
  <anchor x="1383.4499999999998" y="1278.0" name="topright"/>
  <outline>
    <contour>
      <point x="842.4849999999999" y="-30.42" type="curve" smooth="yes"/>
      <point x="1309.39" y="-30.42"/>
      <point x="1566.735" y="209.07500000000002"/>
      <point x="1566.735" y="630.57" type="curve" smooth="yes"/>
      <point x="1566.735" y="648.4300000000001" type="line" smooth="yes"/>
      <point x="1566.9499999999998" y="1069.925"/>
      <point x="1309.39" y="1308.42"/>
      <point x="842.4849999999999" y="1308.42" type="curve" smooth="yes"/>
      <point x="375.795" y="1308.42"/>
      <point x="118.45" y="1069.925"/>
      <point x="118.45" y="648.4300000000001" type="curve" smooth="yes"/>
      <point x="118.45" y="630.57" type="line" smooth="yes"/>
      <point x="118.45" y="209.07500000000002"/>
      <point x="375.795" y="-30.42"/>
    </contour>
    <contour>
      <point x="842.4849999999999" y="121.19000000000001" type="curve" smooth="yes"/>
      <point x="491.425" y="121.19000000000001"/>
      <point x="309.385" y="309.79"/>
      <point x="309.385" y="629.7850000000001" type="curve" smooth="yes"/>
      <point x="309.385" y="649.215" type="line" smooth="yes"/>
      <point x="309.385" y="968.6399999999999"/>
      <point x="491.425" y="1156.81"/>
      <point x="842.4849999999999" y="1156.81" type="curve" smooth="yes"/>
      <point x="1192.975" y="1156.81"/>
      <point x="1375.8" y="968.6399999999999"/>
      <point x="1375.8" y="649.215" type="curve" smooth="yes"/>
      <point x="1375.8" y="629.7850000000001" type="line" smooth="yes"/>
      <point x="1375.8" y="309.79"/>
      <point x="1192.975" y="121.19000000000001"/>
    </contour>
  </outline>
</glyph>
<glyph name="P" format="2">
  <advance width="1522.775"/>
  <unicode hex="0050"/>
  <anchor x="761.495" y="0.0" name="bottom"/>
  <anchor x="761.495" y="1278.0" name="top"/>
  <outline>
    <contour>
      <point x="329.58500000000004" y="429.83500000000004" type="line"/>
      <point x="920.46" y="429.83500000000004" type="line" smooth="yes"/>
      <point x="1265.7" y="429.83500000000004"/>
      <point x="1423.8950000000002" y="590.5450000000001"/>
      <point x="1423.8950000000002" y="844.095" type="curve" smooth="yes"/>
      <point x="1423.8950000000002" y="863.17" type="line" smooth="yes"/>
      <point x="1423.8950000000002" y="1119.0749999999998"/>
      <point x="1265.7" y="1278.0"/>
      <point x="920.4599999999999" y="1278.0" type="curve" smooth="yes"/>
      <point x="322.51" y="1278.0" type="line"/>
      <point x="322.51" y="1129.3899999999999" type="line"/>
      <point x="920.0300000000001" y="1129.3899999999999" type="line" smooth="yes"/>
      <point x="1140.08" y="1129.3899999999999"/>
      <point x="1234.745" y="1028.855"/>
      <point x="1234.745" y="862.74" type="curve" smooth="yes"/>
      <point x="1234.745" y="845.095" type="line" smooth="yes"/>
      <point x="1234.745" y="678.98"/>
      <point x="1140.08" y="579.23"/>
      <point x="920.03" y="579.23" type="curve" smooth="yes"/>
      <point x="329.58500000000004" y="579.23" type="line"/>
    </contour>
    <contour>
      <point x="195.965" y="0.0" type="line"/>
      <point x="377.265" y="0.0" type="line"/>
      <point x="377.265" y="455.105" type="line"/>
      <point x="377.265" y="531.55" type="line"/>
      <point x="377.265" y="1278.0" type="line"/>
      <point x="195.965" y="1278.0" type="line"/>
    </contour>
  </outline>
</glyph>
<glyph name="Q" format="2">
  <advance width="1686.3999999999999"/>
  <unicode hex="0051"/>
  <anchor x="843.6999999999999" y="0.0" name="bottom"/>
  <anchor x="843.6999999999999" y="1278.0" name="top"/>
  <outline>
    <contour>
      <point x="1678.4550000000002" y="-48.839999999999996" type="line"/>
      <point x="1678.4550000000002" y="111.835" type="line"/>
      <point x="1114.455" y="105.19999999999999" type="line"/>
      <point x="1115.96" y="113.11500000000001" type="line"/>
      <point x="1360.4499999999998" y="147.385"/>
      <point x="1566.735" y="309.06"/>
      <point x="1566.735" y="639.99" type="curve" smooth="yes"/>
      <point x="1566.735" y="656.28" type="line" smooth="yes"/>
      <point x="1566.735" y="1066.0"/>
      <point x="1310.96" y="1308.42"/>
      <point x="842.4849999999999" y="1308.42" type="curve" smooth="yes"/>
      <point x="375.795" y="1308.42"/>
      <point x="118.45" y="1069.925"/>
      <point x="118.45" y="649.215" type="curve" smooth="yes"/>
      <point x="118.45" y="632.7850000000001" type="line" smooth="yes"/>
      <point x="118.45" y="214.50500000000002"/>
      <point x="377.375" y="-18.065"/>
      <point x="905.895" y="-30.560000000000002" type="curve" smooth="yes"/>
    </contour>
    <contour>
      <point x="880.775" y="121.97500000000001" type="line" smooth="yes"/>
      <point x="524.78" y="128.255"/>
      <point x="309.385" y="310.295"/>
      <point x="309.385" y="631.3550000000001" type="curve" smooth="yes"/>
      <point x="309.385" y="649.215" type="line" smooth="yes"/>
      <point x="309.385" y="968.64"/>
      <point x="492.21" y="1156.81"/>
      <point x="841.6999999999999" y="1156.81" type="curve" smooth="yes"/>
      <point x="1192.19" y="1156.81"/>
      <point x="1375.8" y="968.64"/>
      <point x="1375.8" y="649.215" type="curve" smooth="yes"/>
      <point x="1375.8" y="632.14" type="line" smooth="yes"/>
      <point x="1375.8" y="304.985"/>
      <point x="1151.74" y="157.47"/>
      <point x="916.83" y="121.19000000000001" type="curve"/>
    </contour>
  </outline>
</glyph>
<glyph name="R" format="2">
  <advance width="1574.4950000000001"/>
  <unicode hex="0052"/>
  <anchor x="798.1400000000001" y="0.0" name="bottom"/>
  <anchor x="788.14" y="1278.0" name="top"/>
  <outline>
    <contour>
      <point x="1267.1" y="0.0" type="line"/>
      <point x="1461.96" y="0.0" type="line"/>
      <point x="1407.745" y="252.15" type="line" smooth="yes"/>
      <point x="1362.0349999999999" y="465.775"/>
      <point x="1296.315" y="593.15"/>
      <point x="1037.315" y="603.3549999999999" type="curve"/>
      <point x="1133.5449999999998" y="576.59" type="line"/>
      <point x="1133.545" y="596.065" type="line"/>
      <point x="1343.595" y="617.26"/>
      <point x="1438.045" y="728.645"/>
      <point x="1438.045" y="907.655" type="curve" smooth="yes"/>
      <point x="1438.045" y="922.515" type="line" smooth="yes"/>
      <point x="1438.045" y="1143.355"/>
      <point x="1294.99" y="1278.0"/>
      <point x="978.245" y="1278.0" type="curve" smooth="yes"/>
      <point x="317.8" y="1278.0" type="line"/>
      <point x="317.8" y="1130.96" type="line"/>
      <point x="957.405" y="1130.96" type="line" smooth="yes"/>
      <point x="1163.4450000000002" y="1130.96"/>
      <point x="1252.035" y="1040.79"/>
      <point x="1252.035" y="894.61" type="curve" smooth="yes"/>
      <point x="1252.035" y="882.9649999999999" type="line" smooth="yes"/>
      <point x="1252.035" y="736.86"/>
      <point x="1159.875" y="637.475"/>
      <point x="955.415" y="637.475" type="curve" smooth="yes"/>
      <point x="317.8" y="636.69" type="line"/>
      <point x="317.8" y="494.35999999999996" type="line"/>
      <point x="907.405" y="493.575" type="line" smooth="yes"/>
      <point x="1132.94" y="493.575"/>
      <point x="1186.7350000000001" y="391.255"/>
      <point x="1222.3799999999999" y="217.24500000000003" type="curve" smooth="yes"/>
    </contour>
    <contour>
      <point x="195.965" y="0.0" type="line"/>
      <point x="376.48" y="0.0" type="line"/>
      <point x="376.48" y="513.995" type="line"/>
      <point x="376.47999999999996" y="582.235" type="line"/>
      <point x="376.47999999999996" y="1278.0" type="line"/>
      <point x="195.965" y="1278.0" type="line"/>
    </contour>
  </outline>
</glyph>
<glyph name="S" format="2">
  <advance width="1458.28"/>
  <unicode hex="0053"/>
  <anchor x="725.3549999999999" y="0.0" name="bottom"/>
  <anchor x="725.3549999999999" y="1278.0" name="top"/>
  <outline>
    <contour>
      <point x="730.15" y="-27.28" type="curve" smooth="yes"/>
      <point x="1136.2599999999998" y="-27.28"/>
      <point x="1340.1100000000001" y="95.645"/>
      <point x="1340.1100000000001" y="354.625" type="curve" smooth="yes"/>
      <point x="1340.1100000000001" y="358.55" type="line" smooth="yes"/>
      <point x="1340.1100000000001" y="622.53"/>
      <point x="1178.355" y="698.4649999999999"/>
      <point x="751.26" y="732.885" type="curve" smooth="yes"/>
      <point x="382.125" y="762.38"/>
      <point x="307.32" y="821.8299999999999"/>
      <point x="307.32" y="950.805" type="curve" smooth="yes"/>
      <point x="307.32" y="951.59" type="line" smooth="yes"/>
      <point x="307.32" y="1077.21"/>
      <point x="408.93" y="1153.24"/>
      <point x="696.12" y="1153.24" type="curve" smooth="yes"/>
      <point x="939.0" y="1153.24"/>
      <point x="1135.2050000000002" y="1094.445"/>
      <point x="1276.26" y="1022.0149999999999" type="curve"/>
      <point x="1255.56" y="1184.905" type="line"/>
      <point x="1140.2900000000002" y="1242.195"/>
      <point x="951.785" y="1304.0649999999998"/>
      <point x="681.635" y="1304.0649999999998" type="curve" smooth="yes"/>
      <point x="296.365" y="1304.0649999999998"/>
      <point x="117.17" y="1179.7099999999998"/>
      <point x="117.17" y="951.59" type="curve" smooth="yes"/>
      <point x="117.17" y="948.45" type="line" smooth="yes"/>
      <point x="117.17" y="715.2650000000001"/>
      <point x="259.925" y="616.8349999999999"/>
      <point x="697.59" y="585.1999999999999" type="curve" smooth="yes"/>
      <point x="1047.1550000000002" y="560.275"/>
      <point x="1149.175" y="511.9"/>
      <point x="1149.175" y="355.195" type="curve" smooth="yes"/>
      <point x="1149.175" y="353.625" type="line" smooth="yes"/>
      <point x="1149.175" y="202.285"/>
      <point x="1015.06" y="129.825"/>
      <point x="730.58" y="129.825" type="curve" smooth="yes"/>
      <point x="476.205" y="129.825"/>
      <point x="257.365" y="208.54500000000002"/>
      <point x="112.73" y="287.90999999999997" type="curve"/>
      <point x="132.64499999999998" y="109.03" type="line"/>
      <point x="250.56" y="50.665"/>
      <point x="456.13" y="-27.28"/>
    </contour>
  </outline>
</glyph>
<glyph name="T" format="2">
  <advance width="1482.765"/>
  <unicode hex="0054"/>
  <anchor x="741.775" y="0.0" name="bottom"/>
  <anchor x="741.775" y="639.0" name="center"/>
  <anchor x="741.775" y="1278.0" name="top"/>
  <outline>
    <contour>
      <point x="649.5550000000001" y="0.0" type="line"/>
      <point x="833.2099999999999" y="0.0" type="line"/>
      <point x="833.2099999999999" y="1222.265" type="line"/>
      <point x="649.5550000000001" y="1222.265" type="line"/>
    </contour>
    <contour>
      <point x="88.30000000000001" y="1128.605" type="line"/>
      <point x="1394.4650000000001" y="1128.605" type="line"/>
      <point x="1394.4650000000001" y="1278.0" type="line"/>
      <point x="88.30000000000001" y="1278.0" type="line"/>
    </contour>
  </outline>
</glyph>
<glyph name="U" format="2">
  <advance width="1654.335"/>
  <unicode hex="0055"/>
  <anchor x="827.5600000000001" y="0.0" name="bottom"/>
  <anchor x="1143.705" y="3.925" name="ogonek"/>
  <anchor x="827.5600000000001" y="1278.0" name="top"/>
  <anchor x="1616.1100000000001" y="1278.0" name="topright"/>
  <outline>
    <contour>
      <point x="827.5600000000001" y="-30.42" type="curve" smooth="yes"/>
      <point x="1269.1650000000002" y="-30.42"/>
      <point x="1471.585" y="184.365"/>
      <point x="1471.585" y="589.99" type="curve" smooth="yes"/>
      <point x="1471.585" y="1278.0" type="line"/>
      <point x="1287.93" y="1278.0" type="line"/>
      <point x="1287.93" y="591.99" type="line" smooth="yes"/>
      <point x="1287.93" y="288.65000000000003"/>
      <point x="1148.2549999999999" y="123.54499999999999"/>
      <point x="827.5600000000001" y="123.54499999999999" type="curve" smooth="yes"/>
      <point x="506.865" y="123.54499999999999"/>
      <point x="366.405" y="288.65000000000003"/>
      <point x="366.405" y="591.99" type="curve" smooth="yes"/>
      <point x="366.405" y="1278.0" type="line"/>
      <point x="182.75" y="1278.0" type="line"/>
      <point x="182.75" y="589.99" type="line" smooth="yes"/>
      <point x="182.75" y="184.365"/>
      <point x="386.52500000000003" y="-30.42"/>
    </contour>
  </outline>
</glyph>
<glyph name="V" format="2">
  <advance width="1554.465"/>
  <unicode hex="0056"/>
  <anchor x="777.625" y="0.0" name="bottom"/>
  <anchor x="777.625" y="1278.0" name="top"/>
  <outline>
    <contour>
      <point x="636.7149999999999" y="0.0" type="line"/>
      <point x="919.3199999999999" y="0.0" type="line"/>
      <point x="1499.9399999999998" y="1278.0" type="line"/>
      <point x="1301.725" y="1278.0" type="line"/>
      <point x="791.0550000000001" y="141.115" type="line"/>
      <point x="763.41" y="141.115" type="line"/>
      <point x="252.74" y="1278.0" type="line"/>
      <point x="54.525000000000006" y="1278.0" type="line"/>
    </contour>
  </outline>
</glyph>
<glyph name="W" format="2">
  <advance width="2197.355"/>
  <unicode hex="0057"/>
  <anchor x="1098.785" y="0.0" name="bottom"/>
  <anchor x="1098.785" y="1278.0" name="top"/>
  <outline>
    <contour>
      <point x="480.295" y="0.0" type="line"/>
      <point x="758.545" y="0.0" type="line"/>
      <point x="998.745" y="790.115" type="line"/>
      <point x="1089.355" y="1090.605" type="line"/>
      <point x="1108.0" y="1090.605" type="line"/>
      <point x="1198.6100000000001" y="790.115" type="line"/>
      <point x="1438.81" y="0.0" type="line"/>
      <point x="1717.06" y="0.0" type="line"/>
      <point x="2120.83" y="1278.0" type="line"/>
      <point x="1924.97" y="1278.0" type="line"/>
      <point x="1607.365" y="233.01" type="line"/>
      <point x="1584.44" y="154.105" type="line"/>
      <point x="1563.58" y="154.105" type="line"/>
      <point x="1539.8700000000001" y="232.79500000000002" type="line"/>
      <point x="1230.555" y="1240.57" type="line"/>
      <point x="966.37" y="1240.57" type="line"/>
      <point x="657.27" y="233.36499999999998" type="line"/>
      <point x="633.7750000000001" y="154.105" type="line"/>
      <point x="613.13" y="154.105" type="line"/>
      <point x="589.42" y="233.36499999999998" type="line"/>
      <point x="273.385" y="1278.0" type="line"/>
      <point x="76.525" y="1278.0" type="line"/>
    </contour>
  </outline>
</glyph>
<glyph name="X" format="2">
  <advance width="1566.8300000000002"/>
  <unicode hex="0058"/>
  <anchor x="783.9150000000001" y="0.0" name="bottom"/>
  <anchor x="783.9150000000001" y="1278.0" name="top"/>
  <outline>
    <contour>
      <point x="63.03" y="0.0" type="line"/>
      <point x="281.80499999999995" y="0.0" type="line"/>
      <point x="775.345" y="551.425" type="line"/>
      <point x="791.7" y="551.425" type="line"/>
      <point x="1285.025" y="0.0" type="line"/>
      <point x="1503.8" y="0.0" type="line"/>
      <point x="911.18" y="673.27" type="line"/>
      <point x="911.9649999999999" y="642.72" type="line"/>
      <point x="1492.875" y="1278.0" type="line"/>
      <point x="1276.455" y="1278.0" type="line"/>
      <point x="791.7" y="753.36" type="line"/>
      <point x="775.345" y="753.36" type="line"/>
      <point x="290.375" y="1278.0" type="line"/>
      <point x="73.955" y="1278.0" type="line"/>
      <point x="654.865" y="642.72" type="line"/>
      <point x="655.65" y="673.27" type="line"/>
    </contour>
  </outline>
</glyph>
<glyph name="Y" format="2">
  <advance width="1512.1850000000002"/>
  <unicode hex="0059"/>
  <anchor x="756.485" y="0.0" name="bottom"/>
  <anchor x="756.485" y="1278.0" name="top"/>
  <anchor x="20.0" y="1278.0" name="topleft"/>
  <outline>
    <contour>
      <point x="676.685" y="372.815" type="line"/>
      <point x="836.2850000000001" y="372.815" type="line"/>
      <point x="1464.8" y="1278.0" type="line"/>
      <point x="1256.875" y="1278.0" type="line"/>
      <point x="898.14" y="756.835" type="line"/>
      <point x="763.2700000000001" y="561.33" type="line"/>
      <point x="748.915" y="561.33" type="line"/>
      <point x="613.475" y="758.405" type="line"/>
      <point x="255.30999999999997" y="1278.0" type="line"/>
      <point x="47.385000000000005" y="1278.0" type="line"/>
    </contour>
    <contour>
      <point x="665.265" y="0.0" type="line"/>
      <point x="847.7049999999999" y="0.0" type="line"/>
      <point x="847.7049999999999" y="528.275" type="line"/>
      <point x="665.265" y="528.275" type="line"/>
    </contour>
  </outline>
</glyph>
<glyph name="Z" format="2">
  <advance width="1441.0"/>
  <unicode hex="005A"/>
  <anchor x="721.0" y="0.0" name="bottom"/>
  <anchor x="721.0" y="639.0" name="center"/>
  <anchor x="721.0" y="1278.0" name="top"/>
  <outline>
    <contour>
      <point x="1329.26" y="150.18" type="line"/>
      <point x="353.49499999999995" y="150.18" type="line"/>
      <point x="1319.905" y="1135.745" type="line"/>
      <point x="1319.905" y="1278.0" type="line"/>
      <point x="118.45" y="1278.0" type="line"/>
      <point x="118.45" y="1128.605" type="line"/>
      <point x="1075.58" y="1128.605" type="line"/>
      <point x="111.74" y="141.47" type="line"/>
      <point x="111.74" y="0.0" type="line"/>
      <point x="1329.26" y="0.0" type="line"/>
    </contour>
  </outline>
</glyph>
<glyph name="bracketleft" format="2">
  <advance width="781.72"/>
  <unicode hex="005B"/>
  <outline>
    <contour>
      <point x="195.965" y="-244.345" type="line"/>
      <point x="700.7099999999999" y="-244.345" type="line"/>
      <point x="700.7099999999999" y="-105.155" type="line"/>
      <point x="365.84499999999997" y="-105.155" type="line"/>
      <point x="365.84499999999997" y="1209.3799999999999" type="line"/>
      <point x="700.7099999999999" y="1209.3799999999999" type="line"/>
      <point x="700.7099999999999" y="1347.785" type="line"/>
      <point x="195.965" y="1347.785" type="line"/>
    </contour>
  </outline>
</glyph>
<glyph name="backslash" format="2">
  <advance width="1141.92"/>
  <unicode hex="005C"/>
  <outline>
    <contour>
      <point x="1110.945" y="-238.26999999999998" type="line"/>
      <point x="211.565" y="1329.56" type="line"/>
      <point x="30.975" y="1329.56" type="line"/>
      <point x="929.57" y="-238.26999999999998" type="line"/>
    </contour>
  </outline>
</glyph>
<glyph name="bracketright" format="2">
  <advance width="781.72"/>
  <unicode hex="005D"/>
  <outline>
    <contour>
      <point x="585.755" y="-244.345" type="line"/>
      <point x="585.755" y="1347.785" type="line"/>
      <point x="81.01" y="1347.785" type="line"/>
      <point x="81.01" y="1209.3799999999999" type="line"/>
      <point x="415.875" y="1209.3799999999999" type="line"/>
      <point x="415.875" y="-105.155" type="line"/>
      <point x="81.01" y="-105.155" type="line"/>
      <point x="81.01" y="-244.345" type="line"/>
    </contour>
  </outline>
</glyph>
<glyph name="asciicircum" format="2">
  <advance width="1119.96"/>
  <unicode hex="005E"/>
  <outline>
    <contour>
      <point x="440.77" y="1278.0" type="line"/>
      <point x="66.52499999999999" y="601.86" type="line"/>
      <point x="233.415" y="601.86" type="line"/>
      <point x="550.12" y="1172.9950000000001" type="line"/>
      <point x="570.625" y="1172.9950000000001" type="line"/>
      <point x="887.3299999999999" y="601.86" type="line"/>
      <point x="1053.4350000000002" y="601.86" type="line"/>
      <point x="679.975" y="1278.0" type="line"/>
    </contour>
  </outline>
</glyph>
<glyph name="underscore" format="2">
  <advance width="1217.405"/>
  <unicode hex="005F"/>
  <outline>
    <contour>
      <point x="71.16000000000001" y="-229.865" type="line"/>
      <point x="1147.0300000000002" y="-229.865" type="line"/>
      <point x="1147.0300000000002" y="-91.89" type="line"/>
      <point x="71.16000000000001" y="-91.89" type="line"/>
    </contour>
  </outline>
</glyph>
<glyph name="grave" format="2">
  <advance width="669.8249999999999"/>
  <unicode hex="0060"/>
  <anchor x="494.595" y="956.71" name="_top"/>
  <anchor x="494.595" y="1342.195" name="top"/>
  <outline>
    <contour>
      <point x="307.075" y="1387.215" type="line"/>
      <point x="96.86" y="1387.215" type="line"/>
      <point x="96.86" y="1381.86" type="line"/>
      <point x="406.505" y="1098.3" type="line"/>
      <point x="576.105" y="1098.3" type="line"/>
      <point x="576.105" y="1102.655" type="line"/>
    </contour>
  </outline>
</glyph>
<glyph name="a" format="2">
  <advance width="1317.625"/>
  <unicode hex="0061"/>
  <anchor x="647.6350000000001" y="0.0" name="bottom"/>
  <anchor x="1214.315" y="3.925" name="ogonek"/>
  <anchor x="647.6350000000001" y="956.71" name="top"/>
  <outline>
    <contour>
      <point x="990.94" y="0.0" type="line"/>
      <point x="1170.2400000000002" y="0.0" type="line"/>
      <point x="1170.2400000000002" y="562.8050000000001" type="line" smooth="yes"/>
      <point x="1170.2400000000002" y="806.805"/>
      <point x="1035.37" y="986.42"/>
      <point x="659.785" y="986.42" type="curve" smooth="yes"/>
      <point x="430.40999999999997" y="986.42"/>
      <point x="267.485" y="918.475"/>
      <point x="169.075" y="863.83" type="curve"/>
      <point x="149.16" y="713.715" type="line"/>
      <point x="270.0" y="776.2950000000001"/>
      <point x="430.075" y="839.38"/>
      <point x="634.6650000000001" y="839.38" type="curve" smooth="yes"/>
      <point x="880.845" y="839.38"/>
      <point x="994.295" y="745.275"/>
      <point x="994.295" y="575.365" type="curve"/>
      <point x="993.51" y="547.095" type="line"/>
      <point x="993.51" y="324.36499999999995" type="line"/>
      <point x="998.865" y="286.81499999999994" type="line"/>
    </contour>
    <contour>
      <point x="498.32" y="-28.14" type="curve" smooth="yes"/>
      <point x="812.07" y="-28.14"/>
      <point x="954.26" y="115.26499999999999"/>
      <point x="993.025" y="270.65999999999997" type="curve"/>
      <point x="1028.3600000000001" y="270.65999999999997" type="line"/>
      <point x="1000.155" y="399.355" type="line"/>
      <point x="963.0150000000001" y="246.725"/>
      <point x="803.19" y="118.89999999999999"/>
      <point x="545.14" y="118.89999999999999" type="curve" smooth="yes"/>
      <point x="371.15500000000003" y="118.89999999999999"/>
      <point x="273.75" y="172.78"/>
      <point x="273.75" y="272.26" type="curve" smooth="yes"/>
      <point x="273.75" y="280.12" type="line" smooth="yes"/>
      <point x="273.75" y="387.955"/>
      <point x="355.65000000000003" y="426.405"/>
      <point x="593.375" y="444.695" type="curve" smooth="yes"/>
      <point x="1016.9300000000001" y="477.125" type="line"/>
      <point x="1013.7900000000001" y="598.97" type="line"/>
      <point x="579.74" y="567.54" type="line" smooth="yes"/>
      <point x="248.01" y="543.54"/>
      <point x="94.45" y="464.12"/>
      <point x="94.45" y="264.85" type="curve" smooth="yes"/>
      <point x="94.45" y="254.56" type="line" smooth="yes"/>
      <point x="94.45" y="72.28"/>
      <point x="245.03" y="-28.14"/>
    </contour>
  </outline>
</glyph>
<glyph name="b" format="2">
  <advance width="1459.0549999999998"/>
  <unicode hex="0062"/>
  <anchor x="729.635" y="0.0" name="bottom"/>
  <anchor x="729.635" y="1320.075" name="top"/>
  <outline>
    <contour>
      <point x="820.66" y="-28.14" type="curve" smooth="yes"/>
      <point x="1150.25" y="-28.14"/>
      <point x="1349.3899999999999" y="143.57000000000002"/>
      <point x="1349.3899999999999" y="467.71" type="curve" smooth="yes"/>
      <point x="1349.3899999999999" y="489.43" type="line" smooth="yes"/>
      <point x="1349.3899999999999" y="812.71"/>
      <point x="1151.8200000000002" y="984.85"/>
      <point x="827.4449999999999" y="984.85" type="curve" smooth="yes"/>
      <point x="539.77" y="984.85"/>
      <point x="385.22499999999997" y="844.305"/>
      <point x="347.59999999999997" y="685.62" type="curve"/>
      <point x="290.28499999999997" y="685.62" type="line"/>
      <point x="334.97499999999997" y="546.15" type="line"/>
      <point x="374.9" y="713.34"/>
      <point x="541.2950000000001" y="841.735"/>
      <point x="771.205" y="841.735" type="curve" smooth="yes"/>
      <point x="1021.77" y="841.735"/>
      <point x="1168.52" y="720.705"/>
      <point x="1168.52" y="492.35499999999996" type="curve" smooth="yes"/>
      <point x="1168.52" y="472.065" type="line" smooth="yes"/>
      <point x="1168.52" y="241.575"/>
      <point x="1020.9849999999999" y="118.89999999999999"/>
      <point x="774.42" y="118.89999999999999" type="curve" smooth="yes"/>
      <point x="547.165" y="118.89999999999999"/>
      <point x="356.05" y="227.565"/>
      <point x="342.76000000000005" y="465.96000000000004" type="curve"/>
      <point x="286.36" y="276.465" type="line"/>
      <point x="347.105" y="276.465" type="line"/>
      <point x="386.35499999999996" y="86.03999999999999"/>
      <point x="560.2" y="-28.14"/>
    </contour>
    <contour>
      <point x="169.03" y="0.0" type="line"/>
      <point x="348.33000000000004" y="0.0" type="line"/>
      <point x="339.975" y="289.53499999999997" type="line"/>
      <point x="342.76000000000005" y="345.14" type="line"/>
      <point x="342.76000000000005" y="621.99" type="line"/>
      <point x="341.545" y="663.755" type="line"/>
      <point x="346.76" y="955.925" type="line"/>
      <point x="346.76" y="1320.075" type="line"/>
      <point x="169.03" y="1320.075" type="line"/>
    </contour>
  </outline>
</glyph>
<glyph name="c" format="2">
  <advance width="1232.44"/>
  <unicode hex="0063"/>
  <anchor x="663.01" y="0.0" name="bottom"/>
  <anchor x="663.01" y="956.71" name="top"/>
  <outline>
    <contour>
      <point x="687.6350000000001" y="-30.495" type="curve" smooth="yes"/>
      <point x="894.235" y="-30.495"/>
      <point x="1035.73" y="24.450000000000003"/>
      <point x="1121.935" y="77.16999999999999" type="curve"/>
      <point x="1139.71" y="237.35" type="line"/>
      <point x="1038.365" y="174.20000000000002"/>
      <point x="907.6450000000001" y="118.89999999999999"/>
      <point x="717.11" y="118.89999999999999" type="curve" smooth="yes"/>
      <point x="437.78000000000003" y="118.89999999999999"/>
      <point x="288.96500000000003" y="246.35999999999999"/>
      <point x="288.96500000000003" y="473.84999999999997" type="curve" smooth="yes"/>
      <point x="288.96500000000003" y="492.355" type="line" smooth="yes"/>
      <point x="288.96500000000003" y="718.275"/>
      <point x="435.07" y="841.735"/>
      <point x="709.9699999999999" y="841.735" type="curve" smooth="yes"/>
      <point x="898.71" y="841.735"/>
      <point x="1031.0" y="787.295"/>
      <point x="1127.495" y="724.5" type="curve"/>
      <point x="1109.935" y="882.895" type="line"/>
      <point x="1028.16" y="931.9699999999999"/>
      <point x="889.235" y="988.775"/>
      <point x="686.065" y="988.775" type="curve" smooth="yes"/>
      <point x="310.73" y="988.775"/>
      <point x="108.095" y="811.925"/>
      <point x="108.095" y="493.14" type="curve" smooth="yes"/>
      <point x="108.095" y="473.065" type="line" smooth="yes"/>
      <point x="108.095" y="148.355"/>
      <point x="310.515" y="-30.495"/>
    </contour>
  </outline>
</glyph>
<glyph name="d" format="2">
  <advance width="1459.0549999999998"/>
  <unicode hex="0064"/>
  <anchor x="729.635" y="0.0" name="bottom"/>
  <anchor x="729.635" y="478.35499999999996" name="center"/>
  <anchor x="729.635" y="1320.075" name="top"/>
  <anchor x="1477.935" y="1320.075" name="topright"/>
  <outline>
    <contour>
      <point x="635.1800000000001" y="-28.14" type="curve" smooth="yes"/>
      <point x="924.21" y="-28.14"/>
      <point x="1074.615" y="112.61999999999999"/>
      <point x="1113.0249999999999" y="271.09" type="curve"/>
      <point x="1169.91" y="271.09" type="line"/>
      <point x="1124.0800000000002" y="411.56" type="line"/>
      <point x="1084.585" y="245.94"/>
      <point x="917.33" y="118.89999999999999"/>
      <point x="688.0649999999999" y="118.89999999999999" type="curve" smooth="yes"/>
      <point x="437.07" y="118.89999999999999"/>
      <point x="290.53499999999997" y="241.57500000000002"/>
      <point x="290.53499999999997" y="470.065" type="curve" smooth="yes"/>
      <point x="290.53499999999997" y="490.35499999999996" type="line" smooth="yes"/>
      <point x="290.53499999999997" y="719.845"/>
      <point x="437.64000000000004" y="841.735"/>
      <point x="686.56" y="841.735" type="curve" smooth="yes"/>
      <point x="920.9449999999999" y="841.735"/>
      <point x="1103.0049999999999" y="730.65"/>
      <point x="1116.2949999999998" y="494.67499999999995" type="curve"/>
      <point x="1170.6950000000002" y="680.245" type="line"/>
      <point x="1110.38" y="680.245" type="line"/>
      <point x="1071.915" y="870.6700000000001"/>
      <point x="899.21" y="984.85"/>
      <point x="638.75" y="984.85" type="curve" smooth="yes"/>
      <point x="309.15999999999997" y="984.85"/>
      <point x="109.665" y="813.1400000000001"/>
      <point x="109.665" y="489.21500000000003" type="curve" smooth="yes"/>
      <point x="109.665" y="467.28" type="line" smooth="yes"/>
      <point x="109.665" y="144.43"/>
      <point x="303.52500000000003" y="-28.14"/>
    </contour>
    <contour>
      <point x="1110.725" y="0.0" type="line"/>
      <point x="1290.025" y="0.0" type="line"/>
      <point x="1290.025" y="1320.075" type="line"/>
      <point x="1112.295" y="1320.075" type="line"/>
      <point x="1112.295" y="955.925" type="line"/>
      <point x="1117.2949999999998" y="663.755" type="line"/>
      <point x="1116.2949999999998" y="621.99" type="line"/>
      <point x="1116.2949999999998" y="345.14" type="line"/>
      <point x="1118.865" y="289.53499999999997" type="line"/>
    </contour>
  </outline>
</glyph>
<glyph name="e" format="2">
  <advance width="1335.5600000000002"/>
  <unicode hex="0065"/>
  <anchor x="676.99" y="0.0" name="bottom"/>
  <anchor x="1054.1250000000002" y="3.9250000000000003" name="ogonek"/>
  <anchor x="676.99" y="956.71" name="top"/>
  <outline>
    <contour>
      <point x="708.055" y="-30.495" type="curve" smooth="yes"/>
      <point x="909.1949999999999" y="-30.495"/>
      <point x="1067.905" y="14.795"/>
      <point x="1192.12" y="91.52499999999999" type="curve"/>
      <point x="1212.035" y="243.64" type="line"/>
      <point x="1070.25" y="161.76"/>
      <point x="915.4000000000001" y="116.545"/>
      <point x="734.96" y="116.545" type="curve" smooth="yes"/>
      <point x="408.95" y="116.545"/>
      <point x="286.60999999999996" y="251.79000000000002"/>
      <point x="286.60999999999996" y="448.085" type="curve" smooth="yes"/>
      <point x="286.60999999999996" y="479.71" type="line"/>
      <point x="286.61" y="498.84000000000003" type="line"/>
      <point x="286.61" y="513.55" type="line" smooth="yes"/>
      <point x="286.61" y="719.62"/>
      <point x="416.65" y="845.6600000000001"/>
      <point x="671.14" y="845.6600000000001" type="curve" smooth="yes"/>
      <point x="928.77" y="845.6600000000001"/>
      <point x="1062.305" y="721.18"/>
      <point x="1062.305" y="522.6999999999999" type="curve" smooth="yes"/>
      <point x="1062.305" y="488.28999999999996"/>
      <point x="1060.735" y="448.38500000000005"/>
      <point x="1056.595" y="417.76" type="curve"/>
      <point x="1224.475" y="417.76" type="line"/>
      <point x="1229.615" y="444.53499999999997"/>
      <point x="1233.54" y="479.29999999999995"/>
      <point x="1233.54" y="511.28000000000003" type="curve" smooth="yes"/>
      <point x="1233.54" y="516.8499999999999" type="line" smooth="yes"/>
      <point x="1233.54" y="798.915"/>
      <point x="1043.045" y="987.205"/>
      <point x="671.14" y="987.205" type="curve" smooth="yes"/>
      <point x="306.87" y="987.205"/>
      <point x="108.095" y="803.85"/>
      <point x="108.095" y="490.785" type="curve" smooth="yes"/>
      <point x="108.095" y="466.92499999999995" type="line" smooth="yes"/>
      <point x="108.095" y="149.505"/>
      <point x="309.3" y="-30.495"/>
    </contour>
    <contour>
      <point x="189.68" y="417.76" type="line"/>
      <point x="1189.4950000000001" y="417.76" type="line"/>
      <point x="1189.4950000000001" y="551.8100000000001" type="line"/>
      <point x="189.68" y="551.8100000000001" type="line"/>
    </contour>
  </outline>
</glyph>
<glyph name="f" format="2">
  <advance width="1005.4499999999999"/>
  <unicode hex="0066"/>
  <anchor x="503.225" y="0.0" name="bottom"/>
  <anchor x="503.225" y="1291.0" name="top"/>
  <outline>
    <contour>
      <point x="611.87" y="1350.0" type="curve" smooth="yes"/>
      <point x="312.095" y="1350.0"/>
      <point x="192.61" y="1240.355"/>
      <point x="192.61" y="1079.1299999999999" type="curve" smooth="yes"/>
      <point x="192.61" y="1075.6999999999998" type="line" smooth="yes"/>
      <point x="192.61" y="992.935"/>
      <point x="232.665" y="936.72"/>
      <point x="280.495" y="903.43" type="curve"/>
      <point x="280.495" y="883.87" type="line"/>
      <point x="398.06" y="889.655" type="line"/>
      <point x="382.845" y="920.5899999999999"/>
      <point x="367.985" y="961.46"/>
      <point x="367.985" y="1010.6850000000001" type="curve" smooth="yes"/>
      <point x="367.985" y="1014.9000000000001" type="line" smooth="yes"/>
      <point x="367.985" y="1131.51"/>
      <point x="433.865" y="1203.745"/>
      <point x="650.335" y="1203.745" type="curve" smooth="yes"/>
      <point x="773.195" y="1203.745"/>
      <point x="867.84" y="1183.4550000000002"/>
      <point x="967.355" y="1150.875" type="curve"/>
      <point x="947.44" y="1291.065" type="line"/>
      <point x="850.15" y="1326.355"/>
      <point x="745.5899999999999" y="1350.0"/>
    </contour>
    <contour>
      <point x="230.965" y="0.0" type="line"/>
      <point x="408.47999999999996" y="0.0" type="line"/>
      <point x="408.47999999999996" y="843.115" type="line"/>
      <point x="230.965" y="843.115" type="line"/>
    </contour>
    <contour>
      <point x="17.72" y="759.68" type="line"/>
      <point x="941.1500000000001" y="759.68" type="line"/>
      <point x="959.495" y="899.225" type="line"/>
      <point x="370.21999999999997" y="899.225" type="line"/>
      <point x="305.765" y="897.6550000000001" type="line"/>
      <point x="17.72" y="899.225" type="line"/>
    </contour>
  </outline>
</glyph>
<glyph name="g" format="2">
  <advance width="1374.355"/>
  <unicode hex="0067"/>
  <anchor x="685.2149999999999" y="-338.0" name="bottom"/>
  <anchor x="685.215" y="956.71" name="top"/>
  <outline>
    <contour>
      <point x="687.215" y="333.15" type="curve"/>
      <point x="1055.055" y="333.15"/>
      <point x="1237.27" y="431.3"/>
      <point x="1237.27" y="627.235" type="curve" smooth="yes"/>
      <point x="1237.27" y="635.955" type="line" smooth="yes"/>
      <point x="1237.27" y="752.985"/>
      <point x="1161.745" y="835.015"/>
      <point x="981.7" y="860.8" type="curve"/>
      <point x="980.8399999999999" y="867.7900000000001" type="line"/>
      <point x="1348.335" y="862.005" type="line"/>
      <point x="1348.335" y="1000.055" type="line"/>
      <point x="633.815" y="977.495" type="line" smooth="yes"/>
      <point x="293.675" y="967.0"/>
      <point x="124.815" y="869.635"/>
      <point x="124.815" y="662.075" type="curve" smooth="yes"/>
      <point x="124.815" y="652.355" type="line" smooth="yes"/>
      <point x="124.815" y="447.0"/>
      <point x="314.52500000000003" y="333.15"/>
    </contour>
    <contour>
      <point x="677.355" y="-243.305" type="line" smooth="yes"/>
      <point x="422.38" y="-243.305"/>
      <point x="261.965" y="-207.79999999999998"/>
      <point x="261.965" y="-87.17999999999999" type="curve" smooth="yes"/>
      <point x="261.965" y="-85.18" type="line" smooth="yes"/>
      <point x="261.965" y="19.505000000000003"/>
      <point x="375.22999999999996" y="56.730000000000004"/>
      <point x="521.225" y="69.805" type="curve"/>
      <point x="453.675" y="64.095" type="line"/>
      <point x="876.535" y="39.525" type="line" smooth="yes"/>
      <point x="1043.1650000000002" y="29.88"/>
      <point x="1113.5399999999997" y="-6.570000000000002"/>
      <point x="1113.5399999999997" y="-89.675" type="curve" smooth="yes"/>
      <point x="1113.5399999999997" y="-93.675" type="line" smooth="yes"/>
      <point x="1113.5399999999997" y="-208.51"/>
      <point x="950.1899999999999" y="-243.305"/>
      <point x="695.5699999999999" y="-243.305" type="curve" smooth="yes"/>
    </contour>
    <contour>
      <point x="664.7950000000001" y="-384.065" type="curve" smooth="yes"/>
      <point x="694.0" y="-384.065" type="line" smooth="yes"/>
      <point x="1053.905" y="-384.065"/>
      <point x="1288.7" y="-315.01"/>
      <point x="1288.7" y="-98.525" type="curve" smooth="yes"/>
      <point x="1288.7" y="-95.52499999999999" type="line" smooth="yes"/>
      <point x="1288.7" y="77.94"/>
      <point x="1167.215" y="153.94"/>
      <point x="900.3" y="170.65" type="curve" smooth="yes"/>
      <point x="558.635" y="191.79000000000002" type="line" smooth="yes"/>
      <point x="383.425" y="202.22"/>
      <point x="325.835" y="225.09"/>
      <point x="325.835" y="276.61500000000007" type="curve" smooth="yes"/>
      <point x="325.835" y="277.40000000000003" type="line" smooth="yes"/>
      <point x="325.835" y="322.635"/>
      <point x="365.77" y="345.71999999999997"/>
      <point x="488.98" y="348.07500000000005" type="curve"/>
      <point x="578.755" y="345.72" type="line"/>
      <point x="346.725" y="402.77500000000003" type="line"/>
      <point x="346.725" y="374.71000000000004" type="line"/>
      <point x="210.88" y="366.72"/>
      <point x="158.955" y="317.64500000000004"/>
      <point x="158.955" y="234.01000000000002" type="curve" smooth="yes"/>
      <point x="158.955" y="233.22500000000002" type="line" smooth="yes"/>
      <point x="158.955" y="151.645"/>
      <point x="220.04" y="103.43"/>
      <point x="338.195" y="88.29" type="curve"/>
      <point x="340.13" y="82.805" type="line"/>
      <point x="202.22" y="70.31"/>
      <point x="88.945" y="7.535000000000001"/>
      <point x="88.945" y="-123.29" type="curve" smooth="yes"/>
      <point x="88.945" y="-126.29" type="line" smooth="yes"/>
      <point x="88.945" y="-322.935"/>
      <point x="311.385" y="-384.065"/>
    </contour>
    <contour>
      <point x="684.075" y="462.91999999999996" type="curve" smooth="yes"/>
      <point x="417.455" y="462.91999999999996"/>
      <point x="299.975" y="534.8000000000001"/>
      <point x="299.975" y="655.495" type="curve" smooth="yes"/>
      <point x="299.975" y="666.0" type="line" smooth="yes"/>
      <point x="299.975" y="785.34"/>
      <point x="417.455" y="853.2950000000001"/>
      <point x="683.29" y="853.2950000000001" type="curve" smooth="yes"/>
      <point x="692.9350000000001" y="853.2950000000001" type="line" smooth="yes"/>
      <point x="952.1999999999999" y="853.2950000000001"/>
      <point x="1068.605" y="781.555"/>
      <point x="1068.605" y="664.4300000000001" type="curve" smooth="yes"/>
      <point x="1068.605" y="653.925" type="line" smooth="yes"/>
      <point x="1068.605" y="531.66"/>
      <point x="952.125" y="462.91999999999996"/>
    </contour>
  </outline>
</glyph>
<glyph name="h" format="2">
  <advance width="1406.98"/>
  <unicode hex="0068"/>
  <anchor x="703.99" y="0.0" name="bottom"/>
  <anchor x="703.99" y="646.0" name="center"/>
  <anchor x="257.895" y="1320.075" name="top"/>
  <outline>
    <contour>
      <point x="1075.94" y="0.0" type="line"/>
      <point x="1255.2400000000002" y="0.0" type="line"/>
      <point x="1255.2400000000002" y="526.505" type="line" smooth="yes"/>
      <point x="1255.2400000000002" y="813.13"/>
      <point x="1131.25" y="984.85"/>
      <point x="806.725" y="984.85" type="curve" smooth="yes"/>
      <point x="537.255" y="984.85"/>
      <point x="386.795" y="844.3050000000001"/>
      <point x="347.59999999999997" y="686.48" type="curve"/>
      <point x="309.48" y="686.48" type="line"/>
      <point x="339.685" y="550.72" type="line"/>
      <point x="377.18" y="710.4150000000001"/>
      <point x="518.155" y="836.24"/>
      <point x="745.99" y="836.24" type="curve" smooth="yes"/>
      <point x="992.1999999999999" y="836.24"/>
      <point x="1075.94" y="700.9300000000001"/>
      <point x="1075.94" y="507.30000000000007" type="curve" smooth="yes"/>
    </contour>
    <contour>
      <point x="169.03" y="0.0" type="line"/>
      <point x="348.33000000000004" y="0.0" type="line"/>
      <point x="348.33000000000004" y="645.765" type="line"/>
      <point x="341.975" y="656.1949999999999" type="line"/>
      <point x="346.76" y="957.57" type="line"/>
      <point x="346.76" y="1320.075" type="line"/>
      <point x="169.03" y="1320.075" type="line"/>
    </contour>
  </outline>
</glyph>
<glyph name="i" format="2">
  <advance width="521.4350000000001"/>
  <unicode hex="0069"/>
  <anchor x="261.10999999999996" y="0.0" name="bottom"/>
  <anchor x="394.835" y="3.925" name="ogonek"/>
  <outline>
    <contour>
      <point x="171.45999999999998" y="0.0" type="line"/>
      <point x="349.97499999999997" y="0.0" type="line"/>
      <point x="349.97499999999997" y="956.71" type="line"/>
      <point x="171.45999999999998" y="956.71" type="line"/>
    </contour>
    <contour>
      <point x="260.10999999999996" y="1139.91" type="curve" smooth="yes"/>
      <point x="339.71500000000003" y="1139.91"/>
      <point x="377.98499999999996" y="1175.965"/>
      <point x="377.98499999999996" y="1238.225" type="curve" smooth="yes"/>
      <point x="377.98499999999996" y="1242.01" type="line" smooth="yes"/>
      <point x="377.98499999999996" y="1302.27"/>
      <point x="339.71500000000003" y="1339.11"/>
      <point x="260.10999999999996" y="1339.11" type="curve" smooth="yes"/>
      <point x="181.935" y="1339.11"/>
      <point x="144.23499999999999" y="1302.27"/>
      <point x="144.23499999999999" y="1242.01" type="curve" smooth="yes"/>
      <point x="144.23499999999999" y="1238.225" type="line" smooth="yes"/>
      <point x="144.23499999999999" y="1176.75"/>
      <point x="181.935" y="1139.91"/>
    </contour>
  </outline>
</glyph>
<glyph name="j" format="2">
  <advance width="572.595"/>
  <unicode hex="006A"/>
  <outline>
    <contour>
      <point x="222.62" y="172.0" type="line"/>
      <point x="401.135" y="172.0" type="line"/>
      <point x="401.135" y="956.71" type="line"/>
      <point x="222.62" y="956.71" type="line"/>
    </contour>
    <contour>
      <point x="311.27" y="1124.21" type="curve" smooth="yes"/>
      <point x="390.875" y="1124.21"/>
      <point x="429.145" y="1160.2649999999999"/>
      <point x="429.145" y="1222.525" type="curve" smooth="yes"/>
      <point x="429.145" y="1226.31" type="line" smooth="yes"/>
      <point x="429.145" y="1286.57"/>
      <point x="390.875" y="1323.4099999999999"/>
      <point x="311.27" y="1323.4099999999999" type="curve" smooth="yes"/>
      <point x="233.095" y="1323.4099999999999"/>
      <point x="195.39499999999998" y="1286.57"/>
      <point x="195.39499999999998" y="1226.31" type="curve" smooth="yes"/>
      <point x="195.39499999999998" y="1222.525" type="line" smooth="yes"/>
      <point x="195.39499999999998" y="1161.05"/>
      <point x="233.095" y="1124.21"/>
    </contour>
    <component base="jbottom"/>
  </outline>
</glyph>
<glyph name="k" format="2">
  <advance width="1313.38"/>
  <unicode hex="006B"/>
  <anchor x="668.84" y="0.0" name="bottom"/>
  <anchor x="668.84" y="1320.075" name="top"/>
  <outline>
    <contour>
      <point x="1028.37" y="0.0" type="line"/>
      <point x="1276.705" y="0.0" type="line"/>
      <point x="610.6149999999999" y="536.775" type="line"/>
      <point x="610.6149999999999" y="496.07500000000005" type="line"/>
      <point x="1252.845" y="956.71" type="line"/>
      <point x="1009.7900000000001" y="956.71" type="line"/>
      <point x="478.145" y="583.9499999999999" type="line"/>
      <point x="313.78000000000003" y="583.9499999999999" type="line"/>
      <point x="313.78000000000003" y="436.125" type="line"/>
      <point x="476.575" y="436.125" type="line"/>
    </contour>
    <contour>
      <point x="169.03" y="0.0" type="line"/>
      <point x="348.33" y="0.0" type="line"/>
      <point x="348.33" y="1320.075" type="line"/>
      <point x="169.03" y="1320.075" type="line"/>
    </contour>
  </outline>
</glyph>
<glyph name="l" format="2">
  <advance width="522.22"/>
  <unicode hex="006C"/>
  <anchor x="261.10999999999996" y="0.0" name="bottom"/>
  <anchor x="261.10999999999996" y="646.0" name="center"/>
  <anchor x="261.10999999999996" y="1320.075" name="top"/>
  <anchor x="538.6700000000001" y="1320.075" name="topright"/>
  <outline>
    <contour>
      <point x="171.46" y="0.0" type="line"/>
      <point x="350.76000000000005" y="0.0" type="line"/>
      <point x="350.76000000000005" y="1320.075" type="line"/>
      <point x="171.46" y="1320.075" type="line"/>
    </contour>
  </outline>
</glyph>
<glyph name="m" format="2">
  <advance width="2181.29"/>
  <unicode hex="006D"/>
  <anchor x="1090.645" y="0.0" name="bottom"/>
  <anchor x="1090.645" y="956.71" name="top"/>
  <outline>
    <contour>
      <point x="1850.25" y="0.0" type="line"/>
      <point x="2029.5500000000002" y="0.0" type="line"/>
      <point x="2029.5500000000002" y="525.86" type="line" smooth="yes"/>
      <point x="2029.5500000000002" y="815.0649999999999"/>
      <point x="1913.27" y="984.85"/>
      <point x="1614.3999999999999" y="984.85" type="curve" smooth="yes"/>
      <point x="1352.6599999999999" y="984.85"/>
      <point x="1219.34" y="844.735"/>
      <point x="1175.435" y="687.125" type="curve"/>
      <point x="1152.2299999999998" y="687.125" type="line"/>
      <point x="1179.7250000000001" y="553.86" type="line"/>
      <point x="1214.0049999999999" y="711.985"/>
      <point x="1343.3349999999998" y="836.24"/>
      <point x="1551.8799999999999" y="836.24" type="curve" smooth="yes"/>
      <point x="1774.94" y="836.24"/>
      <point x="1850.25" y="700.93"/>
      <point x="1850.25" y="507.3" type="curve" smooth="yes"/>
    </contour>
    <contour>
      <point x="169.03" y="0.0" type="line"/>
      <point x="348.33000000000004" y="0.0" type="line"/>
      <point x="348.33000000000004" y="644.56" type="line"/>
      <point x="340.40500000000003" y="668.8950000000001" type="line"/>
      <point x="348.33000000000004" y="956.71" type="line"/>
      <point x="169.03" y="956.71" type="line"/>
    </contour>
    <contour>
      <point x="1009.64" y="0.0" type="line"/>
      <point x="1188.94" y="0.0" type="line"/>
      <point x="1188.94" y="543.775" type="line" smooth="yes"/>
      <point x="1188.94" y="574.345"/>
      <point x="1185.585" y="614.55"/>
      <point x="1180.0149999999999" y="645.27" type="curve"/>
      <point x="1148.0149999999999" y="866.14"/>
      <point x="1022.295" y="984.85"/>
      <point x="773.79" y="984.85" type="curve" smooth="yes"/>
      <point x="521.6850000000001" y="984.85"/>
      <point x="383.225" y="844.3050000000001"/>
      <point x="346.815" y="686.48" type="curve"/>
      <point x="317.33000000000004" y="686.48" type="line"/>
      <point x="338.90000000000003" y="550.7199999999999" type="line"/>
      <point x="373.61" y="710.4150000000001"/>
      <point x="502.72499999999997" y="836.24"/>
      <point x="711.0550000000001" y="836.24" type="curve" smooth="yes"/>
      <point x="934.115" y="836.24"/>
      <point x="1009.64" y="700.93"/>
      <point x="1009.64" y="507.29999999999995" type="curve" smooth="yes"/>
    </contour>
  </outline>
</glyph>
<glyph name="n" format="2">
  <advance width="1406.98"/>
  <unicode hex="006E"/>
  <anchor x="703.99" y="0.0" name="bottom"/>
  <anchor x="703.99" y="956.71" name="top"/>
  <outline>
    <contour>
      <point x="1075.94" y="0.0" type="line"/>
      <point x="1255.2400000000002" y="0.0" type="line"/>
      <point x="1255.2400000000002" y="526.505" type="line" smooth="yes"/>
      <point x="1255.2400000000002" y="813.13"/>
      <point x="1131.25" y="984.85"/>
      <point x="806.725" y="984.85" type="curve" smooth="yes"/>
      <point x="534.9" y="984.85"/>
      <point x="385.22499999999997" y="844.3050000000001"/>
      <point x="346.03" y="686.48" type="curve"/>
      <point x="311.125" y="686.48" type="line"/>
      <point x="338.90000000000003" y="550.7199999999999" type="line"/>
      <point x="376.39500000000004" y="710.4150000000001"/>
      <point x="517.37" y="836.24"/>
      <point x="744.4200000000001" y="836.24" type="curve" smooth="yes"/>
      <point x="992.1999999999999" y="836.24"/>
      <point x="1075.94" y="700.9300000000001"/>
      <point x="1075.94" y="507.30000000000007" type="curve" smooth="yes"/>
    </contour>
    <contour>
      <point x="169.03" y="0.0" type="line"/>
      <point x="348.33000000000004" y="0.0" type="line"/>
      <point x="348.33000000000004" y="647.7" type="line"/>
      <point x="340.40500000000003" y="668.895" type="line"/>
      <point x="348.33000000000004" y="956.71" type="line"/>
      <point x="169.03" y="956.71" type="line"/>
    </contour>
  </outline>
</glyph>
<glyph name="o" format="2">
  <advance width="1405.345"/>
  <unicode hex="006F"/>
  <anchor x="703.065" y="0.0" name="bottom"/>
  <anchor x="703.0649999999999" y="478.355" name="center"/>
  <anchor x="1003.24" y="3.925" name="ogonek"/>
  <anchor x="703.065" y="956.71" name="top"/>
  <anchor x="1224.77" y="956.71" name="topright"/>
  <outline>
    <contour>
      <point x="702.495" y="-28.925" type="curve" smooth="yes"/>
      <point x="1088.905" y="-28.925"/>
      <point x="1297.25" y="145.14000000000001"/>
      <point x="1297.25" y="466.925" type="curve"/>
      <point x="1297.25" y="492.57" type="line"/>
      <point x="1297.25" y="812.355"/>
      <point x="1088.905" y="987.205"/>
      <point x="702.495" y="987.205" type="curve" smooth="yes"/>
      <point x="316.655" y="987.205"/>
      <point x="108.095" y="812.355"/>
      <point x="108.095" y="492.57" type="curve"/>
      <point x="108.095" y="466.925" type="line"/>
      <point x="108.095" y="146.35500000000002"/>
      <point x="315.44000000000005" y="-28.925"/>
    </contour>
    <contour>
      <point x="702.495" y="114.19" type="curve" smooth="yes"/>
      <point x="436.285" y="114.19"/>
      <point x="288.18" y="239.22"/>
      <point x="288.18" y="466.925" type="curve" smooth="yes"/>
      <point x="288.18" y="492.56999999999994" type="line" smooth="yes"/>
      <point x="288.18" y="720.275"/>
      <point x="436.285" y="844.09"/>
      <point x="702.495" y="844.09" type="curve" smooth="yes"/>
      <point x="970.275" y="844.09"/>
      <point x="1117.165" y="720.275"/>
      <point x="1117.165" y="492.56999999999994" type="curve" smooth="yes"/>
      <point x="1117.165" y="466.925" type="line" smooth="yes"/>
      <point x="1117.165" y="239.22"/>
      <point x="969.0600000000001" y="114.19"/>
    </contour>
  </outline>
</glyph>
<glyph name="p" format="2">
  <advance width="1459.0549999999998"/>
  <unicode hex="0070"/>
  <anchor x="729.635" y="0.0" name="bottom"/>
  <anchor x="729.635" y="956.71" name="top"/>
  <outline>
    <contour>
      <point x="819.875" y="-28.14" type="curve" smooth="yes"/>
      <point x="1149.4650000000001" y="-28.14"/>
      <point x="1349.3899999999999" y="143.57000000000002"/>
      <point x="1349.3899999999999" y="468.495" type="curve" smooth="yes"/>
      <point x="1349.3899999999999" y="490.21500000000003" type="line" smooth="yes"/>
      <point x="1349.3899999999999" y="812.71"/>
      <point x="1155.7450000000001" y="984.85"/>
      <point x="822.7349999999999" y="984.85" type="curve" smooth="yes"/>
      <point x="535.845" y="984.85"/>
      <point x="384.44" y="844.305"/>
      <point x="346.03" y="685.62" type="curve"/>
      <point x="288.285" y="685.62" type="line"/>
      <point x="334.97499999999997" y="546.15" type="line"/>
      <point x="374.9" y="713.34"/>
      <point x="541.2950000000001" y="841.735"/>
      <point x="771.2049999999999" y="841.735" type="curve" smooth="yes"/>
      <point x="1021.77" y="841.735"/>
      <point x="1168.52" y="720.705"/>
      <point x="1168.52" y="492.3550000000001" type="curve" smooth="yes"/>
      <point x="1168.52" y="472.065" type="line" smooth="yes"/>
      <point x="1168.52" y="242.36"/>
      <point x="1020.985" y="120.47"/>
      <point x="773.6350000000001" y="120.47" type="curve" smooth="yes"/>
      <point x="547.1650000000001" y="120.47"/>
      <point x="356.05" y="225.21"/>
      <point x="342.76000000000005" y="459.68" type="curve"/>
      <point x="289.21999999999997" y="276.465" type="line"/>
      <point x="348.675" y="276.465" type="line"/>
      <point x="387.14" y="86.03999999999999"/>
      <point x="560.1999999999999" y="-28.14"/>
    </contour>
    <contour>
      <point x="169.03" y="-338.0" type="line"/>
      <point x="346.76" y="-338.0" type="line"/>
      <point x="346.76" y="1.5699999999999985" type="line"/>
      <point x="341.545" y="292.955" type="line"/>
      <point x="342.76000000000005" y="345.925" type="line"/>
      <point x="342.76000000000005" y="596.0849999999999" type="line"/>
      <point x="339.975" y="667.39" type="line"/>
      <point x="348.33000000000004" y="956.71" type="line"/>
      <point x="169.03" y="956.71" type="line"/>
    </contour>
  </outline>
</glyph>
<glyph name="q" format="2">
  <advance width="1459.0549999999998"/>
  <unicode hex="0071"/>
  <anchor x="729.635" y="0.0" name="bottom"/>
  <anchor x="729.635" y="956.71" name="top"/>
  <outline>
    <contour>
      <point x="635.1800000000001" y="-28.14" type="curve" smooth="yes"/>
      <point x="923.4250000000001" y="-28.14"/>
      <point x="1073.045" y="112.61999999999999"/>
      <point x="1111.455" y="271.09" type="curve"/>
      <point x="1170.3400000000001" y="271.09" type="line"/>
      <point x="1124.0800000000002" y="413.13" type="line"/>
      <point x="1084.585" y="247.51"/>
      <point x="917.33" y="120.47"/>
      <point x="688.065" y="120.47" type="curve" smooth="yes"/>
      <point x="437.07" y="120.47"/>
      <point x="290.53499999999997" y="242.145"/>
      <point x="290.53499999999997" y="470.065" type="curve" smooth="yes"/>
      <point x="290.53499999999997" y="490.35499999999996" type="line" smooth="yes"/>
      <point x="290.53499999999997" y="719.845"/>
      <point x="437.855" y="841.735"/>
      <point x="687.42" y="841.735" type="curve" smooth="yes"/>
      <point x="921.375" y="841.735"/>
      <point x="1103.005" y="733.005"/>
      <point x="1116.2949999999998" y="502.525" type="curve"/>
      <point x="1169.8349999999998" y="679.46" type="line"/>
      <point x="1111.95" y="679.46" type="line"/>
      <point x="1073.4850000000001" y="870.6700000000001"/>
      <point x="900.425" y="984.85"/>
      <point x="639.395" y="984.85" type="curve" smooth="yes"/>
      <point x="309.59000000000003" y="984.85"/>
      <point x="109.665" y="813.1400000000001"/>
      <point x="109.665" y="489.21500000000003" type="curve" smooth="yes"/>
      <point x="109.665" y="467.28" type="line" smooth="yes"/>
      <point x="109.665" y="144.0"/>
      <point x="303.52500000000003" y="-28.14"/>
    </contour>
    <contour>
      <point x="1112.295" y="-338.0" type="line"/>
      <point x="1290.025" y="-338.0" type="line"/>
      <point x="1290.025" y="956.71" type="line"/>
      <point x="1110.725" y="956.71" type="line"/>
      <point x="1118.865" y="666.6049999999999" type="line"/>
      <point x="1116.2949999999998" y="596.0849999999999" type="line"/>
      <point x="1116.2949999999998" y="345.925" type="line"/>
      <point x="1117.295" y="292.95500000000004" type="line"/>
      <point x="1112.295" y="1.5699999999999985" type="line"/>
    </contour>
  </outline>
</glyph>
<glyph name="r" format="2">
  <advance width="1012.645"/>
  <unicode hex="0072"/>
  <anchor x="259.68" y="0.0" name="bottom"/>
  <anchor x="535.365" y="956.71" name="top"/>
  <outline>
    <contour>
      <point x="339.545" y="527.59" type="line"/>
      <point x="416.49" y="714.9399999999999"/>
      <point x="574.1650000000001" y="814.11"/>
      <point x="775.97" y="814.11" type="curve" smooth="yes"/>
      <point x="852.4849999999999" y="814.11"/>
      <point x="919.42" y="799.605"/>
      <point x="971.71" y="780.885" type="curve"/>
      <point x="957.1500000000001" y="946.0550000000001" type="line"/>
      <point x="915.0" y="962.56"/>
      <point x="859.13" y="977.0649999999999"/>
      <point x="783.325" y="977.0649999999999" type="curve" smooth="yes"/>
      <point x="561.23" y="977.0649999999999"/>
      <point x="407.265" y="855.97"/>
      <point x="346.67499999999995" y="658.005" type="curve"/>
      <point x="305.2" y="655.21" type="line"/>
    </contour>
    <contour>
      <point x="169.03" y="0.0" type="line"/>
      <point x="348.33000000000004" y="0.0" type="line"/>
      <point x="348.33000000000004" y="615.41" type="line"/>
      <point x="340.40500000000003" y="623.26" type="line"/>
      <point x="348.33" y="956.71" type="line"/>
      <point x="169.03" y="956.71" type="line"/>
    </contour>
  </outline>
</glyph>
<glyph name="s" format="2">
  <advance width="1214.7"/>
  <unicode hex="0073"/>
  <anchor x="607.8499999999999" y="0.0" name="bottom"/>
  <anchor x="607.85" y="956.71" name="top"/>
  <outline>
    <contour>
      <point x="627.0649999999999" y="-30.495" type="curve" smooth="yes"/>
      <point x="959.475" y="-30.495"/>
      <point x="1129.54" y="61.86"/>
      <point x="1129.54" y="267.98" type="curve" smooth="yes"/>
      <point x="1129.54" y="267.98" type="line" smooth="yes"/>
      <point x="1129.54" y="474.755"/>
      <point x="999.055" y="531.8950000000001"/>
      <point x="627.4749999999999" y="559.745" type="curve" smooth="yes"/>
      <point x="338.07" y="580.67"/>
      <point x="270.395" y="609.25"/>
      <point x="270.395" y="708.73" type="curve" smooth="yes"/>
      <point x="270.395" y="708.7299999999999" type="line" smooth="yes"/>
      <point x="270.395" y="792.8449999999999"/>
      <point x="349.715" y="843.875"/>
      <point x="577.13" y="843.875" type="curve" smooth="yes"/>
      <point x="785.9250000000001" y="843.875"/>
      <point x="953.3449999999999" y="795.865"/>
      <point x="1077.6899999999998" y="734.715" type="curve"/>
      <point x="1057.3449999999998" y="885.185" type="line"/>
      <point x="953.215" y="938.12"/>
      <point x="786.645" y="987.5600000000001"/>
      <point x="563.43" y="987.5600000000001" type="curve" smooth="yes"/>
      <point x="246.15" y="987.5600000000001"/>
      <point x="94.45" y="895.2049999999999"/>
      <point x="94.45" y="711.87" type="curve" smooth="yes"/>
      <point x="94.45" y="710.3" type="line" smooth="yes"/>
      <point x="94.45" y="526.805"/>
      <point x="208.02" y="449.76"/>
      <point x="576.59" y="423.695" type="curve" smooth="yes"/>
      <point x="861.2199999999999" y="404.125"/>
      <point x="952.025" y="377.685"/>
      <point x="952.025" y="267.98" type="curve" smooth="yes"/>
      <point x="952.025" y="267.97999999999996" type="line" smooth="yes"/>
      <point x="952.025" y="161.715"/>
      <point x="839.06" y="116.545"/>
      <point x="618.8599999999999" y="116.545" type="curve" smooth="yes"/>
      <point x="395.925" y="116.545"/>
      <point x="226.15" y="172.405"/>
      <point x="89.795" y="238.985" type="curve"/>
      <point x="109.925" y="74.31" type="line"/>
      <point x="223.56" y="22.159999999999997"/>
      <point x="391.7" y="-30.495"/>
    </contour>
  </outline>
</glyph>
<glyph name="t" format="2">
  <advance width="1093.095"/>
  <unicode hex="0074"/>
  <anchor x="599.0200000000001" y="0.0" name="bottom"/>
  <anchor x="547.4399999999999" y="478.35499999999996" name="center"/>
  <anchor x="313.54" y="1203.0" name="top"/>
  <anchor x="820.92" y="1412.99" name="topright"/>
  <outline>
    <contour>
      <point x="642.7950000000001" y="-26.57" type="curve" smooth="yes"/>
      <point x="779.645" y="-26.57"/>
      <point x="904.15" y="0.3649999999999999"/>
      <point x="997.44" y="44.73" type="curve"/>
      <point x="1015.785" y="198.77" type="line"/>
      <point x="917.625" y="149.25500000000002"/>
      <point x="801.69" y="122.825"/>
      <point x="683.615" y="122.825" type="curve" smooth="yes"/>
      <point x="474.21" y="122.825"/>
      <point x="399.62" y="205.41500000000002"/>
      <point x="399.62" y="380.81" type="curve" smooth="yes"/>
      <point x="399.62" y="851.115" type="line"/>
      <point x="222.105" y="851.115" type="line"/>
      <point x="222.105" y="362.755" type="line" smooth="yes"/>
      <point x="222.105" y="100.7"/>
      <point x="333.18" y="-26.57"/>
    </contour>
    <contour>
      <point x="8.86" y="798.51" type="line"/>
      <point x="995.085" y="798.51" type="line"/>
      <point x="1014.215" y="937.2700000000001" type="line"/>
      <point x="8.86" y="937.2700000000001" type="line"/>
    </contour>
    <contour>
      <point x="224.45999999999998" y="919.635" type="line"/>
      <point x="394.695" y="919.635" type="line"/>
      <point x="401.62" y="1231.43" type="line"/>
      <point x="223.67499999999998" y="1211.72" type="line"/>
    </contour>
  </outline>
</glyph>
<glyph name="u" format="2">
  <advance width="1406.98"/>
  <unicode hex="0075"/>
  <anchor x="703.99" y="0.0" name="bottom"/>
  <anchor x="1282.8100000000002" y="3.925" name="ogonek"/>
  <anchor x="703.99" y="956.71" name="top"/>
  <anchor x="1386.1950000000002" y="956.71" name="topright"/>
  <outline>
    <contour>
      <point x="331.03999999999996" y="956.71" type="line"/>
      <point x="151.74" y="956.71" type="line"/>
      <point x="151.74" y="430.20500000000004" type="line" smooth="yes"/>
      <point x="151.74" y="143.58"/>
      <point x="275.73" y="-28.14"/>
      <point x="600.2550000000001" y="-28.14" type="curve" smooth="yes"/>
      <point x="872.08" y="-28.14"/>
      <point x="1021.755" y="112.405"/>
      <point x="1060.9499999999998" y="270.23" type="curve"/>
      <point x="1095.8549999999998" y="270.23" type="line"/>
      <point x="1068.0800000000002" y="405.99" type="line"/>
      <point x="1030.585" y="246.295"/>
      <point x="889.61" y="120.47"/>
      <point x="662.5600000000001" y="120.47" type="curve" smooth="yes"/>
      <point x="414.78000000000003" y="120.47"/>
      <point x="331.03999999999996" y="255.78"/>
      <point x="331.03999999999996" y="449.41" type="curve" smooth="yes"/>
    </contour>
    <contour>
      <point x="1237.9500000000003" y="956.71" type="line"/>
      <point x="1058.65" y="956.71" type="line"/>
      <point x="1058.65" y="309.00999999999993" type="line"/>
      <point x="1066.575" y="287.815" type="line"/>
      <point x="1058.65" y="0.0" type="line"/>
      <point x="1237.9500000000003" y="0.0" type="line"/>
    </contour>
  </outline>
</glyph>
<glyph name="v" format="2">
  <advance width="1307.41"/>
  <unicode hex="0076"/>
  <anchor x="654.205" y="0.0" name="bottom"/>
  <anchor x="654.205" y="956.71" name="top"/>
  <outline>
    <contour>
      <point x="671.775" y="125.415" type="line"/>
      <point x="639.7750000000001" y="125.415" type="line"/>
      <point x="238.245" y="956.71" type="line"/>
      <point x="45.31" y="956.71" type="line"/>
      <point x="513.155" y="0.0" type="line"/>
      <point x="797.61" y="0.0" type="line"/>
      <point x="1262.1" y="956.71" type="line"/>
      <point x="1070.735" y="956.71" type="line"/>
    </contour>
  </outline>
</glyph>
<glyph name="w" format="2">
  <advance width="1959.8600000000001"/>
  <unicode hex="0077"/>
  <anchor x="980.4300000000001" y="0.0" name="bottom"/>
  <anchor x="980.4300000000001" y="956.71" name="top"/>
  <outline>
    <contour>
      <point x="420.23" y="0.0" type="line"/>
      <point x="686.1899999999999" y="0.0" type="line"/>
      <point x="901.57" y="594.475" type="line"/>
      <point x="971.645" y="799.37" type="line"/>
      <point x="987.2149999999999" y="799.37" type="line"/>
      <point x="1058.29" y="594.26" type="line"/>
      <point x="1273.455" y="0.0" type="line"/>
      <point x="1539.63" y="0.0" type="line"/>
      <point x="1896.83" y="956.71" type="line"/>
      <point x="1705.465" y="956.71" type="line"/>
      <point x="1411.4399999999998" y="129.34" type="line"/>
      <point x="1391.44" y="129.34" type="line"/>
      <point x="1103.06" y="928.71" type="line"/>
      <point x="855.015" y="928.71" type="line"/>
      <point x="569.775" y="129.34" type="line"/>
      <point x="549.205" y="129.34" type="line"/>
      <point x="254.395" y="956.71" type="line"/>
      <point x="63.03" y="956.71" type="line"/>
    </contour>
  </outline>
</glyph>
<glyph name="x" format="2">
  <advance width="1305.53"/>
  <unicode hex="0078"/>
  <anchor x="652.765" y="0.0" name="bottom"/>
  <anchor x="652.765" y="956.71" name="top"/>
  <outline>
    <contour>
      <point x="60.675000000000004" y="0.0" type="line"/>
      <point x="275.525" y="0.0" type="line"/>
      <point x="643.41" y="404.125" type="line"/>
      <point x="662.12" y="404.125" type="line"/>
      <point x="1030.79" y="0.0" type="line"/>
      <point x="1244.8550000000002" y="0.0" type="line"/>
      <point x="782.17" y="514.98" type="line"/>
      <point x="782.17" y="475.44" type="line"/>
      <point x="1235.5" y="956.71" type="line"/>
      <point x="1022.22" y="956.71" type="line"/>
      <point x="662.12" y="574.4449999999999" type="line"/>
      <point x="643.41" y="574.4449999999999" type="line"/>
      <point x="284.095" y="956.71" type="line"/>
      <point x="70.815" y="956.71" type="line"/>
      <point x="523.36" y="474.225" type="line"/>
      <point x="523.36" y="514.5500000000001" type="line"/>
    </contour>
  </outline>
</glyph>
<glyph name="y" format="2">
  <advance width="1309.84"/>
  <unicode hex="0079"/>
  <anchor x="993.18" y="25.12" name="bottom"/>
  <anchor x="655.42" y="956.71" name="top"/>
  <outline>
    <contour>
      <point x="741.51" y="157.91" type="line"/>
      <point x="636.2800000000001" y="157.91" type="line"/>
      <point x="239.815" y="956.71" type="line"/>
      <point x="45.31" y="956.71" type="line"/>
      <point x="513.585" y="36.419999999999995" type="line"/>
      <point x="705.1" y="36.419999999999995" type="line"/>
      <point x="636.87" y="112.36" type="line"/>
      <point x="405.74" y="-338.0" type="line"/>
      <point x="597.8900000000001" y="-338.0" type="line"/>
      <point x="1264.53" y="956.71" type="line"/>
      <point x="1070.0249999999999" y="956.71" type="line"/>
      <point x="637.16" y="95.53" type="line"/>
    </contour>
  </outline>
</glyph>
<glyph name="z" format="2">
  <advance width="1234.8500000000001"/>
  <unicode hex="007A"/>
  <anchor x="617.9250000000001" y="0.0" name="bottom"/>
  <anchor x="617.9250000000001" y="478.35499999999996" name="center"/>
  <anchor x="617.9250000000001" y="956.71" name="top"/>
  <outline>
    <contour>
      <point x="1130.625" y="141.11499999999998" type="line"/>
      <point x="344.625" y="141.11499999999998" type="line"/>
      <point x="1123.8400000000001" y="825.4449999999999" type="line"/>
      <point x="1123.8400000000001" y="955.925" type="line"/>
      <point x="108.225" y="955.925" type="line"/>
      <point x="108.225" y="814.8100000000001" type="line"/>
      <point x="882.4399999999999" y="814.8100000000001" type="line"/>
      <point x="104.225" y="131.26500000000001" type="line"/>
      <point x="104.225" y="0.0" type="line"/>
      <point x="1130.625" y="0.0" type="line"/>
    </contour>
  </outline>
</glyph>
<glyph name="braceleft" format="2">
  <advance width="846.58"/>
  <unicode hex="007B"/>
  <outline>
    <contour>
      <point x="767.14" y="1321.635" type="line"/>
      <point x="718.7850000000001" y="1337.4950000000001"/>
      <point x="644.645" y="1350.925"/>
      <point x="566.86" y="1350.925" type="curve" smooth="yes"/>
      <point x="356.31" y="1350.925"/>
      <point x="264.18" y="1266.2150000000001"/>
      <point x="264.18" y="1065.02" type="curve" smooth="yes"/>
      <point x="264.18" y="993.085"/>
      <point x="279.825" y="872.795"/>
      <point x="279.825" y="793.355" type="curve" smooth="yes"/>
      <point x="279.825" y="690.7650000000001"/>
      <point x="240.39499999999998" y="630.68"/>
      <point x="82.58" y="624.605" type="curve"/>
      <point x="82.58" y="485.125" type="line"/>
      <point x="240.39499999999998" y="476.62"/>
      <point x="279.825" y="415.105"/>
      <point x="279.825" y="310.86999999999995" type="curve" smooth="yes"/>
      <point x="279.825" y="231.645"/>
      <point x="264.18" y="111.355"/>
      <point x="264.18" y="38.42" type="curve" smooth="yes"/>
      <point x="264.18" y="-163.56"/>
      <point x="356.31" y="-249.05499999999998"/>
      <point x="566.86" y="-249.05499999999998" type="curve" smooth="yes"/>
      <point x="644.645" y="-249.05499999999998"/>
      <point x="718.7850000000001" y="-235.41000000000003"/>
      <point x="767.14" y="-218.76500000000001" type="curve"/>
      <point x="767.14" y="-84.285" type="line"/>
      <point x="727.7750000000001" y="-97.79"/>
      <point x="675.905" y="-109.865"/>
      <point x="612.9599999999999" y="-109.865" type="curve" smooth="yes"/>
      <point x="483.93" y="-109.865"/>
      <point x="432.49" y="-63.565"/>
      <point x="432.49" y="61.26" type="curve" smooth="yes"/>
      <point x="432.49" y="127.765"/>
      <point x="447.135" y="241.13"/>
      <point x="447.135" y="327.785" type="curve" smooth="yes"/>
      <point x="447.135" y="449.22499999999997"/>
      <point x="405.125" y="542.515"/>
      <point x="229.695" y="552.795" type="curve"/>
      <point x="247.04" y="523.9549999999999" type="line"/>
      <point x="247.04" y="559.2900000000001" type="line"/>
      <point x="407.565" y="575.57"/>
      <point x="447.135" y="661.87"/>
      <point x="447.135" y="777.44" type="curve" smooth="yes"/>
      <point x="447.135" y="863.095"/>
      <point x="432.49" y="975.675"/>
      <point x="432.49" y="1043.1799999999998" type="curve" smooth="yes"/>
      <point x="432.49" y="1167.005"/>
      <point x="483.145" y="1213.305"/>
      <point x="609.8199999999999" y="1213.305" type="curve" smooth="yes"/>
      <point x="674.335" y="1213.305"/>
      <point x="726.99" y="1202.23"/>
      <point x="767.14" y="1188.725" type="curve"/>
    </contour>
  </outline>
</glyph>
<glyph name="bar" format="2">
  <advance width="600.26"/>
  <unicode hex="007C"/>
  <outline>
    <contour>
      <point x="378.575" y="-449.29999999999995" type="line"/>
      <point x="378.575" y="1415.0" type="line"/>
      <point x="221.685" y="1415.0" type="line"/>
      <point x="221.685" y="-449.29999999999995" type="line"/>
    </contour>
  </outline>
</glyph>
<glyph name="braceright" format="2">
  <advance width="846.58"/>
  <unicode hex="007D"/>
  <outline>
    <contour>
      <point x="79.44" y="1321.635" type="curve"/>
      <point x="79.44" y="1188.725" type="line"/>
      <point x="119.59" y="1202.23"/>
      <point x="172.245" y="1213.305"/>
      <point x="236.76" y="1213.305" type="curve" smooth="yes"/>
      <point x="363.435" y="1213.305"/>
      <point x="414.09000000000003" y="1167.005"/>
      <point x="414.09000000000003" y="1043.1799999999998" type="curve" smooth="yes"/>
      <point x="414.09000000000003" y="975.675"/>
      <point x="399.445" y="863.095"/>
      <point x="399.445" y="777.44" type="curve" smooth="yes"/>
      <point x="399.445" y="661.87"/>
      <point x="439.015" y="575.57"/>
      <point x="599.5400000000001" y="559.2900000000001" type="curve"/>
      <point x="599.5400000000001" y="523.9549999999999" type="line"/>
      <point x="616.885" y="552.795" type="line"/>
      <point x="441.455" y="542.515"/>
      <point x="399.445" y="449.22499999999997"/>
      <point x="399.445" y="327.785" type="curve" smooth="yes"/>
      <point x="399.445" y="241.13"/>
      <point x="414.09000000000003" y="127.765"/>
      <point x="414.09000000000003" y="61.26" type="curve" smooth="yes"/>
      <point x="414.09000000000003" y="-63.565"/>
      <point x="362.65" y="-109.865"/>
      <point x="233.62" y="-109.865" type="curve" smooth="yes"/>
      <point x="170.675" y="-109.865"/>
      <point x="118.805" y="-97.79"/>
      <point x="79.44" y="-84.285" type="curve"/>
      <point x="79.44" y="-218.76500000000001" type="line"/>
      <point x="127.795" y="-235.41000000000003"/>
      <point x="201.935" y="-249.05499999999998"/>
      <point x="279.72" y="-249.05499999999998" type="curve" smooth="yes"/>
      <point x="490.27" y="-249.05499999999998"/>
      <point x="582.4" y="-163.56"/>
      <point x="582.4" y="38.42" type="curve" smooth="yes"/>
      <point x="582.4" y="111.355"/>
      <point x="566.7550000000001" y="231.645"/>
      <point x="566.7550000000001" y="310.86999999999995" type="curve" smooth="yes"/>
      <point x="566.7550000000001" y="415.105"/>
      <point x="606.185" y="476.62"/>
      <point x="764.0" y="485.125" type="curve"/>
      <point x="764.0" y="624.605" type="line"/>
      <point x="606.185" y="630.68"/>
      <point x="566.7550000000001" y="690.7650000000001"/>
      <point x="566.7550000000001" y="793.355" type="curve" smooth="yes"/>
      <point x="566.7550000000001" y="872.795"/>
      <point x="582.4" y="993.085"/>
      <point x="582.4" y="1065.02" type="curve" smooth="yes"/>
      <point x="582.4" y="1266.2150000000001"/>
      <point x="490.27" y="1350.925"/>
      <point x="279.72" y="1350.925" type="curve" smooth="yes"/>
      <point x="201.935" y="1350.925"/>
      <point x="127.795" y="1337.4950000000001"/>
    </contour>
  </outline>
</glyph>
<glyph name="asciitilde" format="2">
  <advance width="1372.075"/>
  <unicode hex="007E"/>
  <outline>
    <contour>
      <point x="957.02" y="426.43" type="curve" smooth="yes"/>
      <point x="1143.625" y="426.43"/>
      <point x="1214.55" y="530.905"/>
      <point x="1214.55" y="713.25" type="curve" smooth="yes"/>
      <point x="1214.55" y="750.305" type="line"/>
      <point x="1082.07" y="750.305" type="line"/>
      <point x="1082.07" y="733.5200000000001" type="line" smooth="yes"/>
      <point x="1082.07" y="625.2"/>
      <point x="1044.695" y="569.76"/>
      <point x="947.955" y="569.76" type="curve" smooth="yes"/>
      <point x="785.72" y="569.76"/>
      <point x="615.765" y="723.23"/>
      <point x="415.27000000000004" y="723.23" type="curve" smooth="yes"/>
      <point x="227.665" y="723.23"/>
      <point x="157.52499999999998" y="616.1850000000001"/>
      <point x="157.52499999999998" y="435.765" type="curve" smooth="yes"/>
      <point x="157.52499999999998" y="399.355" type="line"/>
      <point x="289.435" y="399.355" type="line"/>
      <point x="289.435" y="416.14000000000004" type="line" smooth="yes"/>
      <point x="289.435" y="522.89"/>
      <point x="329.95" y="577.545"/>
      <point x="424.12" y="577.545" type="curve" smooth="yes"/>
      <point x="585.14" y="577.545"/>
      <point x="758.8050000000001" y="426.43"/>
    </contour>
  </outline>
</glyph>
<glyph name="exclamdown" format="2">
  <advance width="561.53"/>
  <unicode hex="00A1"/>
  <outline>
    <contour>
      <point x="358.56500000000005" y="563.02" type="line"/>
      <point x="203.535" y="563.02" type="line"/>
      <point x="183.62" y="-321.29" type="line"/>
      <point x="377.69500000000005" y="-321.29" type="line"/>
    </contour>
    <contour>
      <point x="280.54999999999995" y="978.56" type="curve" smooth="yes"/>
      <point x="200.02" y="978.56"/>
      <point x="159.18" y="937.795"/>
      <point x="159.18" y="869.825" type="curve" smooth="yes"/>
      <point x="159.18" y="865.825" type="line" smooth="yes"/>
      <point x="159.18" y="798.07"/>
      <point x="200.02" y="757.52"/>
      <point x="280.54999999999995" y="757.52" type="curve" smooth="yes"/>
      <point x="363.295" y="757.52"/>
      <point x="403.135" y="798.07"/>
      <point x="403.135" y="865.825" type="curve" smooth="yes"/>
      <point x="403.135" y="869.825" type="line" smooth="yes"/>
      <point x="403.135" y="937.795"/>
      <point x="363.295" y="978.56"/>
    </contour>
  </outline>
</glyph>
<glyph name="cent" format="2">
  <advance width="1232.44"/>
  <unicode hex="00A2"/>
  <anchor x="663.01" y="0.0" name="bottom"/>
  <anchor x="663.01" y="956.71" name="top"/>
  <outline>
    <contour>
      <point x="775.575" y="892.8449999999999" type="line"/>
      <point x="775.575" y="1217.9350000000002" type="line"/>
      <point x="609.265" y="1217.9350000000002" type="line"/>
      <point x="609.265" y="892.8449999999999" type="line"/>
    </contour>
    <contour>
      <point x="775.575" y="-256.655" type="line"/>
      <point x="775.575" y="76.35000000000001" type="line"/>
      <point x="609.265" y="76.35000000000001" type="line"/>
      <point x="609.265" y="-256.655" type="line"/>
    </contour>
    <component base="c"/>
  </outline>
</glyph>
<glyph name="sterling" format="2">
  <advance width="1504.235"/>
  <unicode hex="00A3"/>
  <outline>
    <contour>
      <point x="107.44" y="574.975" type="line"/>
      <point x="1264.075" y="574.975" type="line"/>
      <point x="1277.355" y="711.025" type="line"/>
      <point x="120.72" y="711.025" type="line"/>
    </contour>
    <contour>
      <point x="392.115" y="150.965" type="line"/>
      <point x="392.115" y="158.105" type="line"/>
      <point x="506.74" y="199.245"/>
      <point x="572.1899999999999" y="282.545"/>
      <point x="572.1899999999999" y="422.35999999999996" type="curve" smooth="yes"/>
      <point x="572.1899999999999" y="603.345"/>
      <point x="475.32" y="737.13"/>
      <point x="475.32" y="906.1049999999999" type="curve" smooth="yes"/>
      <point x="475.32" y="1071.08"/>
      <point x="598.725" y="1153.455"/>
      <point x="880.3249999999999" y="1153.455" type="curve" smooth="yes"/>
      <point x="1033.335" y="1153.455"/>
      <point x="1182.205" y="1129.3799999999999"/>
      <point x="1322.925" y="1086.155" type="curve"/>
      <point x="1306.935" y="1238.84" type="line"/>
      <point x="1176.3650000000002" y="1278.56"/>
      <point x="1008.795" y="1304.28"/>
      <point x="844.645" y="1304.28" type="curve" smooth="yes"/>
      <point x="463.09499999999997" y="1304.28"/>
      <point x="281.46000000000004" y="1179.0"/>
      <point x="281.46000000000004" y="926.945" type="curve" smooth="yes"/>
      <point x="281.46000000000004" y="723.195"/>
      <point x="384.03999999999996" y="576.645"/>
      <point x="383.03999999999996" y="399.96000000000004" type="curve" smooth="yes"/>
      <point x="382.825" y="267.135"/>
      <point x="314.945" y="177.17000000000002"/>
      <point x="178.77499999999998" y="154.46" type="curve" smooth="yes"/>
      <point x="116.655" y="143.395" type="line"/>
      <point x="116.655" y="0.0" type="line"/>
      <point x="1426.01" y="0.0" type="line"/>
      <point x="1426.01" y="150.965" type="line"/>
    </contour>
  </outline>
</glyph>
<glyph name="currency" format="2">
  <advance width="1284.5400000000002"/>
  <unicode hex="00A4"/>
  <outline>
    <contour>
      <point x="641.4849999999999" y="214.89" type="curve" smooth="yes"/>
      <point x="934.25" y="214.89"/>
      <point x="1100.1" y="359.525"/>
      <point x="1100.1" y="615.3000000000001" type="curve" smooth="yes"/>
      <point x="1100.1" y="622.87" type="line" smooth="yes"/>
      <point x="1100.1" y="878.43"/>
      <point x="934.465" y="1021.85"/>
      <point x="641.6999999999999" y="1021.85" type="curve" smooth="yes"/>
      <point x="349.72" y="1021.85"/>
      <point x="183.87" y="878.43"/>
      <point x="183.87" y="622.87" type="curve" smooth="yes"/>
      <point x="183.87" y="615.3000000000001" type="line" smooth="yes"/>
      <point x="183.87" y="359.525"/>
      <point x="349.505" y="214.89"/>
    </contour>
    <contour>
      <point x="641.6999999999999" y="352.51" type="curve" smooth="yes"/>
      <point x="454.36" y="352.51"/>
      <point x="346.685" y="445.25"/>
      <point x="346.685" y="615.3" type="curve" smooth="yes"/>
      <point x="346.685" y="622.87" type="line" smooth="yes"/>
      <point x="346.685" y="791.705"/>
      <point x="454.36" y="884.23"/>
      <point x="641.6999999999999" y="884.23" type="curve" smooth="yes"/>
      <point x="828.6099999999999" y="884.23"/>
      <point x="937.285" y="791.705"/>
      <point x="937.285" y="622.87" type="curve" smooth="yes"/>
      <point x="937.285" y="615.3" type="line" smooth="yes"/>
      <point x="937.285" y="445.25"/>
      <point x="828.6099999999999" y="352.51"/>
    </contour>
    <contour>
      <point x="956.26" y="408.96" type="line"/>
      <point x="856.0400000000001" y="323.59" type="line"/>
      <point x="1082.02" y="109.535" type="line"/>
      <point x="1175.8850000000002" y="201.26000000000002" type="line"/>
    </contour>
    <contour>
      <point x="422.35999999999996" y="317.45000000000005" type="line"/>
      <point x="332.20500000000004" y="412.885" type="line"/>
      <point x="108.655" y="201.26000000000002" type="line"/>
      <point x="202.52" y="109.535" type="line"/>
    </contour>
    <contour>
      <point x="318.0" y="835.49" type="line"/>
      <point x="421.35999999999996" y="917.72" type="line"/>
      <point x="202.52" y="1125.42" type="line"/>
      <point x="108.655" y="1033.695" type="line"/>
    </contour>
    <contour>
      <point x="862.5350000000001" y="917.075" type="line"/>
      <point x="960.83" y="829.78" type="line"/>
      <point x="1175.885" y="1033.695" type="line"/>
      <point x="1082.02" y="1125.42" type="line"/>
    </contour>
  </outline>
</glyph>
<glyph name="yen" format="2">
  <advance width="1517.0449999999998"/>
  <unicode hex="00A5"/>
  <anchor x="756.485" y="0.0" name="bottom"/>
  <anchor x="756.485" y="1278.0" name="top"/>
  <anchor x="20.0" y="1278.0" name="topleft"/>
  <outline>
    <contour>
      <point x="882.5899999999999" y="562.35" type="line"/>
      <point x="1360.5400000000002" y="562.35" type="line"/>
      <point x="1373.035" y="688.5500000000001" type="line"/>
      <point x="921.0749999999999" y="688.5500000000001" type="line"/>
    </contour>
    <contour>
      <point x="159.85999999999999" y="376.24" type="line"/>
      <point x="146.57999999999998" y="250.04" type="line"/>
      <point x="1360.5400000000002" y="250.04" type="line"/>
      <point x="1373.035" y="376.24" type="line"/>
    </contour>
    <contour>
      <point x="600.3900000000001" y="688.5500000000001" type="line"/>
      <point x="159.85999999999999" y="688.5500000000001" type="line"/>
      <point x="146.57999999999998" y="562.35" type="line"/>
      <point x="638.875" y="562.35" type="line"/>
    </contour>
    <component base="Y" xOffset="6.661338147750939e-16"/>
  </outline>
</glyph>
<glyph name="brokenbar" format="2">
  <advance width="603.4"/>
  <unicode hex="00A6"/>
  <outline>
    <contour>
      <point x="381.715" y="587.15" type="line"/>
      <point x="381.715" y="1415.0" type="line"/>
      <point x="221.685" y="1415.0" type="line"/>
      <point x="221.685" y="587.15" type="line"/>
    </contour>
    <contour>
      <point x="381.715" y="-449.29999999999995" type="line"/>
      <point x="381.715" y="378.54999999999995" type="line"/>
      <point x="221.685" y="378.54999999999995" type="line"/>
      <point x="221.685" y="-449.29999999999995" type="line"/>
    </contour>
  </outline>
</glyph>
<glyph name="section" format="2">
  <advance width="1297.935"/>
  <unicode hex="00A7"/>
  <outline>
    <contour>
      <point x="787.6850000000001" y="421.68" type="curve"/>
      <point x="948.0550000000001" y="377.765" type="line"/>
      <point x="948.055" y="418.035" type="line"/>
      <point x="1082.12" y="431.40000000000003"/>
      <point x="1162.1950000000002" y="503.185"/>
      <point x="1162.1950000000002" y="621.755" type="curve" smooth="yes"/>
      <point x="1162.1950000000002" y="621.755" type="line" smooth="yes"/>
      <point x="1160.98" y="795.755"/>
      <point x="1024.7749999999999" y="853.12"/>
      <point x="665.625" y="883.11" type="curve" smooth="yes"/>
      <point x="381.715" y="906.605"/>
      <point x="312.47" y="934.1850000000001"/>
      <point x="312.47" y="1031.31" type="curve" smooth="yes"/>
      <point x="312.47" y="1031.31" type="line" smooth="yes"/>
      <point x="312.47" y="1114.135"/>
      <point x="389.435" y="1165.09"/>
      <point x="615.28" y="1165.09" type="curve" smooth="yes"/>
      <point x="821.72" y="1165.09"/>
      <point x="990.7099999999999" y="1114.725"/>
      <point x="1114.27" y="1049.6499999999999" type="curve"/>
      <point x="1093.925" y="1201.69" type="line"/>
      <point x="989.01" y="1254.625"/>
      <point x="820.0849999999999" y="1304.065"/>
      <point x="601.58" y="1304.065" type="curve" smooth="yes"/>
      <point x="285.08500000000004" y="1304.065"/>
      <point x="136.52499999999998" y="1213.355"/>
      <point x="136.52499999999998" y="1033.665" type="curve" smooth="yes"/>
      <point x="136.52499999999998" y="1032.095" type="line" smooth="yes"/>
      <point x="136.52499999999998" y="838.395"/>
      <point x="269.72" y="777.05"/>
      <point x="614.74" y="751.77" type="curve" smooth="yes"/>
      <point x="895.51" y="731.4150000000001"/>
      <point x="990.96" y="697.965"/>
      <point x="990.96" y="581.72" type="curve" smooth="yes"/>
      <point x="990.96" y="581.72" type="line" smooth="yes"/>
      <point x="990.96" y="499.12"/>
      <point x="914.4350000000001" y="444.53"/>
    </contour>
    <contour>
      <point x="509.315" y="786.405" type="curve"/>
      <point x="335.31" y="816.61" type="line"/>
      <point x="335.31" y="785.265" type="line"/>
      <point x="211.655" y="763.7600000000001"/>
      <point x="138.095" y="696.535"/>
      <point x="138.095" y="586.395" type="curve" smooth="yes"/>
      <point x="138.095" y="584.825" type="line" smooth="yes"/>
      <point x="138.095" y="416.61"/>
      <point x="271.3" y="352.53499999999997"/>
      <point x="631.225" y="319.62" type="curve" smooth="yes"/>
      <point x="896.23" y="296.125"/>
      <point x="986.25" y="268.9"/>
      <point x="986.25" y="165.475" type="curve" smooth="yes"/>
      <point x="986.25" y="165.475" type="line" smooth="yes"/>
      <point x="986.25" y="64.64"/>
      <point x="877.2099999999999" y="21.685"/>
      <point x="657.01" y="21.685" type="curve" smooth="yes"/>
      <point x="440.35499999999996" y="21.685"/>
      <point x="259.59000000000003" y="76.76"/>
      <point x="128.73" y="142.555" type="curve"/>
      <point x="148.85999999999999" y="-18.98" type="line"/>
      <point x="258.57" y="-69.56"/>
      <point x="439.27000000000004" y="-120.64500000000001"/>
      <point x="670.7099999999999" y="-120.64500000000001" type="curve" smooth="yes"/>
      <point x="1002.335" y="-120.64500000000001"/>
      <point x="1163.765" y="-27.365"/>
      <point x="1163.765" y="163.12" type="curve" smooth="yes"/>
      <point x="1163.765" y="163.12" type="line" smooth="yes"/>
      <point x="1163.765" y="362.045"/>
      <point x="1032.4950000000001" y="422.32500000000005"/>
      <point x="682.11" y="450.96" type="curve" smooth="yes"/>
      <point x="399.78" y="473.455"/>
      <point x="306.97499999999997" y="516.97"/>
      <point x="306.97499999999997" y="621.7199999999999" type="curve" smooth="yes"/>
      <point x="306.97499999999997" y="621.72" type="line"/>
      <point x="306.97499999999997" y="702.32"/>
      <point x="368.425" y="757.34"/>
    </contour>
  </outline>
</glyph>
<glyph name="copyright" format="2">
  <advance width="1679.97"/>
  <unicode hex="00A9"/>
  <outline>
    <contour>
      <point x="839.485" y="-30.42" type="curve" smooth="yes"/>
      <point x="1299.68" y="-30.42"/>
      <point x="1561.52" y="211.43"/>
      <point x="1561.52" y="632.9250000000001" type="curve" smooth="yes"/>
      <point x="1561.52" y="651.57" type="line" smooth="yes"/>
      <point x="1561.735" y="1069.925"/>
      <point x="1299.68" y="1308.42"/>
      <point x="839.485" y="1308.42" type="curve" smooth="yes"/>
      <point x="380.29" y="1308.42"/>
      <point x="118.45" y="1069.925"/>
      <point x="118.45" y="651.57" type="curve" smooth="yes"/>
      <point x="118.45" y="632.9250000000001" type="line" smooth="yes"/>
      <point x="118.45" y="211.43"/>
      <point x="380.29" y="-30.42"/>
    </contour>
    <contour>
      <point x="871.625" y="312.86" type="curve" smooth="yes"/>
      <point x="1003.6450000000001" y="312.86"/>
      <point x="1093.7849999999999" y="347.29999999999995"/>
      <point x="1149.2800000000002" y="381.59000000000003" type="curve"/>
      <point x="1160.1299999999999" y="496.95" type="line"/>
      <point x="1095.495" y="456.445"/>
      <point x="1011.99" y="421.435"/>
      <point x="890.6800000000001" y="421.435" type="curve" smooth="yes"/>
      <point x="720.435" y="421.435"/>
      <point x="630.415" y="496.53"/>
      <point x="630.415" y="634.785" type="curve" smooth="yes"/>
      <point x="630.415" y="646.86" type="line" smooth="yes"/>
      <point x="630.415" y="784.115"/>
      <point x="719.295" y="856.995"/>
      <point x="885.3249999999999" y="856.995" type="curve" smooth="yes"/>
      <point x="1006.485" y="856.995"/>
      <point x="1090.7749999999999" y="821.63"/>
      <point x="1152.915" y="781.695" type="curve"/>
      <point x="1141.2799999999997" y="896.485" type="line"/>
      <point x="1089.2150000000001" y="928.13"/>
      <point x="1000.43" y="964.0"/>
      <point x="870.84" y="964.0" type="curve" smooth="yes"/>
      <point x="630.495" y="964.0"/>
      <point x="501.355" y="851.0749999999999"/>
      <point x="501.355" y="647.43" type="curve" smooth="yes"/>
      <point x="501.355" y="634.7850000000001" type="line" smooth="yes"/>
      <point x="501.355" y="427.0"/>
      <point x="630.28" y="312.86"/>
    </contour>
    <contour>
      <point x="839.485" y="73.44500000000001" type="curve" smooth="yes"/>
      <point x="456.24" y="73.44500000000001"/>
      <point x="242.01500000000001" y="276.39"/>
      <point x="242.01500000000001" y="633.71" type="curve" smooth="yes"/>
      <point x="242.01500000000001" y="650.785" type="line" smooth="yes"/>
      <point x="242.01500000000001" y="1005.9649999999999"/>
      <point x="456.24" y="1204.555"/>
      <point x="839.485" y="1204.555" type="curve" smooth="yes"/>
      <point x="1223.7299999999998" y="1204.555"/>
      <point x="1437.955" y="1005.9649999999999"/>
      <point x="1437.955" y="650.785" type="curve" smooth="yes"/>
      <point x="1437.955" y="633.71" type="line" smooth="yes"/>
      <point x="1437.955" y="276.39"/>
      <point x="1223.7299999999998" y="73.44500000000001"/>
    </contour>
  </outline>
</glyph>
<glyph name="ordfeminine" format="2">
  <advance width="890.6"/>
  <unicode hex="00AA"/>
  <outline>
    <contour>
      <point x="630.6500000000001" y="645.0749999999999" type="line"/>
      <point x="759.0649999999999" y="645.0749999999999" type="line"/>
      <point x="759.0649999999999" y="1028.02" type="line" smooth="yes"/>
      <point x="759.0649999999999" y="1174.525"/>
      <point x="679.0550000000001" y="1294.43"/>
      <point x="444.59" y="1294.43" type="curve" smooth="yes"/>
      <point x="303.075" y="1294.43"/>
      <point x="203.07500000000002" y="1251.2050000000002"/>
      <point x="139.3" y="1215.42" type="curve"/>
      <point x="126.665" y="1106.6299999999999" type="line"/>
      <point x="202.08499999999998" y="1145.705"/>
      <point x="299.805" y="1188.07"/>
      <point x="422.75" y="1188.07" type="curve" smooth="yes"/>
      <point x="571.415" y="1188.07"/>
      <point x="634.79" y="1132.0500000000002"/>
      <point x="634.79" y="1031.59" type="curve"/>
      <point x="634.79" y="983.375" type="line"/>
      <point x="634.79" y="839.655" type="line"/>
      <point x="636.005" y="822.805" type="line"/>
    </contour>
    <contour>
      <point x="335.67499999999995" y="628.29" type="curve" smooth="yes"/>
      <point x="518.565" y="628.29"/>
      <point x="601.25" y="706.75"/>
      <point x="632.66" y="805.63" type="curve"/>
      <point x="657.36" y="805.63" type="line"/>
      <point x="640.5749999999999" y="902.4200000000001" type="line"/>
      <point x="613.295" y="808.82"/>
      <point x="512.06" y="737.005"/>
      <point x="375.075" y="737.005" type="curve" smooth="yes"/>
      <point x="277.325" y="737.005"/>
      <point x="224.08" y="767.595"/>
      <point x="224.08" y="826.27" type="curve" smooth="yes"/>
      <point x="224.08" y="830.915" type="line" smooth="yes"/>
      <point x="224.08" y="900.3100000000001"/>
      <point x="279.89500000000004" y="921.61"/>
      <point x="401.235" y="931.47" type="curve" smooth="yes"/>
      <point x="649.5" y="951.6850000000001" type="line"/>
      <point x="646.1450000000001" y="1041.7" type="line"/>
      <point x="381.75" y="1021.27" type="line" smooth="yes"/>
      <point x="192.58999999999997" y="1006.27"/>
      <point x="90.955" y="955.7"/>
      <point x="90.955" y="820.495" type="curve" smooth="yes"/>
      <point x="90.955" y="813.495" type="line" smooth="yes"/>
      <point x="90.955" y="695.355"/>
      <point x="182.46" y="628.29"/>
    </contour>
  </outline>
</glyph>
<glyph name="logicalnot" format="2">
  <advance width="1352.1599999999999"/>
  <unicode hex="00AC"/>
  <outline>
    <contour>
      <point x="1193.635" y="90.65499999999999" type="line"/>
      <point x="1193.635" y="626.485" type="line"/>
      <point x="1043.025" y="626.485" type="line"/>
      <point x="1043.025" y="90.65499999999999" type="line"/>
    </contour>
    <contour>
      <point x="146.375" y="537.91" type="line"/>
      <point x="1193.635" y="537.91" type="line"/>
      <point x="1193.635" y="677.1" type="line"/>
      <point x="146.375" y="677.1" type="line"/>
    </contour>
  </outline>
</glyph>
<glyph name="registered" format="2">
  <advance width="1018.235"/>
  <unicode hex="00AE"/>
  <outline>
    <contour>
      <point x="510.01" y="527.095" type="curve" smooth="yes"/>
      <point x="785.3549999999999" y="527.095"/>
      <point x="949.635" y="667.515"/>
      <point x="949.635" y="911.4399999999999" type="curve" smooth="yes"/>
      <point x="949.635" y="916.4399999999999" type="line" smooth="yes"/>
      <point x="949.635" y="1160.15"/>
      <point x="785.3549999999999" y="1299.785"/>
      <point x="510.01" y="1299.785" type="curve" smooth="yes"/>
      <point x="233.66500000000002" y="1299.785"/>
      <point x="68.6" y="1160.15"/>
      <point x="68.6" y="916.4399999999999" type="curve" smooth="yes"/>
      <point x="68.6" y="911.4399999999999" type="line" smooth="yes"/>
      <point x="68.6" y="667.515"/>
      <point x="233.66500000000002" y="527.095"/>
    </contour>
    <contour>
      <point x="510.01" y="600.13" type="curve" smooth="yes"/>
      <point x="282.14" y="600.13"/>
      <point x="154.83999999999997" y="709.4200000000001"/>
      <point x="154.83999999999997" y="912.4399999999999" type="curve" smooth="yes"/>
      <point x="154.83999999999997" y="917.225" type="line" smooth="yes"/>
      <point x="154.83999999999997" y="1118.675"/>
      <point x="281.92499999999995" y="1226.75"/>
      <point x="510.01" y="1226.75" type="curve" smooth="yes"/>
      <point x="736.88" y="1226.75"/>
      <point x="863.395" y="1118.675"/>
      <point x="863.395" y="917.225" type="curve" smooth="yes"/>
      <point x="863.395" y="912.4399999999999" type="line" smooth="yes"/>
      <point x="863.395" y="709.6350000000001"/>
      <point x="737.095" y="600.13"/>
    </contour>
    <contour>
      <point x="631.975" y="732.72" type="line"/>
      <point x="715.645" y="732.72" type="line"/>
      <point x="700.2149999999999" y="798.2249999999999" type="line" smooth="yes"/>
      <point x="686.215" y="857.01"/>
      <point x="666.215" y="895.73"/>
      <point x="591.0649999999999" y="899.87" type="curve"/>
      <point x="608.355" y="891.085" type="line"/>
      <point x="608.355" y="900.935" type="line"/>
      <point x="675.29" y="903.935"/>
      <point x="708.72" y="938.225"/>
      <point x="708.72" y="993.795" type="curve" smooth="yes"/>
      <point x="708.72" y="998.01" type="line" smooth="yes"/>
      <point x="708.72" y="1064.1499999999999"/>
      <point x="664.01" y="1103.58"/>
      <point x="565.235" y="1103.58" type="curve" smooth="yes"/>
      <point x="388.925" y="1103.58" type="line"/>
      <point x="388.925" y="1042.965" type="line"/>
      <point x="550.105" y="1042.965" type="line" smooth="yes"/>
      <point x="604.115" y="1042.965"/>
      <point x="626.8349999999999" y="1021.03"/>
      <point x="626.8349999999999" y="985.02" type="curve" smooth="yes"/>
      <point x="626.8349999999999" y="981.805" type="line" smooth="yes"/>
      <point x="626.8349999999999" y="945.01"/>
      <point x="604.115" y="921.4300000000001"/>
      <point x="551.32" y="921.4300000000001" type="curve" smooth="yes"/>
      <point x="388.925" y="920.6450000000001" type="line"/>
      <point x="388.925" y="861.815" type="line"/>
      <point x="530.8149999999999" y="861.815" type="line" smooth="yes"/>
      <point x="590.61" y="861.815"/>
      <point x="607.6850000000001" y="840.45"/>
      <point x="619.9" y="786.59" type="curve" smooth="yes"/>
    </contour>
    <contour>
      <point x="339.45000000000005" y="732.72" type="line"/>
      <point x="418.98" y="732.72" type="line"/>
      <point x="418.98" y="869.6" type="line"/>
      <point x="418.98" y="894.945" type="line"/>
      <point x="418.98" y="1103.58" type="line"/>
      <point x="339.45000000000005" y="1103.58" type="line"/>
    </contour>
  </outline>
</glyph>
<glyph name="degree" format="2">
  <advance width="802.7"/>
  <unicode hex="00B0"/>
  <outline>
    <contour>
      <point x="400.85" y="750.75" type="curve" smooth="yes"/>
      <point x="592.4" y="750.75"/>
      <point x="701.3900000000001" y="861.6"/>
      <point x="701.3900000000001" y="1027.3" type="curve" smooth="yes"/>
      <point x="701.3900000000001" y="1032.87" type="line" smooth="yes"/>
      <point x="701.3900000000001" y="1198.57"/>
      <point x="592.4" y="1308.42"/>
      <point x="400.85" y="1308.42" type="curve" smooth="yes"/>
      <point x="210.29999999999998" y="1308.42"/>
      <point x="101.31" y="1198.57"/>
      <point x="101.31" y="1032.87" type="curve" smooth="yes"/>
      <point x="101.31" y="1027.3" type="line" smooth="yes"/>
      <point x="101.31" y="861.6"/>
      <point x="210.29999999999998" y="750.75"/>
    </contour>
    <contour>
      <point x="400.85" y="869.53" type="curve" smooth="yes"/>
      <point x="296.88500000000005" y="869.53"/>
      <point x="237.22" y="932.1949999999999"/>
      <point x="237.22" y="1027.3" type="curve" smooth="yes"/>
      <point x="237.22" y="1032.085" type="line" smooth="yes"/>
      <point x="237.22" y="1127.9750000000001"/>
      <point x="296.88500000000005" y="1189.6399999999999"/>
      <point x="400.85" y="1189.6399999999999" type="curve" smooth="yes"/>
      <point x="505.6" y="1189.6399999999999"/>
      <point x="565.265" y="1127.9750000000001"/>
      <point x="565.265" y="1032.085" type="curve" smooth="yes"/>
      <point x="565.265" y="1027.3" type="line" smooth="yes"/>
      <point x="565.265" y="932.1949999999999"/>
      <point x="505.6" y="869.53"/>
    </contour>
  </outline>
</glyph>
<glyph name="plusminus" format="2">
  <advance width="1370.16"/>
  <unicode hex="00B1"/>
  <outline>
    <contour>
      <point x="161.45" y="80.975" type="line"/>
      <point x="1208.71" y="80.975" type="line"/>
      <point x="1208.71" y="218.95" type="line"/>
      <point x="161.45" y="218.95" type="line"/>
    </contour>
    <contour>
      <point x="761.67" y="367.345" type="line"/>
      <point x="761.67" y="1187.345" type="line"/>
      <point x="608.7049999999999" y="1187.345" type="line"/>
      <point x="608.7049999999999" y="367.345" type="line"/>
    </contour>
    <contour>
      <point x="161.45" y="708.75" type="line"/>
      <point x="1208.71" y="708.75" type="line"/>
      <point x="1208.71" y="845.94" type="line"/>
      <point x="161.45" y="845.94" type="line"/>
    </contour>
  </outline>
</glyph>
<glyph name="twosuperior" format="2">
  <advance width="823.73"/>
  <unicode hex="00B2"/>
  <outline>
    <contour>
      <point x="53.085" y="750.785" type="line"/>
      <point x="762.645" y="750.785" type="line"/>
      <point x="762.645" y="866.9949999999999" type="line"/>
      <point x="206.545" y="865.78" type="line"/>
      <point x="299.04499999999996" y="841.51" type="line"/>
      <point x="299.04499999999996" y="870.135" type="line"/>
      <point x="466.65" y="944.1850000000001" type="line" smooth="yes"/>
      <point x="654.1750000000001" y="1026.485"/>
      <point x="746.355" y="1095.6999999999998"/>
      <point x="746.355" y="1222.075" type="curve" smooth="yes"/>
      <point x="746.355" y="1228.645" type="line" smooth="yes"/>
      <point x="746.355" y="1365.355"/>
      <point x="624.4300000000001" y="1441.065"/>
      <point x="406.515" y="1441.065" type="curve" smooth="yes"/>
      <point x="284.44" y="1441.065"/>
      <point x="148.14999999999998" y="1407.775"/>
      <point x="71.505" y="1366.335" type="curve"/>
      <point x="58.085" y="1250.265" type="line"/>
      <point x="157.02" y="1294.565"/>
      <point x="267.89" y="1327.9950000000001"/>
      <point x="392.955" y="1327.9950000000001" type="curve" smooth="yes"/>
      <point x="535.06" y="1327.9950000000001"/>
      <point x="601.025" y="1291.05"/>
      <point x="601.025" y="1212.73" type="curve" smooth="yes"/>
      <point x="601.025" y="1210.5149999999999" type="line" smooth="yes"/>
      <point x="601.025" y="1122.69"/>
      <point x="490.57500000000005" y="1066.325"/>
      <point x="354.74" y="1005.585" type="curve" smooth="yes"/>
      <point x="53.085" y="871.9300000000001" type="line"/>
    </contour>
  </outline>
</glyph>
<glyph name="threesuperior" format="2">
  <advance width="867.0949999999999"/>
  <unicode hex="00B3"/>
  <outline>
    <contour>
      <point x="418.375" y="732.9350000000001" type="curve" smooth="yes"/>
      <point x="674.225" y="732.9350000000001"/>
      <point x="797.365" y="809.29"/>
      <point x="797.365" y="937.065" type="curve" smooth="yes"/>
      <point x="797.365" y="945.28" type="line" smooth="yes"/>
      <point x="797.365" y="1036.785"/>
      <point x="737.495" y="1089.2250000000001"/>
      <point x="605.1550000000001" y="1102.7849999999999" type="curve"/>
      <point x="610.445" y="1091.0" type="line"/>
      <point x="610.445" y="1105.4199999999998" type="line"/>
      <point x="731.2049999999999" y="1116.055"/>
      <point x="789.505" y="1169.8500000000001"/>
      <point x="789.505" y="1254.0" type="curve" smooth="yes"/>
      <point x="789.505" y="1260.215" type="line" smooth="yes"/>
      <point x="789.505" y="1376.205"/>
      <point x="673.515" y="1440.065"/>
      <point x="431.88" y="1440.065" type="curve" smooth="yes"/>
      <point x="274.29" y="1440.065"/>
      <point x="153.43" y="1409.27"/>
      <point x="80.44" y="1378.625" type="curve"/>
      <point x="66.805" y="1269.05" type="line"/>
      <point x="146.80499999999998" y="1298.63"/>
      <point x="267.515" y="1329.3500000000001"/>
      <point x="418.46" y="1329.3500000000001" type="curve" smooth="yes"/>
      <point x="586.6400000000001" y="1329.3500000000001"/>
      <point x="641.8199999999999" y="1297.545"/>
      <point x="641.8199999999999" y="1241.1599999999999" type="curve" smooth="yes"/>
      <point x="641.8199999999999" y="1238.73" type="line" smooth="yes"/>
      <point x="641.8199999999999" y="1185.205"/>
      <point x="592.585" y="1151.11"/>
      <point x="459.375" y="1149.3249999999998" type="curve" smooth="yes"/>
      <point x="216.60999999999999" y="1145.185" type="line"/>
      <point x="216.60999999999999" y="1046.3200000000002" type="line"/>
      <point x="459.16" y="1042.75" type="line" smooth="yes"/>
      <point x="629.11" y="1040.75"/>
      <point x="648.1100000000001" y="995.28"/>
      <point x="648.1100000000001" y="952.3449999999999" type="curve" smooth="yes"/>
      <point x="648.1100000000001" y="948.9150000000001" type="line" smooth="yes"/>
      <point x="648.1100000000001" y="885.595"/>
      <point x="587.21" y="844.4350000000001"/>
      <point x="403.105" y="844.4350000000001" type="curve" smooth="yes"/>
      <point x="270.235" y="844.4350000000001"/>
      <point x="143.945" y="873.9399999999999"/>
      <point x="62.805" y="901.445" type="curve"/>
      <point x="76.22500000000001" y="784.375" type="line"/>
      <point x="141.07500000000002" y="764.515"/>
      <point x="262.58" y="732.9350000000001"/>
    </contour>
  </outline>
</glyph>
<glyph name="micro" format="2">
  <advance width="1424.27"/>
  <unicode hex="00B5"/>
  <outline>
    <contour>
      <point x="1255.24" y="956.71" type="line"/>
      <point x="1075.94" y="956.71" type="line"/>
      <point x="1075.94" y="309.00999999999993" type="line"/>
      <point x="1083.865" y="287.815" type="line"/>
      <point x="1075.94" y="0.0" type="line"/>
      <point x="1255.24" y="0.0" type="line"/>
    </contour>
    <contour>
      <point x="347.47" y="463.89500000000004" type="curve" smooth="yes"/>
      <point x="348.33000000000004" y="956.71" type="line"/>
      <point x="169.03" y="956.71" type="line"/>
      <point x="169.03" y="-338.0" type="line"/>
      <point x="346.76000000000005" y="-338.0" type="line"/>
      <point x="346.76000000000005" y="-203.96" type="line"/>
      <point x="337.19" y="186.23" type="line"/>
      <point x="343.825" y="186.23000000000002" type="line"/>
      <point x="396.89" y="40.684999999999995"/>
      <point x="517.66" y="-28.14"/>
      <point x="694.13" y="-28.14" type="curve" smooth="yes"/>
      <point x="917.63" y="-28.14"/>
      <point x="1045.325" y="112.405"/>
      <point x="1078.2400000000002" y="270.22999999999996" type="curve"/>
      <point x="1113.145" y="270.22999999999996" type="line"/>
      <point x="1085.3700000000001" y="405.99" type="line"/>
      <point x="1050.23" y="247.07999999999998"/>
      <point x="909.255" y="120.47"/>
      <point x="698.3449999999999" y="120.47" type="curve" smooth="yes"/>
      <point x="493.55" y="120.47"/>
      <point x="347.47" y="227.555"/>
    </contour>
  </outline>
</glyph>
<glyph name="paragraph" format="2">
  <advance width="912.93"/>
  <unicode hex="00B6"/>
  <outline>
    <contour>
      <point x="462.20500000000004" y="658.515" type="curve"/>
      <point x="576.15" y="658.515" type="line"/>
      <point x="574.9350000000001" y="1278.0" type="line"/>
      <point x="462.205" y="1278.0" type="line" smooth="yes"/>
      <point x="217.01" y="1278.0"/>
      <point x="102.805" y="1161.57"/>
      <point x="102.805" y="975.795" type="curve" smooth="yes"/>
      <point x="102.805" y="960.935" type="line" smooth="yes"/>
      <point x="102.805" y="776.515"/>
      <point x="217.01" y="658.515"/>
    </contour>
    <contour>
      <point x="716.9649999999999" y="0.0" type="line"/>
      <point x="716.9649999999999" y="1278.0" type="line"/>
      <point x="537.2349999999999" y="1278.0" type="line"/>
      <point x="537.2349999999999" y="0.0" type="line"/>
    </contour>
  </outline>
</glyph>
<glyph name="onesuperior" format="2">
  <advance width="539.635"/>
  <unicode hex="00B9"/>
  <outline>
    <contour>
      <point x="290.555" y="750.785" type="line"/>
      <point x="429.17499999999995" y="750.785" type="line"/>
      <point x="429.17499999999995" y="1423.5700000000002" type="line"/>
      <point x="294.74999999999994" y="1423.5700000000002" type="line"/>
      <point x="47.010000000000005" y="1310.755" type="line"/>
      <point x="41.085" y="1188.19" type="line"/>
      <point x="282.77000000000004" y="1296.585" type="line"/>
      <point x="290.555" y="1296.585" type="line"/>
    </contour>
  </outline>
</glyph>
<glyph name="ordmasculine" format="2">
  <advance width="901.655"/>
  <unicode hex="00BA"/>
  <outline>
    <contour>
      <point x="450.935" y="629.29" type="curve" smooth="yes"/>
      <point x="689.71" y="629.29"/>
      <point x="823.635" y="742.43"/>
      <point x="823.635" y="952.215" type="curve" smooth="yes"/>
      <point x="823.635" y="972.505" type="line" smooth="yes"/>
      <point x="823.635" y="1181.29"/>
      <point x="690.71" y="1295.215"/>
      <point x="450.935" y="1295.215" type="curve" smooth="yes"/>
      <point x="211.945" y="1295.215"/>
      <point x="78.02" y="1181.29"/>
      <point x="78.02" y="972.505" type="curve" smooth="yes"/>
      <point x="78.02" y="952.215" type="line" smooth="yes"/>
      <point x="78.02" y="743.43"/>
      <point x="210.94500000000002" y="629.29"/>
    </contour>
    <contour>
      <point x="450.935" y="738.79" type="curve" smooth="yes"/>
      <point x="299.885" y="738.79"/>
      <point x="215.07" y="813.1"/>
      <point x="215.07" y="953.785" type="curve" smooth="yes"/>
      <point x="215.07" y="971.72" type="line" smooth="yes"/>
      <point x="215.07" y="1111.6200000000001"/>
      <point x="299.885" y="1185.715"/>
      <point x="450.935" y="1185.715" type="curve" smooth="yes"/>
      <point x="601.985" y="1185.715"/>
      <point x="686.585" y="1111.6200000000001"/>
      <point x="686.585" y="971.72" type="curve" smooth="yes"/>
      <point x="686.585" y="953.785" type="line" smooth="yes"/>
      <point x="686.585" y="813.1"/>
      <point x="600.77" y="738.79"/>
    </contour>
  </outline>
</glyph>
<glyph name="guillemetright" format="2">
  <advance width="1292.5249999999999"/>
  <unicode hex="00BB"/>
  <outline>
    <contour>
      <point x="461.315" y="474.78499999999997" type="line"/>
      <point x="48.105000000000004" y="78.44" type="line"/>
      <point x="247.19" y="78.44" type="line"/>
      <point x="646.3900000000001" y="456.28000000000003" type="line"/>
      <point x="646.3900000000001" y="502.71" type="line"/>
      <point x="247.19" y="871.13" type="line"/>
      <point x="48.105000000000004" y="871.13" type="line"/>
    </contour>
    <contour>
      <point x="1023.065" y="474.78499999999997" type="line"/>
      <point x="609.855" y="78.44" type="line"/>
      <point x="808.94" y="78.44" type="line"/>
      <point x="1208.1399999999999" y="456.28000000000003" type="line"/>
      <point x="1208.1399999999999" y="502.71" type="line"/>
      <point x="808.94" y="871.13" type="line"/>
      <point x="609.855" y="871.13" type="line"/>
    </contour>
  </outline>
</glyph>
<glyph name="questiondown" format="2">
  <advance width="1284.365"/>
  <unicode hex="00BF"/>
  <outline>
    <contour>
      <point x="858.38" y="528.325" type="line"/>
      <point x="745.9599999999999" y="520.895" type="line" smooth="yes"/>
      <point x="331.06500000000005" y="493.39"/>
      <point x="108.095" y="353.455"/>
      <point x="108.095" y="69.13" type="curve" smooth="yes"/>
      <point x="108.095" y="55.269999999999996" type="line" smooth="yes"/>
      <point x="108.095" y="-204.57"/>
      <point x="283.57" y="-346.14"/>
      <point x="657.625" y="-346.14" type="curve" smooth="yes"/>
      <point x="899.0" y="-346.14"/>
      <point x="1088.785" y="-271.98"/>
      <point x="1189.57" y="-213.89499999999998" type="curve"/>
      <point x="1211.055" y="-54.14499999999999" type="line"/>
      <point x="1069.645" y="-129.79999999999998"/>
      <point x="878.71" y="-195.53"/>
      <point x="669.4" y="-195.53" type="curve" smooth="yes"/>
      <point x="392.48999999999995" y="-195.53"/>
      <point x="292.675" y="-99.14500000000001"/>
      <point x="292.675" y="58.410000000000004" type="curve" smooth="yes"/>
      <point x="292.675" y="69.69999999999999" type="line" smooth="yes"/>
      <point x="292.675" y="253.46"/>
      <point x="440.5" y="350.35"/>
      <point x="756.1" y="375.425" type="curve" smooth="yes"/>
      <point x="858.38" y="383.425" type="line"/>
    </contour>
    <contour>
      <point x="764.0" y="977.775" type="curve" smooth="yes"/>
      <point x="681.2549999999999" y="977.775"/>
      <point x="641.4150000000001" y="937.01"/>
      <point x="641.4150000000001" y="869.04" type="curve" smooth="yes"/>
      <point x="641.4150000000001" y="865.04" type="line" smooth="yes"/>
      <point x="641.4150000000001" y="797.285"/>
      <point x="681.2549999999999" y="756.735"/>
      <point x="764.0" y="756.735" type="curve" smooth="yes"/>
      <point x="844.53" y="756.735"/>
      <point x="885.37" y="797.285"/>
      <point x="885.37" y="865.04" type="curve" smooth="yes"/>
      <point x="885.37" y="869.04" type="line" smooth="yes"/>
      <point x="885.37" y="937.01"/>
      <point x="844.53" y="977.775"/>
    </contour>
  </outline>
</glyph>
<glyph name="AE" format="2">
  <advance width="2490.67"/>
  <unicode hex="00C6"/>
  <anchor x="1246.1200000000001" y="0.0" name="bottom"/>
  <anchor x="1246.1200000000001" y="1278.0" name="top"/>
  <outline>
    <contour>
      <point x="59.03" y="0.0" type="line"/>
      <point x="267.52500000000003" y="0.0" type="line"/>
      <point x="1153.56" y="1161.22" type="line"/>
      <point x="1265.8300000000002" y="1161.22" type="line"/>
      <point x="1267.4" y="1278.0" type="line"/>
      <point x="1035.3600000000001" y="1278.0" type="line"/>
    </contour>
    <contour>
      <point x="483.795" y="379.425" type="line"/>
      <point x="1227.57" y="379.425" type="line"/>
      <point x="1227.57" y="528.035" type="line"/>
      <point x="483.795" y="528.035" type="line"/>
    </contour>
    <contour>
      <point x="1229.365" y="0.0" type="line"/>
      <point x="2357.865" y="0.0" type="line"/>
      <point x="2357.865" y="149.395" type="line"/>
      <point x="1229.365" y="149.395" type="line"/>
    </contour>
    <contour>
      <point x="1216.0" y="0.0" type="line"/>
      <point x="1396.3000000000002" y="0.0" type="line"/>
      <point x="1396.3000000000002" y="1278.0" type="line"/>
      <point x="1216.0" y="1278.0" type="line"/>
    </contour>
    <contour>
      <point x="1310.22" y="576.3399999999999" type="line"/>
      <point x="2321.295" y="576.3399999999999" type="line"/>
      <point x="2321.295" y="723.38" type="line"/>
      <point x="1310.22" y="723.38" type="line"/>
    </contour>
    <contour>
      <point x="1229.365" y="1128.605" type="line"/>
      <point x="2344.725" y="1128.605" type="line"/>
      <point x="2344.725" y="1278.0" type="line"/>
      <point x="1229.365" y="1278.0" type="line"/>
    </contour>
  </outline>
</glyph>
<glyph name="Eth" format="2">
  <advance width="1630.915"/>
  <unicode hex="00D0"/>
  <anchor x="797.14" y="0.0" name="bottom"/>
  <anchor x="815.85" y="639.0" name="center"/>
  <anchor x="797.14" y="1278.0" name="top"/>
  <outline>
    <contour>
      <point x="-3.6449999999999996" y="584.6949999999999" type="line"/>
      <point x="855.925" y="583.91" type="line"/>
      <point x="855.925" y="719.96" type="line"/>
      <point x="-3.6449999999999996" y="720.745" type="line"/>
    </contour>
    <component base="D"/>
  </outline>
</glyph>
<glyph name="multiply" format="2">
  <advance width="1341.365"/>
  <unicode hex="00D7"/>
  <outline>
    <contour>
      <point x="1161.11" y="229.11" type="line"/>
      <point x="287.54" y="1076.84" type="line"/>
      <point x="184.82500000000002" y="977.265" type="line"/>
      <point x="1058.395" y="129.535" type="line"/>
    </contour>
    <contour>
      <point x="180.255" y="229.11" type="line"/>
      <point x="282.97" y="129.535" type="line"/>
      <point x="1156.5400000000002" y="977.265" type="line"/>
      <point x="1053.825" y="1076.84" type="line"/>
    </contour>
  </outline>
</glyph>
<glyph name="Oslash" format="2">
  <advance width="1685.185"/>
  <unicode hex="00D8"/>
  <anchor x="842.6999999999999" y="0.0" name="bottom"/>
  <anchor x="842.6999999999999" y="639.785" name="center"/>
  <anchor x="1517.045" y="10.785" name="ogonek"/>
  <anchor x="842.6999999999999" y="1278.0" name="top"/>
  <anchor x="20.0" y="1278.785" name="topleft"/>
  <anchor x="1665.185" y="1278.785" name="topright"/>
  <outline>
    <contour>
      <point x="842.4849999999999" y="-30.42" type="curve" smooth="yes"/>
      <point x="1312.5300000000002" y="-30.42"/>
      <point x="1566.735" y="209.86"/>
      <point x="1566.735" y="631.355" type="curve" smooth="yes"/>
      <point x="1566.735" y="649.215" type="line" smooth="yes"/>
      <point x="1566.9499999999998" y="1059.43"/>
      <point x="1302.0349999999999" y="1308.42"/>
      <point x="842.4849999999999" y="1308.42" type="curve" smooth="yes"/>
      <point x="372.65500000000003" y="1308.42"/>
      <point x="118.45" y="1069.925"/>
      <point x="118.45" y="649.215" type="curve" smooth="yes"/>
      <point x="118.45" y="631.355" type="line" smooth="yes"/>
      <point x="118.45" y="220.355"/>
      <point x="383.15000000000003" y="-30.42"/>
    </contour>
    <contour>
      <point x="124.535" y="-56.775" type="line"/>
      <point x="318.405" y="-56.775" type="line"/>
      <point x="465.2" y="108.085" type="line"/>
      <point x="487.62" y="133.075" type="line"/>
      <point x="1295.505" y="1036.36" type="line"/>
      <point x="1340.1200000000001" y="1086.685" type="line"/>
      <point x="1560.8649999999998" y="1334.56" type="line"/>
      <point x="1369.3500000000001" y="1334.56" type="line"/>
      <point x="1228.9099999999999" y="1177.625" type="line"/>
      <point x="1205.705" y="1151.065" type="line"/>
      <point x="391.895" y="243.21" type="line"/>
      <point x="343.355" y="188.17499999999998" type="line"/>
    </contour>
    <contour>
      <point x="842.4849999999999" y="121.97500000000001" type="curve" smooth="yes"/>
      <point x="500.34999999999997" y="121.97500000000001"/>
      <point x="309.385" y="311.65000000000003"/>
      <point x="309.385" y="630.57" type="curve" smooth="yes"/>
      <point x="309.385" y="650.0" type="line" smooth="yes"/>
      <point x="309.385" y="974.1349999999999"/>
      <point x="495.35" y="1158.3799999999999"/>
      <point x="842.4849999999999" y="1158.3799999999999" type="curve" smooth="yes"/>
      <point x="1184.0500000000002" y="1158.3799999999999"/>
      <point x="1375.8" y="969.1349999999999"/>
      <point x="1375.8" y="650.0" type="curve" smooth="yes"/>
      <point x="1375.8" y="630.57" type="line" smooth="yes"/>
      <point x="1375.8" y="306.65000000000003"/>
      <point x="1189.05" y="121.97500000000001"/>
    </contour>
  </outline>
</glyph>
<glyph name="Thorn" format="2">
  <advance width="1522.775"/>
  <unicode hex="00DE"/>
  <anchor x="761.495" y="0.0" name="bottom"/>
  <anchor x="761.495" y="1278.0" name="top"/>
  <outline>
    <contour>
      <point x="329.58500000000004" y="217.525" type="line"/>
      <point x="920.46" y="217.525" type="line" smooth="yes"/>
      <point x="1265.7" y="217.525"/>
      <point x="1423.8950000000002" y="378.235"/>
      <point x="1423.8950000000002" y="631.785" type="curve" smooth="yes"/>
      <point x="1423.8950000000002" y="650.86" type="line" smooth="yes"/>
      <point x="1423.8950000000002" y="906.765"/>
      <point x="1265.7" y="1065.69"/>
      <point x="920.4599999999999" y="1065.69" type="curve" smooth="yes"/>
      <point x="322.51" y="1065.69" type="line"/>
      <point x="322.51" y="917.08" type="line"/>
      <point x="920.0300000000001" y="917.08" type="line" smooth="yes"/>
      <point x="1140.08" y="917.08"/>
      <point x="1234.745" y="816.545"/>
      <point x="1234.745" y="650.4300000000001" type="curve" smooth="yes"/>
      <point x="1234.745" y="632.785" type="line" smooth="yes"/>
      <point x="1234.745" y="466.67"/>
      <point x="1140.08" y="366.92"/>
      <point x="920.03" y="366.92" type="curve" smooth="yes"/>
      <point x="329.58500000000004" y="366.92" type="line"/>
    </contour>
    <contour>
      <point x="195.965" y="0.0" type="line"/>
      <point x="377.265" y="0.0" type="line"/>
      <point x="377.265" y="258.71" type="line"/>
      <point x="377.265" y="318.885" type="line"/>
      <point x="377.265" y="959.0500000000001" type="line"/>
      <point x="377.265" y="1022.7199999999999" type="line"/>
      <point x="377.265" y="1278.0" type="line"/>
      <point x="195.965" y="1278.0" type="line"/>
    </contour>
  </outline>
</glyph>
<glyph name="germandbls" format="2">
  <advance width="1462.625"/>
  <unicode hex="00DF"/>
  <anchor x="700.345" y="0.0" name="bottom"/>
  <anchor x="700.345" y="956.71" name="top"/>
  <outline>
    <contour>
      <point x="169.03" y="920.085" type="curve" smooth="yes"/>
      <point x="169.03" y="0.0" type="line"/>
      <point x="347.33" y="0.0" type="line"/>
      <point x="347.33" y="915.515" type="line" smooth="yes"/>
      <point x="347.33" y="1097.6399999999999"/>
      <point x="413.77" y="1209.24"/>
      <point x="641.13" y="1209.24" type="curve" smooth="yes"/>
      <point x="812.62" y="1209.24"/>
      <point x="901.78" y="1150.21"/>
      <point x="901.78" y="1065.535" type="curve" smooth="yes"/>
      <point x="901.78" y="924.84"/>
      <point x="617.515" y="883.805"/>
      <point x="616.515" y="684.655" type="curve" smooth="yes"/>
      <point x="616.515" y="676.01" type="line" smooth="yes"/>
      <point x="616.515" y="529.59"/>
      <point x="711.01" y="470.535"/>
      <point x="938.44" y="432.90000000000003" type="curve" smooth="yes"/>
      <point x="1116.49" y="403.685"/>
      <point x="1189.37" y="377.31"/>
      <point x="1189.37" y="276.26000000000005" type="curve" smooth="yes"/>
      <point x="1189.37" y="268.96999999999997" type="line" smooth="yes"/>
      <point x="1189.37" y="171.07"/>
      <point x="1099.705" y="120.47"/>
      <point x="926.5250000000001" y="120.47" type="curve" smooth="yes"/>
      <point x="799.85" y="120.47"/>
      <point x="697.29" y="146.11499999999998"/>
      <point x="590.28" y="185.05" type="curve"/>
      <point x="609.625" y="28.869999999999997" type="line"/>
      <point x="699.27" y="-0.06500000000000011"/>
      <point x="806.9050000000001" y="-22.645"/>
      <point x="945.365" y="-22.645" type="curve" smooth="yes"/>
      <point x="1206.345" y="-22.645"/>
      <point x="1365.3149999999998" y="73.57"/>
      <point x="1365.3149999999998" y="270.755" type="curve" smooth="yes"/>
      <point x="1365.3149999999998" y="278.615" type="line" smooth="yes"/>
      <point x="1365.3149999999998" y="463.39"/>
      <point x="1254.185" y="521.9599999999999"/>
      <point x="1016.015" y="563.67" type="curve" smooth="yes"/>
      <point x="851.34" y="592.455"/>
      <point x="794.6" y="613.39"/>
      <point x="794.6" y="689.355" type="curve" smooth="yes"/>
      <point x="794.6" y="693.29" type="line" smooth="yes"/>
      <point x="794.6" y="816.63"/>
      <point x="1079.51" y="857.74"/>
      <point x="1079.51" y="1064.965" type="curve"/>
      <point x="1079.51" y="1253.85"/>
      <point x="895.5600000000001" y="1350.0"/>
      <point x="640.345" y="1350.0" type="curve" smooth="yes"/>
      <point x="288.07500000000005" y="1350.0"/>
      <point x="169.03" y="1191.4950000000001"/>
    </contour>
  </outline>
</glyph>
<glyph name="ae" format="2">
  <advance width="2220.7599999999998"/>
  <unicode hex="00E6"/>
  <anchor x="1107.74" y="0.0" name="bottom"/>
  <anchor x="1107.74" y="956.71" name="top"/>
  <outline>
    <contour>
      <point x="1591.685" y="-30.495" type="curve" smooth="yes"/>
      <point x="1793.61" y="-30.495"/>
      <point x="1952.32" y="14.795"/>
      <point x="2077.32" y="91.52499999999999" type="curve"/>
      <point x="2097.235" y="243.64" type="line"/>
      <point x="1955.45" y="161.76"/>
      <point x="1800.6" y="116.545"/>
      <point x="1620.16" y="116.545" type="curve" smooth="yes"/>
      <point x="1294.58" y="116.545"/>
      <point x="1171.81" y="251.005"/>
      <point x="1171.81" y="440.235" type="curve" smooth="yes"/>
      <point x="1171.81" y="479.71000000000004" type="line"/>
      <point x="1171.81" y="493.345" type="line"/>
      <point x="1171.81" y="513.55" type="line" smooth="yes"/>
      <point x="1171.81" y="714.125"/>
      <point x="1303.42" y="845.6600000000001"/>
      <point x="1556.34" y="845.6600000000001" type="curve" smooth="yes"/>
      <point x="1813.97" y="845.6600000000001"/>
      <point x="1947.5049999999999" y="721.18"/>
      <point x="1947.5049999999999" y="522.6999999999999" type="curve" smooth="yes"/>
      <point x="1947.5049999999999" y="488.2900000000001"/>
      <point x="1945.9350000000002" y="448.38500000000005"/>
      <point x="1941.7949999999998" y="417.76" type="curve"/>
      <point x="2109.675" y="417.76" type="line"/>
      <point x="2114.815" y="444.53499999999997"/>
      <point x="2118.74" y="479.29999999999995"/>
      <point x="2118.74" y="511.28000000000003" type="curve" smooth="yes"/>
      <point x="2118.74" y="516.8499999999999" type="line" smooth="yes"/>
      <point x="2118.74" y="798.13"/>
      <point x="1927.46" y="987.205"/>
      <point x="1571.255" y="987.205" type="curve" smooth="yes"/>
      <point x="1309.085" y="987.205"/>
      <point x="1143.29" y="885.4649999999999"/>
      <point x="1085.87" y="709.06" type="curve"/>
      <point x="1080.8149999999998" y="709.92" type="line"/>
      <point x="1042.695" y="875.325"/>
      <point x="915.5350000000001" y="986.42"/>
      <point x="642.515" y="986.42" type="curve" smooth="yes"/>
      <point x="420.205" y="986.42"/>
      <point x="262.775" y="918.475"/>
      <point x="169.075" y="863.83" type="curve"/>
      <point x="149.16" y="713.715" type="line"/>
      <point x="270.0" y="776.2950000000001"/>
      <point x="430.075" y="839.38"/>
      <point x="634.665" y="839.38" type="curve" smooth="yes"/>
      <point x="880.0600000000001" y="839.38"/>
      <point x="993.51" y="745.2750000000001"/>
      <point x="993.51" y="575.365" type="curve"/>
      <point x="995.08" y="492.42999999999995" type="line"/>
      <point x="994.0799999999999" y="442.71"/>
      <point x="997.08" y="365.945"/>
      <point x="1011.36" y="317.955" type="curve"/>
      <point x="1022.995" y="296.46" type="line"/>
      <point x="1081.8450000000003" y="97.15"/>
      <point x="1264.415" y="-30.495"/>
    </contour>
    <contour>
      <point x="498.32000000000005" y="-28.14" type="curve" smooth="yes"/>
      <point x="828.555" y="-28.14"/>
      <point x="970.1650000000001" y="101.33999999999999"/>
      <point x="1045.3400000000001" y="235.39000000000001" type="curve"/>
      <point x="1083.8149999999998" y="235.39000000000001" type="line"/>
      <point x="1016.855" y="364.08500000000004" type="line"/>
      <point x="960.2950000000001" y="230.875"/>
      <point x="803.9" y="118.89999999999999"/>
      <point x="545.14" y="118.89999999999999" type="curve" smooth="yes"/>
      <point x="371.155" y="118.89999999999999"/>
      <point x="273.75" y="172.78"/>
      <point x="273.75" y="272.26" type="curve" smooth="yes"/>
      <point x="273.75" y="280.12" type="line" smooth="yes"/>
      <point x="273.75" y="387.955"/>
      <point x="355.65000000000003" y="426.405"/>
      <point x="593.375" y="444.695" type="curve" smooth="yes"/>
      <point x="1016.9300000000001" y="477.125" type="line"/>
      <point x="1013.7900000000001" y="598.97" type="line"/>
      <point x="579.74" y="567.54" type="line" smooth="yes"/>
      <point x="248.01000000000002" y="543.54"/>
      <point x="94.45" y="464.12"/>
      <point x="94.45" y="264.85" type="curve" smooth="yes"/>
      <point x="94.45" y="254.56" type="line" smooth="yes"/>
      <point x="94.45" y="72.28"/>
      <point x="245.03" y="-28.14"/>
    </contour>
    <contour>
      <point x="1078.02" y="417.76" type="line"/>
      <point x="2074.695" y="417.76" type="line"/>
      <point x="2074.695" y="551.8100000000001" type="line"/>
      <point x="1078.02" y="551.8100000000001" type="line"/>
    </contour>
  </outline>
</glyph>
<glyph name="eth" format="2">
  <advance width="1403.055"/>
  <unicode hex="00F0"/>
  <outline>
    <contour>
      <point x="701.6350000000001" y="-28.925" type="curve" smooth="yes"/>
      <point x="1081.325" y="-28.925"/>
      <point x="1294.9599999999998" y="144.71"/>
      <point x="1294.9599999999998" y="451.29" type="curve"/>
      <point x="1294.9599999999998" y="478.36500000000007" type="line"/>
      <point x="1294.9599999999998" y="888.125"/>
      <point x="977.61" y="1113.8149999999998"/>
      <point x="591.3650000000001" y="1320.075" type="curve"/>
      <point x="336.59999999999997" y="1320.075" type="line"/>
      <point x="336.59999999999997" y="1318.29" type="line"/>
      <point x="762.5749999999999" y="1097.6650000000002"/>
      <point x="1071.7350000000001" y="877.555"/>
      <point x="1104.2400000000002" y="611.165" type="curve"/>
      <point x="1107.38" y="564.915"/>
      <point x="1111.5200000000002" y="537.29"/>
      <point x="1114.66" y="472.19999999999993" type="curve"/>
      <point x="1114.66" y="461.9"/>
      <point x="1114.66" y="452.17"/>
      <point x="1114.66" y="441.87" type="curve" smooth="yes"/>
      <point x="1114.66" y="227.79999999999998"/>
      <point x="959.9100000000001" y="114.19"/>
      <point x="701.6350000000001" y="114.19" type="curve" smooth="yes"/>
      <point x="442.14500000000004" y="114.19"/>
      <point x="288.18" y="226.37"/>
      <point x="288.18" y="439.935" type="curve" smooth="yes"/>
      <point x="288.18" y="461.075" type="line" smooth="yes"/>
      <point x="288.18" y="674.855"/>
      <point x="441.22" y="780.54"/>
      <point x="697.4849999999999" y="780.54" type="curve" smooth="yes"/>
      <point x="923.365" y="780.54"/>
      <point x="1102.155" y="686.66"/>
      <point x="1114.66" y="459.72999999999996" type="curve"/>
      <point x="1113.1100000000001" y="718.38" type="line"/>
      <point x="1061.43" y="698.68" type="line"/>
      <point x="1001.77" y="842.5949999999999"/>
      <point x="857.67" y="922.085"/>
      <point x="635.545" y="922.085" type="curve" smooth="yes"/>
      <point x="311.17" y="922.085"/>
      <point x="108.095" y="758.73"/>
      <point x="108.095" y="462.29" type="curve" smooth="yes"/>
      <point x="108.095" y="440.72" type="line" smooth="yes"/>
      <point x="108.095" y="134.29"/>
      <point x="321.30000000000007" y="-28.925"/>
    </contour>
    <contour>
      <point x="274.945" y="992.695" type="line"/>
      <point x="1206.895" y="1175.555" type="line"/>
      <point x="1206.895" y="1288.625" type="line"/>
      <point x="274.945" y="1106.55" type="line"/>
    </contour>
  </outline>
</glyph>
<glyph name="divide" format="2">
  <advance width="1340.01"/>
  <unicode hex="00F7"/>
  <outline>
    <contour>
      <point x="146.375" y="536.34" type="line"/>
      <point x="1193.635" y="536.34" type="line"/>
      <point x="1193.635" y="678.6700000000001" type="line"/>
      <point x="146.375" y="678.6700000000001" type="line"/>
    </contour>
    <contour>
      <point x="672.1500000000001" y="79.9" type="curve" smooth="yes"/>
      <point x="753.325" y="79.9"/>
      <point x="792.38" y="120.66499999999999"/>
      <point x="792.38" y="187.065" type="curve" smooth="yes"/>
      <point x="792.38" y="191.06500000000003" type="line" smooth="yes"/>
      <point x="792.38" y="257.25"/>
      <point x="753.325" y="297.015"/>
      <point x="672.1500000000001" y="297.015" type="curve" smooth="yes"/>
      <point x="593.1899999999999" y="297.015"/>
      <point x="553.135" y="257.25"/>
      <point x="553.135" y="191.06500000000003" type="curve" smooth="yes"/>
      <point x="553.135" y="187.065" type="line" smooth="yes"/>
      <point x="553.135" y="120.66499999999999"/>
      <point x="593.1899999999999" y="79.9"/>
    </contour>
    <contour>
      <point x="672.1500000000001" y="925.0600000000001" type="curve" smooth="yes"/>
      <point x="753.325" y="925.0600000000001"/>
      <point x="792.38" y="965.825"/>
      <point x="792.38" y="1032.2250000000001" type="curve" smooth="yes"/>
      <point x="792.38" y="1036.225" type="line" smooth="yes"/>
      <point x="792.38" y="1102.41"/>
      <point x="753.325" y="1142.175"/>
      <point x="672.1500000000001" y="1142.175" type="curve" smooth="yes"/>
      <point x="593.1899999999999" y="1142.175"/>
      <point x="553.135" y="1102.41"/>
      <point x="553.135" y="1036.225" type="curve" smooth="yes"/>
      <point x="553.135" y="1032.2250000000001" type="line" smooth="yes"/>
      <point x="553.135" y="965.825"/>
      <point x="593.1899999999999" y="925.0600000000001"/>
    </contour>
  </outline>
</glyph>
<glyph name="oslash" format="2">
  <advance width="1405.345"/>
  <unicode hex="00F8"/>
  <anchor x="703.0649999999999" y="0.0" name="bottom"/>
  <anchor x="703.0649999999999" y="478.35499999999996" name="center"/>
  <anchor x="1264.775" y="10.0" name="ogonek"/>
  <anchor x="703.0649999999999" y="956.71" name="top"/>
  <anchor x="1385.3449999999998" y="956.71" name="topright"/>
  <outline>
    <contour>
      <point x="702.495" y="-28.14" type="curve" smooth="yes"/>
      <point x="1088.905" y="-28.14"/>
      <point x="1297.25" y="144.355"/>
      <point x="1297.25" y="466.925" type="curve"/>
      <point x="1297.25" y="490.21500000000003" type="line"/>
      <point x="1297.25" y="806.785"/>
      <point x="1073.13" y="985.635"/>
      <point x="702.495" y="985.635" type="curve" smooth="yes"/>
      <point x="317.43999999999994" y="985.635"/>
      <point x="108.095" y="812.355"/>
      <point x="108.095" y="492.57" type="curve"/>
      <point x="108.095" y="469.28000000000003" type="line"/>
      <point x="108.095" y="151.925"/>
      <point x="331.21500000000003" y="-28.14"/>
    </contour>
    <contour>
      <point x="113.67500000000001" y="-56.775" type="line"/>
      <point x="290.2" y="-56.775" type="line"/>
      <point x="414.84499999999997" y="76.50500000000001" type="line"/>
      <point x="446.255" y="111.055" type="line"/>
      <point x="1069.87" y="775.415" type="line"/>
      <point x="1108.99" y="817.675" type="line"/>
      <point x="1291.6699999999998" y="1013.485" type="line"/>
      <point x="1116.145" y="1013.485" type="line"/>
      <point x="1005.0600000000001" y="895.3349999999999" type="line"/>
      <point x="972.005" y="859.14" type="line"/>
      <point x="340.185" y="186.00500000000002" type="line"/>
      <point x="301.84999999999997" y="145.52999999999997" type="line"/>
    </contour>
    <contour>
      <point x="702.495" y="104.77000000000001" type="curve" smooth="yes"/>
      <point x="434.79" y="104.77000000000001"/>
      <point x="281.90000000000003" y="233.8"/>
      <point x="281.90000000000003" y="466.925" type="curve" smooth="yes"/>
      <point x="281.90000000000003" y="492.56999999999994" type="line" smooth="yes"/>
      <point x="281.90000000000003" y="728.125"/>
      <point x="432.36" y="853.5100000000001"/>
      <point x="702.495" y="853.5100000000001" type="curve" smooth="yes"/>
      <point x="971.77" y="853.5100000000001"/>
      <point x="1123.445" y="724.91"/>
      <point x="1123.445" y="492.56999999999994" type="curve" smooth="yes"/>
      <point x="1123.445" y="466.925" type="line" smooth="yes"/>
      <point x="1123.445" y="231.37"/>
      <point x="972.2" y="104.77000000000001"/>
    </contour>
  </outline>
</glyph>
